<mxfile host="Electron" agent="Mozilla/5.0 (Windows NT 10.0; Win64; x64) AppleWebKit/537.36 (KHTML, like Gecko) draw.io/24.7.8 Chrome/128.0.6613.36 Electron/32.0.1 Safari/537.36" border="50" scale="3" compressed="false" locked="false" version="24.7.8">
  <diagram name="Blank" id="YmL12bMKpDGza6XwsDPr">
    <mxGraphModel dx="3354" dy="1204" grid="0" gridSize="10" guides="1" tooltips="1" connect="1" arrows="1" fold="1" page="0" pageScale="1" pageWidth="827" pageHeight="1169" background="none" math="1" shadow="0">
      <root>
        <mxCell id="X5NqExCQtvZxIxQ7pmgY-0" />
        <mxCell id="1" parent="X5NqExCQtvZxIxQ7pmgY-0" />
        <mxCell id="vrtAtZKuDrGTrBNEmQKv-1" value="AutoCompression" style="ellipse;whiteSpace=wrap;html=1;" parent="1" vertex="1">
          <mxGeometry x="195" y="342" width="120" height="80" as="geometry" />
        </mxCell>
        <mxCell id="vrtAtZKuDrGTrBNEmQKv-3" value="" style="endArrow=classic;html=1;rounded=0;exitX=0;exitY=1;exitDx=0;exitDy=0;entryX=0.5;entryY=0;entryDx=0;entryDy=0;" parent="1" source="vrtAtZKuDrGTrBNEmQKv-1" target="vrtAtZKuDrGTrBNEmQKv-4" edge="1">
          <mxGeometry width="50" height="50" relative="1" as="geometry">
            <mxPoint x="389" y="506" as="sourcePoint" />
            <mxPoint x="201" y="591" as="targetPoint" />
          </mxGeometry>
        </mxCell>
        <mxCell id="VoxQ2xOeLB6ngErJ3XlM-1" style="edgeStyle=orthogonalEdgeStyle;rounded=0;orthogonalLoop=1;jettySize=auto;html=1;exitX=0.5;exitY=1;exitDx=0;exitDy=0;" parent="1" source="vrtAtZKuDrGTrBNEmQKv-4" target="W5TQijJyQ9mE0h_75X8s-142" edge="1">
          <mxGeometry relative="1" as="geometry" />
        </mxCell>
        <mxCell id="vrtAtZKuDrGTrBNEmQKv-4" value="Video compression input parameters" style="swimlane;whiteSpace=wrap;html=1;fontSize=30;fontStyle=5;startSize=57;" parent="1" vertex="1">
          <mxGeometry x="-289" y="600" width="2750" height="2223" as="geometry">
            <mxRectangle x="-299" y="602" width="133" height="26" as="alternateBounds" />
          </mxGeometry>
        </mxCell>
        <mxCell id="W5TQijJyQ9mE0h_75X8s-119" value="Overview" style="swimlane;whiteSpace=wrap;html=1;fontSize=24;startSize=37;" parent="vrtAtZKuDrGTrBNEmQKv-4" vertex="1">
          <mxGeometry x="27" y="70" width="760" height="1617" as="geometry">
            <mxRectangle x="27" y="70" width="762" height="26" as="alternateBounds" />
          </mxGeometry>
        </mxCell>
        <mxCell id="vrtAtZKuDrGTrBNEmQKv-6" value="&lt;font style=&quot;font-size: 24px;&quot;&gt;VQA&lt;/font&gt;" style="swimlane;horizontal=0;whiteSpace=wrap;html=1;" parent="W5TQijJyQ9mE0h_75X8s-119" vertex="1">
          <mxGeometry x="24" y="47" width="700" height="220" as="geometry" />
        </mxCell>
        <mxCell id="vrtAtZKuDrGTrBNEmQKv-13" value="&lt;h1 style=&quot;margin-top: 0px; font-size: 17px;&quot;&gt;&lt;span style=&quot;font-weight: 400;&quot;&gt;&lt;font style=&quot;font-size: 17px;&quot;&gt;Is able to get needed cq for visually comparable results with 3 samples&lt;/font&gt;&lt;/span&gt;&lt;/h1&gt;&lt;div style=&quot;font-size: 17px;&quot;&gt;&lt;span style=&quot;font-weight: 400;&quot;&gt;&lt;font style=&quot;font-size: 17px;&quot;&gt;- Extremly scene dependent, requires multiple scenes to be analized&lt;/font&gt;&lt;/span&gt;&lt;/div&gt;&lt;div style=&quot;font-size: 17px;&quot;&gt;- Calculation not yet finnished&lt;/div&gt;&lt;div style=&quot;font-size: 17px;&quot;&gt;&lt;br&gt;&lt;/div&gt;&lt;div style=&quot;font-size: 17px;&quot;&gt;Can determine real video rezolution&lt;/div&gt;&lt;div style=&quot;font-size: 17px;&quot;&gt;- Unknown scene dependency&lt;/div&gt;&lt;div style=&quot;font-size: 17px;&quot;&gt;- Unknown calculation&lt;/div&gt;&lt;div style=&quot;font-size: 17px;&quot;&gt;&lt;span style=&quot;font-weight: 400;&quot;&gt;&lt;br&gt;&lt;/span&gt;&lt;/div&gt;" style="text;html=1;whiteSpace=wrap;overflow=hidden;rounded=0;" parent="vrtAtZKuDrGTrBNEmQKv-6" vertex="1">
          <mxGeometry x="27" y="4" width="484" height="209" as="geometry" />
        </mxCell>
        <mxCell id="vrtAtZKuDrGTrBNEmQKv-15" value="&lt;h1 style=&quot;margin-top: 0px;&quot;&gt;VQA vs VMAF&lt;/h1&gt;&lt;div style=&quot;font-size: 17px;&quot;&gt;&lt;font style=&quot;font-size: 17px;&quot;&gt;VQA is less resource intesive&lt;/font&gt;&lt;/div&gt;&lt;div style=&quot;font-size: 17px;&quot;&gt;&lt;font style=&quot;font-size: 17px;&quot;&gt;VQA is absolute -&amp;gt; if compression returns better percived video then original its recognized&lt;/font&gt;&lt;/div&gt;&lt;div style=&quot;font-size: 17px;&quot;&gt;&lt;font style=&quot;font-size: 17px;&quot;&gt;VMAF expect the original video to be perfect&lt;/font&gt;&lt;/div&gt;&lt;div style=&quot;font-size: 17px;&quot;&gt;&lt;font style=&quot;font-size: 17px;&quot;&gt;VMAF is more stable -&amp;gt; not so scene dependent&lt;/font&gt;&lt;/div&gt;&lt;div style=&quot;font-size: 17px;&quot;&gt;&lt;font style=&quot;font-size: 17px;&quot;&gt;VMAF is algorithmic returning the same result on a video every time&lt;/font&gt;&lt;/div&gt;&lt;div style=&quot;font-size: 17px;&quot;&gt;&lt;font style=&quot;font-size: 17px;&quot;&gt;VQAs is machine learning -&amp;gt; results change -&amp;gt; need for averaging&lt;/font&gt;&lt;/div&gt;&lt;div style=&quot;font-size: 17px;&quot;&gt;&lt;br&gt;&lt;/div&gt;" style="text;html=1;whiteSpace=wrap;overflow=hidden;rounded=0;" parent="W5TQijJyQ9mE0h_75X8s-119" vertex="1">
          <mxGeometry x="24" y="417" width="703" height="179" as="geometry" />
        </mxCell>
        <mxCell id="vrtAtZKuDrGTrBNEmQKv-16" value="&lt;h1 style=&quot;margin-top: 0px;&quot;&gt;Conclusion&lt;/h1&gt;&lt;p style=&quot;font-size: 17px;&quot;&gt;&lt;font style=&quot;font-size: 17px;&quot;&gt;For reason of non-perfect quality of reference video VMAF doesnt seem fitting for res&lt;/font&gt;&lt;/p&gt;&lt;p style=&quot;font-size: 17px;&quot;&gt;&lt;font style=&quot;font-size: 17px;&quot;&gt;Video filtering is not yet subject&lt;/font&gt;&lt;/p&gt;&lt;p style=&quot;font-size: 17px;&quot;&gt;&lt;font style=&quot;font-size: 17px;&quot;&gt;Some combination of VMAF and VQA would be ideal&lt;/font&gt;&lt;/p&gt;" style="text;html=1;whiteSpace=wrap;overflow=hidden;rounded=0;" parent="W5TQijJyQ9mE0h_75X8s-119" vertex="1">
          <mxGeometry x="24" y="605" width="692" height="178" as="geometry" />
        </mxCell>
        <mxCell id="vrtAtZKuDrGTrBNEmQKv-7" value="&lt;font style=&quot;font-size: 24px;&quot;&gt;VMAF&lt;/font&gt;" style="swimlane;horizontal=0;whiteSpace=wrap;html=1;" parent="W5TQijJyQ9mE0h_75X8s-119" vertex="1">
          <mxGeometry x="24" y="295" width="700" height="97" as="geometry" />
        </mxCell>
        <mxCell id="vrtAtZKuDrGTrBNEmQKv-14" value="&lt;h1 style=&quot;margin-top: 0px; font-size: 17px;&quot;&gt;&lt;span style=&quot;font-weight: 400;&quot;&gt;&lt;font style=&quot;font-size: 17px;&quot;&gt;Good for comprarison of two videos&lt;/font&gt;&lt;/span&gt;&lt;/h1&gt;&lt;div style=&quot;font-size: 17px;&quot;&gt;&lt;span style=&quot;font-weight: 400;&quot;&gt;&lt;font style=&quot;font-size: 17px;&quot;&gt;- Possibly could determine cq and resolutoin, untested&lt;/font&gt;&lt;/span&gt;&lt;/div&gt;&lt;div style=&quot;font-size: 17px;&quot;&gt;&lt;span style=&quot;font-weight: 400;&quot;&gt;&lt;font style=&quot;font-size: 17px;&quot;&gt;- Able to analize multiple scenes - not scene dependent&lt;/font&gt;&lt;/span&gt;&lt;/div&gt;" style="text;html=1;whiteSpace=wrap;overflow=hidden;rounded=0;" parent="vrtAtZKuDrGTrBNEmQKv-7" vertex="1">
          <mxGeometry x="24" width="484" height="84" as="geometry" />
        </mxCell>
        <mxCell id="t4vPKVTW1FN4aHRBo3Oe-2" value="Relation of res to VQA" style="swimlane;whiteSpace=wrap;html=1;fontSize=20;" parent="W5TQijJyQ9mE0h_75X8s-119" vertex="1">
          <mxGeometry x="65" y="787" width="626" height="402" as="geometry" />
        </mxCell>
        <mxCell id="t4vPKVTW1FN4aHRBo3Oe-3" value="" style="shape=image;verticalLabelPosition=bottom;labelBackgroundColor=default;verticalAlign=top;aspect=fixed;imageAspect=0;image=data:image/png,iVBORw0KGgoAAAANSUhEUgAAAlIAAAFoCAYAAACc1hUlAAAAAXNSR0IArs4c6QAAAARnQU1BAACxjwv8YQUAAAAJcEhZcwAADsMAAA7DAcdvqGQAAHcXSURBVHhe7Z0JfFTV+f7f7AubBNmCgJIEUDZREjdARAW1zR8FFUFFpKgFKljQilVqKbbCz4pFFCtSREAgKiqNgoAKyqIEbABBhQSVJUREQLbsy3+ec++ZuZlMMskkGWYyz/fzub33nnuTmstk8sz7Puc5QaU2hBBCCCGEVJtgc08IIYQQQqoJhRQhhBBCiIdQSBFCCCGEeAiFFCGEEEKIh1BIEUIIIYR4iNdn7a1YsULWrFkjJ06ckLi4OBk8eLD07NnTvFqWo0ePyjvvvCNbt26VvLw8t/cTQgghhHgTr1akNm7cKCkpKdK7d2+ZNWuWNG3aVObNm2deLc+iRYskMzNTHn74YZk6daq6f/bs2UpgEUIIIYSca7wqpNLS0qRLly4ybNgwad68uSQnJ6vKFASWMxBL27Ztk4EDB6oKVEJCgkycOFGioqLk448/Nu8ihBBCCDl3eFVIZWVlSZs2bcwzUeIIVSZUnZzZs2eP2g8YMEDtNV27dpVvvvnGPCOEEEIIOXd4VUhlZ2dLRESEeWYQExNjHpWlZcuWau+qWkUIIYQQ4gt4fdZe27ZtzaPKQbWqdevW8t5770l6erpkZGTIggULZMOGDeYdhBBCCCHnFq/O2hs+fLjyRcEjpZkyZYqajTdy5EhzxAF8Ui+++KLs27dPIiMjJTExUY0fPnxYpk2bpo6rC9qCoaGh5hkhhBBfBX+egoKCzDPiCj4j98BbXdUijid4VUhNmjRJunXrVkY0jRs3TgkkV0LKFTNnzpTc3Fx58sknzZHqsX79eunXr595RlyB6h/EbXCw1wuWfgOfkXv4jNzDZ1Q58M926NCBz6cS+Izcs3fvXunYsaN5Vvt49cnDaA7DuQZvIpi1Fx8fb444wDVUsNDW06BCtWvXLmU4J4QQQgg513hVSCUlJcnu3btl6dKlShSlpqaqWXvIlQII6hw1apQSUfBI4ZPa4sWL1Tm2uXPnqvsHDRqk7ieEEEIIOZd4VUhBMA0dOlTNxJswYYKqRo0ePdq8KnLs2DGVYH7kyBF1Pn78eFXFevrpp9UGJk+erPaEEEIIIecary8RUxmoUk2fPl2JJQR21gX0SLkH1T/6NiqHz8g9fEbu4TOqHPp/3MNn5J565ZFyB5aE6du3b52JKEIIIYSQ2sSnhBSWgKH/iRBCCCH+AmuBhBBCCCEeQiFFCCGEEOIhFFKEEEIIIR5CIUUIIYQQ4iEUUoQQQgghHkIhRQghhBDiIRRShBBCCCEeQiFFCCGEEOIhFFKEEEIIIR5CIUUIIYQQ4iEUUoQQQgghHkIhRQghhBDiIRRShBBCCCEeQiFFCCGEEOIhFFKEEEIIIR5CIUUIIYQQ4iEUUoQQQgghHkIh5cd8s2i7rBj0pmS+/605QgghhBBv4nUhtWLFChk3bpwMHz5cpkyZIunp6eYV1yxYsEBGjRql7p80aZLb+wOB/BN58tmkj2Tbcxvl130nZNNTn8iGyWvVeMHpfDnwyffmnYQQQgipS7wqpDZu3CgpKSnSu3dvmTVrljRt2lTmzZtnXi0PRNfnn3+uhBTu79atm8yePVuOHj1q3hF4QCy9l7xYDqz7QUpLSs3RIPlxTaYa3/D4Glk3YaXaCCGEEFK3eFVIpaWlSZcuXWTYsGHSvHlzSU5OlhMnTiiB5Ypt27ZJYmKiEl64f+TIkZKXlyd79uwx7wg8vnxmvRTnF0lJQbHtLMgYlFJ1Xni2QA5vPqRGzmSdUnuA1h+qVse/+8UcIYQQQkht4FUhlZWVJW3atDHPRBISElRVKjMz0xwpS2RkpHlENIc+/1GKcovMs7KUFJZIkO1f9JJ7L5XrZt1ijopsnbHRFFMfmyOEEEIIqQ28KqSys7MlIiLCPDOIiYkxj8pz7bXXytatW1XFCu28mTNnSuvWrVWFKhBBlQkiStehnMF4cUGxdLm/pzRs09gYtBHT+Xy1b5V4gdoDtP7e6PqSMqwTQgghxDO8KqRA27ZtzSP3QDB17dpV5syZIxMmTFCtvoEDB5pXAw+Io9DIENHOKGcwjuvRLRoYAyYDX79NhqweIT3GJpojYjekH/z0B7UHP23N8hthZW1dEkIIIeeKoFIb5nGdg5l38EXBI6XBzL24uDjlf3IGFSi0A3//+9+rNiAqU/Pnz5e77rpLBgwYYN5VPdavXy+xsbHmmf+R8a+v5djmn6S0qPw/W1BokMQktZCOj/YwRyom+4P9cmr3CWneL1Zirmihxrbeu06KzhZKi/5tpMO4SyQoqKLa17mh6FShfD/3G/n1f79IcV6xhNhEY1Pbz3vRqM4S2jjMvMt74FfH154RIYSQ8nTs2NE8qn28KqQQX4CZd1bRhCgEGMqdhRRaeahCjR07tkwr75VXXpHDhw/LtGnTzJHqASHVr18/88z/0LP2YCxXnijbGP4Bg8NDJDQiRAavHCERTavvLUNswvIBC9U+NvlCuf7vt0hwcLBpUj8qiY/3kVaJDn+bt7H/3DmFylhv/bnDosPkttR7PPq5PSUjI0N9AMAzIq7hM3IPn1HlwD/boUMHPp9K4DNyz969e+tUSHn1ycNojgqTBm8imLUXHx9vjhB3QCxANFw4MMHe5guNCpV2113ksYgC4Y0iVAsQJvULhnZQYxBVMKljtt+3i3eoMYC2GtqA3qTsbEVDRAE9WzFtxgZzhBBCCPEeXhVSSUlJsnv3blm6dKmqOKWmpqpZe7ritGbNGpUZBYGFuAN8UnvvvfdUCCfuR64UzOe9evVS9wcqEEt9pt8od28bo7xPd2/9vVz7/E01rsjAlN7u+g4S2sBok0Fc4Rz7uP/XWY1BRKXeniKr73/Pq8Gf7mYrHvjY9cxPQgghpC7xqpCCYBo6dKjyOqFth2rU6NGjzasix44dUzlRR44cUefjx49XVSyEcOJ+CK0bb7xRBg0apK4Tw4Bel6BCNeyLB5SgAuGNI1SlChzZdljtAUzqdRUCWpXZikV5xZLz81ljgBBCCPESXvVIuQNVp+nTp8vkyZNVRaou8HePlDdw59tAJQoiCrMAUa1Cmw8VKnDp2CTbeJI6rk3e7PWKEksVgTYnKnTegt4W9/AZuYfPqHLo/3EPn5F76pVHyh2LFi2Svn371pmIIrUDqlOJj/dWIgqgJaiPG8Q2UntUkZYPXKiyqmrDT9XuhngJDnP9csX4BddeZJ4RQggh3sOnhNTEiRPZtvNDIKLQ/oNfK/7Wi9UYDOo66+mIRUihmuWJtyrp8T4S1iDcLqZ0m0/NVowMlSufYpWREEKI92EtkNQaVr8WqlYQVdhffK+RawUBpRdUrq6YqqvZioQQQkhNoJAidcY1z1yvzOq67QejukYb1rGHvwqbHquIupqtSAghhHgKhRTxGgj0TH7nLpVXpVuAqEzBQ4UNmVUaa2vQFXU9W5EQQgipChRSxKvAmG5NSMcxxiCM2vU3IhYgrlJvX6bM6pWJKUIIIeRcQyFFzikQUKhSoVWnq0xnDjvEk57xh7bfjjlpaiOEEEJ8BQop4nNccu+lKl4Bm24Bfrtoh2y3iShstRGnQAghhNQGFFLEJ4GYwqZpabYDYVzX5nUIqqVXvabagO6M6oQQQkhdQCFF/AJ4qZBVlfzOUOWpAgc//UEJKBjTsQGc64WWCSGEkLqGQor4DahEWWfrXXxPd5VThcqVFldoAW566hNVpaJRnRBCSF1DIUX8Fogq5FRZl6vRWM9RnYKw2jpjozlCCCGE1A4UUqRegQWTEQSKrCpdvfp28Q4lpr5ZtN3updItQXqrCCGE1AQKKVLvwEw/3eoDcYM6qwqVNb9qx5ytqkqVenuKOUIIIYRUHwopUu/RRnVUqXTLT2dVFZzKt1elUKFC+4/xCoQQQqoKhRQJSND+u3RsUhl/1dYZG1T7D+v+EUIIIVWBQooEJBBP8FPpwE8Q07m5uXe0BSGskFW1bsJKc4QQQghxQCFFiAmqU3pRZc2+Fd/ZjekaxCr8/GkWjeqEEEIopAixgmqUNToh8fE+aqzHmERzRFR1KnP2LvnwzrfNEUIIIYEKhRQhlQCjOqpU1hagFloNWjdUe4AWIGYBHvjke3OEEEJIIOB1IbVixQoZN26cDB8+XKZMmSLp6enmlbJs3LhR3eNqw9cRcq647sVb5MJRneTqaf3NEWRV7TRm/f2fI/TTuSVICCGk/uFVIQVxlJKSIr1795ZZs2ZJ06ZNZd68eebVsnTq1EnGjh1bbouLi5PIyEjzLkK8DypSsckXllmuJt7MqmrXv4M5IvalarAnhBBSP/GqkEpLS5MuXbrIsGHDpHnz5pKcnCwnTpxQAssZXIfgsm4QV1lZWXLttdeadxHiG2AGILKqYFjX/JRm5FEd/+6o2gMsqIysKq4DSAgh9QOvCimIoDZtHOnSCQkJqiqVmZlpjlTOhx9+qO6HqCLE10ELEAsqX/PMDeYIsqo2Kj+VtQVICCHEf/GqkMrOzpaICMeMKBATE2Meuefzzz+Xvn37mmeE+DYwqqNCZc2latimkbGPNdqC8FFhFiCyqmhUJ4QQ/8PrZvO2bduaR9UDJvWoqCgZNGiQOUKI/4EZgNh6jHXEKUBAQVDt++935oioZWrQBiSEEOLbBJXaMI/rHMy4gy8KHikNZuDBQD5y5EhzxDWY6ZeYmOj2PnesX79eYmNjzTNSEXhZBAUFmWfEFbX1jH6cv0dO7T4uF9wZJzFXtJD8n3Nl56QvpehsobT+bXs1Q5AQQojndOzY0TyqfbwqpCZNmiTdunUrI4aqIpDWrFkjy5YtkxkzZigTek2AkOrXr595RlyRkZGhxG1wsNcLln5DXT4jVKfQ6gNYDxBGdoDZf7jWY0xSmXahr8LXkXv4jCoH/tkOHTrw+VQCn5F79u7dW6dCyqtPHkZzGM41eBPBrL34+HhzxDUbNmyQrl271lhEEeIPIEYB7T8srHzxvT3UGPKo0OpDGxDL1mggrDgDkBBCzh1eFVJJSUmye/duWbp0qRw9elRSU1PLzMJD5WnUqFFKYGkQjbBv3z7VEiQkUEDFCWnqOkUdJnW9fE3LXkZrGgJq+YCFsnzgQhrVCSHkHOFVIQXBNHToUCWOJkyYoKpRo0ePNq+KHDt2TPLy8uTIkSPmiCN7ClEJhAQqukqFrKp21xuhn2cOn1YVKePYUZVCvMKOOWnmGSGEkLrE601VzLp7+eWXZcmSJTJt2jTp2bOneUXkhhtukNatW6vgTc3EiRPlySefNM+IMwd++dU8IoGGjldAVpVeCxCz/ZBVtd0mpCCoCCGE1C0+5U5btGiRyomiF6pyjp/JkdFzlkub0f+QXo/Nlgse+IeMnfu+GieBBUQUxJS9BRhr5FSBmM7G75FqAQ40WoD0UxFCSO3iU0IK1SfmRFUOxNJVT8yR1el7pLC4WI0VFBVL6tZv1Pim736U51Z8LrsO/KSukcAC6/8NWT1CtQFRsQIwqkNAYTvwqcNLheoVNkIIIZ7jU0KKuOdPC1dJfkGR5NvEkxWcn8ktkPtfekeee/8zuW3GIvOKyMmcPAqrAAJiyhqP0CqpjfJVQVjpFiBmAK6+/z21UUwRQojnUEj5GWt3ZEhOQaF5VhZUqE7l5qnjtuefp/ZgytI10v/p19RGAg+0/a6bdYsMfP02yyxAY4kaUHDKMKzDuI7lapBXRQghpGpQSPkRMJbnKhFVUZp2kJSUlMp/xg2RNx6+wxwT2XXAmAV50GJMf3XNFiWsILJI4IHqFHKqILD0LECdU6X3GrQE9exAQgghZaGQ8iPanX+eRIaH2o4qCqMvVdeTe11SpiL14u+S5bFbr5UFFnGVsmmnavdBUGkgtOCv+t9+R/wEqb+gzadFFGiVeIHaW1uDEFTKqD5gofz81WE1RgghxAGFlJ/x28svlrCQEPOsLBgf0KN8DH7Xdq3ksUF95ZrOF5ojos6bREfKQwOuMEdEnlq6Rvmr/rx8kzlCf1UgAfF0364/KLO6bv0d3W7826Miteq+d+XNxH/LZ49+JF89v5mLKhNCiA0KKT/jmeEDpGFUuEVMGW2+iNAQiY4Ik/8bcbM6d8fNl3WSjJcfk2nDBpgjhuACrZo0UHvwzxWfqxbg5Y/NNkdIoJB/Ik8y3t0tQSF4myhVr7Si3CLZv3af7Hr9f8pLxTgFQkigQyHlZ8Q0jJYvnh0rg5Iusbf5osLDZGDPTrJlxjh13VNQpXrv8Xtl+u3Gkj1AV6NO5eSp6hRY9b8959xfxSDSuufLZ9ZLcUGxlBaX2M6C7A3l0mLjKNgm3jVoAWKhZcwCJISQQIJCyg+BWJrz4K1y4NUnZNtzD8v+VyfLvLFDaiSiNGj/WStSCx6+U/mrXvzd/1OtQDB37Ra7v0qLK/irIKwgsuoKHUTa/qHpKogUewaR1h2HPv9RVaAqIsj27qFbgEe2HVbtP0QpILcKFJ0tlIOf/sCqFSGkXkMh5efAgF6XQDyhUoVWoOZR0191V+8ednEFkzqE1X2z37KLKwDBZT33FGsQqZ65iL0OIqWYql0gfiCiKp4fKqpalfPzWXUeN6izPadKG9UPpXwv6x9ZJam3p3DWHyGk3kIhRaoNqlbwV6FKpenStqXaW2cL6ogFVI9qKqbKB5Ea7SUdRPrUEsY41CaoNIVGhtjbec5gHNejWxjVS4gn5FQhUsEVOqsK1Sq0/7gOICGkvkAhRWoFzP6Dv+p926arVIeOnVR7AI8VwBI2EFeoXFUHd0GkH3zFGWS1Tbsb4iU4zPVbBMYvuPYi88w1F47qJL3+dI0SWLoFuHXGBvvCyrpKhT3bf4QQf4VCitQaqFRZK1JoAWp/lR7/KH2vavfBS6WN7KhW6dagK6oSRJpXUCQ//XraPCe1QdLjfSSsQbhdTOmnHxweIqGRoXLlU/3MkYq5+J4eZZarQQsQoA2oU9Z3zNmqsqpSb1+mzgkhxJ+gkCJ1hit/1U09OypRBX+VFldz16ap/CqY1a3p6xBaOK9qEGmr8xqZ56Q2iGgaKbel3iMXDkywt/lCo0Kl3XUXyeCVI9T16gIPFbKqUKXSHP/uqNqfyXIIYbQAUbXSxnVCCPFVKKSIV0HV6qvnHi4zC7BtsyZqj/PG5pj2VyG/CmLKkyBSUnMglvpMv1Hu3jZGBXXevfX3cu3zN3kkoioi8fE+KmE98XFH7AZagPBRMU6BEOLrUEiRcw6qU59OfUBtrvxVaP0hiDQqIlSCgnSDydhXN4iUeI72OdU2aP1hzT9UqzThjfXiyo4qI4QVsqpoVCeE+BIUUsQnQKq61V+FxHXtr8I1ZGTddkVXKS3V7b0SFUTav3u83NvvMnl789fmOKkPQFih/WdtAcJLBWP6t4t3miOGUd26wDIhhHgbCinis8BfhWqVZvwtVytRdU3n9rLubw+pINKrO7WXl1ZuVv4qzAjUaH8V8V+shnTQY2yiql5dfE93c0RU62/dhJVqI4SQcwGFFPEbULFC+++9x0fYc6t0IClagrotuGzjjjL+KlI/uOTeSyX5nbvUXqMN6jqnCmAxZQgrxCwQQkhd43UhtWLFChk3bpwMHz5cpkyZIunp6eYV16xZs8Z+P/Y4J0SDGYEwr0Ng6UWXD1r8VbsOHFF7CCqIq9tmLKyVpHXiG6D1B5O6NQgUs/3Q7tsxJ80cYVYVIaTu8KqQ2rhxo6SkpEjv3r1l1qxZ0rRpU5k3b555tTy4f8GCBfb7scd5RkaGeQchRqXK6q9CSxAeK/irdPTCsk07Vbtv03f77esB6vwqbMQ/QasPFSqrEV7nVsV0bq72YN34lSqrikZ1Qkht41UhlZaWJl26dJFhw4ZJ8+bNJTk5WU6cOKEEkytWr14tffr0sd+PfevWreXjjz827yDENUhat/qr7rqmu/JWYbOLq407VH4VNutiy/RX+TeoUg374gF7nAKqUbrNh0WUNahaoXpFCCE1watCKisrS9q0aWOeiSQkJKiqVGZmpjlSln379km3bt3MM4Pnn39exowZY54RUjVQsYK3Cpv2UkFUASO/yjA1Q1Bpf5VOXif+h9WkjmO0/oysqj7mqMimpz5RFSrsCSHEU7wqpLKzsyUiwvEGB2JiYsyjsugqVU5Ojvz9739XHqlRo0ap1h4htQE8VdpfhaBQZw7+YnitUJ2CsIK/ipUq/wQZVYhU0G0/VKk0DWONrCqMwaSOrCoa1QkhVcXrZvO2bduaR1UD7b3ExETlkbrrrrvk888/V4Z1QmoDZ38V2n7O/ioY1iGg4K9aaWkB/vO/G1TsAvE/UKUasmaEagNefK/RAsbMP7T7IKi+XbxDjQGIKgorQkhFBJU6Eg7rHFSV4IuC10mDmXtxcXEycuRIc8QAFak5c+bI1KlTVQtQM3PmTOWrmjZtmjlSPdavXy+xsbHmGakIvCwcKeKBzem8AvnzcqNC+o8hvaVRZLikH/hZHn5znRobf0NPuTPRWKIm48gJtU9o2VTtiX+x76XdcvaHU3LBnXESc0ULyf85V3ZO+lKKzhZKp8cvVWOEEP+jY8e6W0bMq0Jq0qRJyvNkFU2INEDFyVlIHT16VCZMmCBjx45Vs/U0aO3BO1UTIdWvn/tV6wMZzIqEuA0O9nrB0m9YuTFNRv5ntfJXLXj4DtUaRCDoyNlvq9mAbzx8p72iFajUh9cRqlNo9YFLxyZJD9sGEK1wfM8vyntl9WNVF/6uVQ78sx06dODzqQQ+I/fs3bu3ToWUV588jOYwnGvwJoLqUnx8vDniALP0MEPv66/LLv1x/PhxiYysvQVTCfEEVJy2zhhXzl+lM6oOmF4qnMNbBY+VNXmd+AcQSTqrSrcA0f7bbhNS2H+7yNEChOiyeq8IIYGBV4VUUlKS7N69W5YuXaoqTqmpqWrWnq44IWwThnKdEzVw4EDZsGGD/X54o7Zt26YqWISca5z9VRBU2l+loxc2f7dfeavgsdq854AaA8iuGv+f/5pnxJfBUjXIqtKVp1ZJbVRuFc6bdjLM68e/+0WWD1hIozohAYhXhRQE09ChQ5X/CW07VKNGjx5tXhU5duyY5OXlyZEjRhr1gAEDVMtP3w+hha/HOCG+iM6v0hELV3dur84xQxBZVgCVKWRXqRwrSxioERjKqpWvo4zqq0coszoiFQBS03U16vh3R9UeIF6BIaCE1G+86pFyB6pO06dPl8mTJ6vWXl1Aj5R76NtwT02eEdp9vR6bXcZLhYoV8qvqk78q0F5Hzr4ptP70YspoDVrXCNTwd61y6P9xD5+Re+qVR8odixYtkr59+9aZiCLEF0C1KuPlx1SGlRZMjW1j2l+166BRkcX5fbPfor/KT4ARHVlVugVYdtka4z0NlavU25fJ6vvfo5+KkHqCTwmpiRMnyqBBg8wzQuo3Vn8VxBUqUfBYPXijMTMMVSokrWOfsmmnGgOvrtmiBJYWXt5CG+hJ1UD4Z/I7d6kNPitw4NPvlZ8KPipUrDQ456LKhPgnrAUS4iOgOgWPlfZXKV+V6a/S4gqVKYSAQmDNXZumxkBd+auOn8mR0XOWS/uHpqt2JPZj576vxol7IKZ0mjpo17+DElXYtL9q34rvVIUKiypDZBFC/AsKKUJ8GMwARMQCxBTAXleyGkcZLSRUrG6bsUhtVvN6TYFYuuqJObI6fY/kFhTaRoLUPnXrN2qcYqr6oN2HOAVsugV49vBptQe63Yc91gDkosqE+D4UUoT4EahWwVuFDdUrYPVXnTL32l+VMO45Vb3yhD8tXCX5BUWSX1RsjhjzUnB+JrdAnlrC5XFqg+5jEpUZHSZ13QJEPlXm+9+qGX/WOAX6qgjxPSikCPFDnP1V7z1+r/JXPTqorzkqSkBBUC3b5AiNROQCBBaqWO5YuyNDclQlqjyFxcXywVffmmekpmBGHxZW1rQ0BRUqWHpRZYgq5FTBrE4/FSG+A4UUIfUAhIFa/VXY49zqr4Ko0v6qpyyLLUNUOfurYCzX7TzXBEleQZH89KujLUVqD1Smhn3xgPSffYt99t/Zw2fUHj6qgtMF6hgVKueqFSHEu1BIEVJPQYXKuoQNxJWuZGnPFUB+FfxV1qT1drb7IsNDbUcVxcyVquutzjOqJaT2yD+RJ59N+kje7v+6/HfwMnkz8d+yYfJa6Ty8u6paoQ2oDew75mxVPirGKRBy7qCQIiSAgLCCv+oxswWIKpX2V+k9QPuvpKRUQioI+QsLCZEBPeou4C5QgYh6L3mxHFj3gxTlFql6IPY/rsmUD4e9Jb0mXVMm2DO8Ubi5j5CCU4aQgrcKMwBpVCfEO1BIERJgOPurIK70GoEAggrtv4KiYgm2/SWHaDIw2nzhIcESHREm/zfiZnVOao8vn1kvxflFUlJgGPx1PRDnhWcLJG3GBnPEACGgehagbgEetIkweKjQ8rPOAkRuFatWhNQ+FFKEBDho8zn7qx679Vo1/q9RyTIo6ZIybb6Yxg1ky4xxEtMw2h4aSmqHQ5//qCpQrigpLJEDH2eaZw7gp7JmVV18Tw9VoUIbUEcsoAWI5WqwsDIhpHahkCKElAOtP1Sq7ri6u8x58FY58OoT0jHWWOZkUOIlSkSB+2a/rdqAVn8V8QxUkXQ7zxWqzZdXLDk/nzUGKkAb1RGnoDlz2DHLT1elYFqHuLImrBNCqg+FFCGkSmz8+++Vv8oasaBjFKxxChBVyK9KSWOlqjqgNRcaGVKJvV/U9egWDYyBagBRdSnWAnzRsRbgpqc+ViIKwZ9W2P4jpHpQSBFCqgz8VboFCHR+lfZXAZ1f9dbWveaII7+Kiy9XTrsb4iU4zPXbMsYvuPYi86x6QDzBT6UDPwGWq1F7c6kaAIM6sqpQqSKEVA0KKUKIx2h/ldXADmGF8UduvMwcEbV0DQTW+P+kmiMOUztxkPR4HwlrEG4XU7rNFxweIqGRoXLlU/3MkZoDYTVk9QgVp6D5aeshtbeu+YdjGNcZAkqIayikiF+y/4zrxG1y7sFCy/BX9enoqH50bddS7W+5rJPag5Gz31JVKmxWrDEMgUZE00i5LfUeuXBggr3NFxoVKu2uu0gGrxyhrtcmaCfqVh9ItAk5VKh6jEk0R4wWoMqqGvW+OUIIsUIhRfyGY3nFcv/6Q9J60XfS4+0MtX/o8yw1TnybNx6+s5y/6sAvJ9Verw8IkLze67HZ8uqaLeZI4AGx1Gf6jXL3tjGqYnT31t/Ltc/fVOsiyhVo/V0365Yyy9VooaWXqgGoUCGrCplVhAQ6FFJ+Tsnxw+ZR/QZiKfHdTFm5/7TkFpWoMezf/+GUGqeY8n2c/VXO+VVgpemvmrs2zRwR5atC1SoQ24A6G+pcAoM6cqqw1yBOAa2+bxc71nHUWVWEBBoUUn5Iydlf5eTCyXL08Wvkl2eS1f7Um1PUeH3l0S+zJa+oVPJLys5pwvnpwhL5c9pP5gjxFyCqnP1Vz5j+Kp28DuCrMvxVjogF7a8K5Dagt0BFCpUqawtQZ1TFDepsjohapgYmdedZgITUdyik/AyIpWPPDpb8XZ9JaWGeMqNin7fjYzVeX8XURwfPSE6xUYlyptAmplb8SCNsfeDmyzqpShV8Vhp9jGsaiCpUqdAGtEJh5R1gUEdWlXW5Gm1Qt5rS0fqDuLKa1wmpb3hdSK1YsULGjRsnw4cPlylTpkh6erp5pTwbN25U9zlvgczp5dOltChfpMhY/d1en7Gdl+bnyJn3nzcH6g8wlut2XkXkFZdKdo7rRGji36A6BX+VtQWoaWxpFcJXBWF12wymd58Lkt+5SwkrHQSKVh9M6mj37XjF0aolpL7hVSEFYZSSkiK9e/eWWbNmSdOmTWXevHnmVde0bt1axo4dW2YLZAp2b7D9TwWfuosLJX9n/Surt28YJpEhFeU9G+B662gsY0LqI9b2H4Cogr/q/cfvNUdEUjbtVBWpXQeOmCNiO/5JCatANq97CyxTg0qV9nWh9dewjWFQbxhrjEFcoQX4RteX6Kci9QavCqm0tDTp0qWLDBs2TJo3by7Jycly4sQJJbBccezYMYmOjlbCy7oFKjCW63aeK4w2X76UnDpqDNQjBl3YWMKwgq4LMH5zO8eMIlL/ceWvmjbsRrmmc/syMwMxC3DTd/vlnys+N0cc/iprGjupG1ClKp9VlaX2+/77ndoDjGEmICH+iFeFVFZWlrRp48iWSUhIUFWpzMzyC3ECiCxcJwbBMbESFBZR6RISuB7c2FgTrT7xj6RW0igsuJyYirCdR4cGyT+vbG2OkEDlms4XynuPj1ACS3NTT8NXdbVNYGkgruCv6v/0a+aIAf1VdYN15iGqVFiqxsiqSlJjas2/8StVG3DHHLYAif/hVSGVnZ0tERGOmR8gJibGPHJNbm6u3VOFPTxWgUxE9+tFQsLU8fiYG6RH3N/UXmEbD+/SV04W1L8ogGaRIbJ1cLwMvqixvc0XFRost7RvJP8bkqCuE+IMRBX8Vcix0rgSTNpf5SyuSO2DRHVkVaEVCND+c17fD+cwqW//4yYa1YnP43Wzedu2bc0j90BEHT9+XEaPHi1LlixRbT14rCpqBQYCDW+dJEER0Uo0fda0r+RGXyRrz79ZJDRcgsIi5fl2QyVu8U4Z9N9t5lcY1AdxBbH0at828tOIi2XHHQmSfW9neb3fBRRRpFKc/VUQVfBXYZ1AzUfpRpQCPFVaaNFf5R1QpUILEFlVF99rzNCEeIKH6uwPp+XQuh/UGMA4hRXxNYJKbZjHdQ6qSvBFwSOlwcy9uLg4GTlypDlSOZMmTZL4+HgZM2aMOVI91q9fL7GxseaZfxKUd1qiNi2UR49FyepWQ6TLic9kWfQPkttnlNyw2faHIMJY2PSTK0KkUWiQzP3+pMzLbiDtIwpk/qVRagzsPVuqjluXLRIq8LIICnLtSfIFsk8dkdaNjWVHzhW+/oxI1ck4ckJe/DhderZvKaN6d1FjTyzfKBv2Gn6eVX+8TRpFhsvpvALZfuCoJLQ8T1o1aaCukdqn6Gyh7Jm+XXJ+PCOdJl8qjbs0lfyfc2XnpC/VtU6PXyoxV7Qw7ybEPR07djSPah+PhNTRo0dl8+bNysNUVQEEIIK6detW5mvQrktMTKzy94HwAtOmTVP76gIh1a9f7S38eS45/vxwKcraIyExsdLsKWMx2DEvT5GU4m4Sl/OdbJ38FzV29evL5Bvpro43DOog3WIi5e2MI/LAxmNqbOcdCdKuodEu3Jh9Vr7bnyWjkuIlONjrBctKOX7mhPz5rb/K2q8/ldzCPIkKj5RbegyUqUOelJiG3vXSZWRkqA8AvvaMfAl/f0bLNu5QeVUICEX1CgZ3+Kt0hSrj5cfsSe2oYllT26sKX0eVA/9shw4d1PNBJSr19mVqHOZ1nWEFX9WZw6ftsQuBhvUZEdfs3bu3ToVUlZ88xBP8SX//+99lwoQJqsWGtlt1gNEchnMN3kQgxlBhcgUqWGvWrDHPDHJycvy+olRbRHTtJ6WRDSSim0MY/l+zEFnxw7OScupjKTaXj+l1ZqOE/pwqzQ/9Rzod36XG5n2xTu3BDz/sU/sP95+W3360Xx79tkhWHjijxgDE1fTt53YmIERUn2kDZPXOT5SIArkFefJB+kdqHNcJqU0QBAqxhIBQZ5GEc71GIIRVwrjn6K+qY3S8AgSUXgsQ7b/tNiGF4E/O+iPnikqFlCvxdPjwYdWemzp1qkycONG8s2okJSXJ7t27ZenSpep7p6amqll5OtIAomnUqFFKYIFevXrJ6tWr1Tjux9fBsH7DDaa5OkCBaPj9/AnS/aPZ0vNUtvT4bIE8/MajarzhoEly2U1jpN2411SlCswc/LAs/GmJvJOzRcLaGLOYEnM/k/CD86TRwf9I64NG9tTnaY5V+A9sW632Xx/PU+JqevpRmf2xwyuyePuPctdbX8iBM4XmSN2CSlR+YYHkI4zUAs7P5p2Vp5f/3RwhpPZwFlB6bUBUqLT36tAxY/FleKqwAUQrwF/1nCV2gdQciCiIKb1cjTWzKqazMVsZlaulV72mNmvKOiF1hUshBeGixROEVFRUlAwdOlT69OmjZtnB44ToguoCwYTvA7M4vjeqUTCSa5AblZeXJ0eOGIF69957r6pWLVu2TN2/bds21QL05P+7vuCuMnOiuEgaDHxQQk3BBHB88z82Sve/rJKgKCNv6ZmHXpFHIvfL7Nb5knDdCDUWWXJAIn6cJZF7npTrgw2D59mjRgULFOz5Qu1hXP/z/07IR2ebyMQF76gxsHDTdhk4d5Usf3uxOWKA9qOujnnK2l2fSk5BjnlWloLiQvlwuyH8CKlrUKlCu08z9Jruavmax2691j6ORZeRX/Xc+5/ZxRXaf8yvql1QpcJSNcnvDFXrAQKIJ8z6w6YzqwCqVgwBJXVBOSEFkbNgwQIlaCBa5s+frypPgwYNUoKqpuD7vPzyy2oWHnxOPXv2NK+IqjQhybxTJ0MEILQTpnL8N+D+559/XgYMGKCuBSqeVmYgoLSI0vz5T8vl1gdeso+PvuEBGd6hgTzSqbPED3xIja3atVoiv31Ebb3ijX//oOKzUpJv/HG4pORntQdP7RXZEtZe/nK8rV04oYrVYdVpmfnKS/ax0tzTkr3qP3JmRfnlbHDNmQPHDimxWBl5NlH500nHfwsh3gLiCTMBrQst39TT8GPgmq5cQVwhv+ryx2aXEVOu4hhI1TES1B1ZVa2S2qjWH7KqsAGIKCymzHX/SF1QTki1bNlSpY/v27dPVaNeeeWVcj6lumLRokXSt29fJaCIa5wrM6URjplrNa3MtG12gbxw30wZ0nuUQ1z1u0+Z029JiJeefY3Zlq+te0NKdo9X4mpAb6M6eCr3lFwYfFAiinPkjvCD9rbisp+C5VRItCw4f6BDXK1PlyuyesiNWZdIzmdL1BgE1IFXHpajT/aT/K/XqzFQkLlNzt/1uUQEVx5xEBkSIq2acBYP8Q0QDursr9KeKpxr8YRZgZ0efl75q1ipqh0grGA8R1aVcwsQ6MwqVK5gXoe4IqQmlBNSaJs9+eSTai08VH9gKEeFCt6lrVu3KrM3/Ep1ga58EdfoykxpaGPJ7/CY5PR8S3K7zlX7gov+qMZruzIDcbV28n9l/gNzpHGU8WZ0U3fDo3Ze6THpfrHhb0v58l3J3DpRgr8eLVde5hB3Ay8MkWgpkFts2jg8vpcaW1NygRJX30a1l7MtjU/ur+w5Ld0jx0ivS16VX3ZvUmPgyyX/kj2rFsrroVFizCsUuTs4XDaEN1J7gPGbgkKV6KppC5GQ2qIyf5VuAaYfMH5X0f47YAop7a/CDEFSO6DtB3GFvCrdAty34jtVnUK7z9oCxBi9VaQ6VGg2R1UIokaLqhtvvFEiIyOV2Rt+JXiovFWpIgbtbKImPLKF5HWZI8WNk2z/emYAlG1f1ORqNR4e1aLOKzNdLrhYDr+UId8995VdXGEMNAkPkcbRxthHO9bKv5cNFfnqDrk+rkCNgacuayJXtoiQf/Q8T5p3NsTVwQKj4gSBdfTSIeoYswj/X9s/y3WdZkp0eAubIAtSoumixj1kS+NecndIhITbxtBwnBwUIb/OeUhFQmggqk4v+2u5FiKqX65aiITUNc7+qvt7d1FtQPirUMUCyzbtVP4qzAbc9N2PagzAX2U9J9UD7T6dpg7iBnVWlSqM6XG0AFGlSr09hWKKVJkKhZQViCoYzOFRwmw9zNpDpWrDhg3mHcRbNOn6ZykNChcJMaoxdmznpSFRct4lfzIHvMvVCVfIlqnrZPmExeoYaEEFTuYab0oHjx2SkTMHyM5VN0mHoN1qDEy+9HwZ06WZPJvUUi7t3FmNWdPYf45sLSvCGkrXptfIn+OekrHtH5H/s4nH64JD5b9hjWRVs74yu+Vt6l5dlUKLMDctVbUPUa0CuPbLM8mqhQgTvAb3ufJsEQf7vTRDM5BAyOeCP9xRxl91dad2ag9vlRZdyLSCv+q2GYvor6olIKKwoDKqVLoFePaw8QHLMKsbH/5wjHUAGa9AKqJKQsoKWn9aVI0fP94cJd7iSEgHm2hyEUUOgkIlO+TczWhEG1BXpgAE1Qv3TFdtwaFXGlWm3Ye+VX4qcPC4UU7H+e9euU/eWNhbeoQ7FrAennCeElZzesdK34S2cl5ouIwRxx/z30qBzAiNkuyG8fJ4mwdkdovB8trAV+z+rHejLlOC63DjC+2xD0VZe+3VqILMr9QeggqVKwius6vnqjFw8vVJ5TxbEGK4L/j0uc3V8hbH8orl/vWHpPWi76TH2xlq/9DnWWqc1A3aX4U1AnV7UAsmnOsWIKpTWB8QGVb0V9UOWAcQiyojYkFXqb5dtEOJKIgpa5VKe60IqVRIYQYfzOZIE8eGdp7OgAKoVOE4kNe+8yaoCOQVVR5En2/7+5adU2SenXsgoG7qcaN5JuoYSeQPXDfSdm2wGttlE1ebM4yMqi8yHKu//3Hx47J18xTpEZVtX2MwKW+fLP7+72q74ZRNCNnE1QWljjZd02ZGWxPVrCczguTjxpfLc9f8026eXx55qdzXc5ZsuOqPEpWUrMa08AJBkQ3VHmILAgr7s2sc4kq3Chu+PdkcgSDbplqKzhWt2oh9OJdALCW+mykr95+W3KISNYb9+z+cUuMUU3WHs78Kiy9rf5VuAW7ec0AJLGxoBQIco3KFRHbiGRBTOjUdNIg13jtQwQpvbHyIhbBaPmChPWmdBDYuhRTEEUTTnDlzlMFcg3YeQjQff/xxuz9qz5496j5S97RvGCaRIZWv7YbrraNDzTPfBCIKYkr7q1C5gqjCXhvZUbmCgR0+q+dXzZbgBudJsyfelZWxcbL09A654Mw3apHmiK7XykVPLFVL32BDexDAq6WXvenW3BBH4Im0I/JFUYxMlSvs4urf3xdI4mVvytu3L5boaw2PFa6V3vE3lcHVYMCDagyU5BqJ76Xh0WoPcjcsVaIJlSprWxHi6tgzyfYxJcpWz61y7MO55tEvs5Vwzy8pK95xfrqwRP6cZkRgEO/g7K968MYkNQaRhRwrgBYgvFTYY9NgDBupPvBW6awq3QI8seeYqkjBmK7jFHAOgUVvVeDhUki98847Kv5A50gh7wmb9kh17dpVhWQigRwhmjChE+8w6MLGEhbsWkxh/OZ2hjjwN164Z4a8M2GxvTXYtlkbdQyxdWeS4X06Exws0w9/J+uK8mVWfE9pPmOTNBkxXb48vEe+3LFMxTRY0eJq8qWOOA20CyGysNcsyTwpJ23C4NUshwB9ZfcxSfo+XgbFP1NmCZ6s++er9Pizg4x1DEFUHyMWAvfp6lbR4b1qD7SQyrOJq7OrX1WCCxuAgILgchX7YBVm54KPDp6RnGKjEuVMoU1MrfiRfzDqGt3GcwWqVqhSYTagrmBd07m9OsaGY6D9Vdh0OCjQ1SziHggoLaLAxff0ULP/0AbULUC0/rAtH7iQbb8Ao5yQQjUKJnLEHbgKv4RHCjEFWDfvrbfeUllTyH4i3uEfSa2kUVhwOTEVYTuPDg2Sf17Z2hzxbyCgELuAmYHW1mCTaEModr3IEeQ6au5YFUSKVqAGvitUtZzFFTxXO++ILyOucOwsrj48cEa1B7FEjja9Q1z1WfG9XHzocjkZ5Zj9k9bgYsn725fS5H5HpQnp8g0GPqREl459iDQFGapdoW0cC2hq03vBboeQOvn6o6pyZa1eQVhBcGkRBiDE6iL2AW1k3c6riLziUp9qI9cXjp/JkdFzlkv7h6YrDxT2Y+e+r8bdgYoV/FXYdBBo2/ObqD3QwgmCCt8bG/1V1QfiaeDrt6k2oEYLLavg0rMAsbAyqb+UE1Jo1QG9/l1FYMVyVK0golC5It6hWWSIbB0cL4Mvamxv80WFBsst7RvJ/4YkqOv1FYirLVPXK4E16ZaHzVHXQFzdOP3/lRFXAAILosnKb2zPbv/dncqIq2evaCm9WzVQwkvff+CsIRogrLLND5x6oefub2eUWXcQCz2v7zzM3ioEEFAtZn4l5z+VahdXGDPE1uX2yhYINtuOeg/ytn2ghBNaiZqcz5e6jH2AUd65hYivrargqi9tZH8DYumqJ+bI6vQ9kluA11OQ2qdu/UaNV0VMOQNPFZLXrf6qg7+ctFekrP4qeKtQuWKlqvrAoI6sKggsLaZ0VhUWVtboliCpP1RqNncHqlIUUd4HYunVvm3kpxEXy447EiT73s7yer8L6rWIsmKdGQjWTl6hZgbCd6WBgR0cPOYI2kPVqvNjl8tr6xaYIxWDStYHN7e3e66ANaKhYwNDZFgjGg6Y06W1uLr704OqiqVZkvGrTN9+1O7N0kBsnTd2bpn1EZvZxBYqXBBZGni18LWRiYZJHpTmObxVWiShRYgNlSvn2Ad4tlzFPrjyaNXXNrIv86eFqyS/oEjyi/TryvCn4fxMboE8tcSz7D54qLSIAjiHvwqb9ldttgkqq8dKQ39V1XGVVQVRZTWv75iz1cyqolG9vlBOSOl17tzNxEM1KjbWMduJnBtQOQh0ELuA9p82rwPkWcHUjvgFDczrYN56h5CCqELlqiriCpUpiCiruLJGNPRu3UCNNQl3/Fq1a2jkfaFFOHbjYZmeflSJKQ2EFgSXtZqlgefKKrpw3vzv61XbUAOhha3p2Fft/ixUtwC+tsqxD5aZiTr24ZmQbfY2cpuCo3LfLx+pfX1rI/sSa3dkSI6qRJWnsLhYPvjK+IBQG8BfhU37q7q2a6nagVZ/FQSU9lchIFSjq1mkcrRRHdUqzU9bD6n9mSzHhxdUqOCvYqXKPyknpBBpgLbde++9J+np6eZoWbBkDIRUt27dzBFCfAtUrVChgsjS/MsmqjAzcOpgR+XqrS3vKi/V8ytnmyPGjMHbZ92jZgxWBQgrq78Kggom9w9uaq/ahkDPIARNbOIEoJo1ffsvqoL1hGUGHMTVb1ftV+NVARUtazULx7qFqIUYRBgEF+51FfsQfJ4hiiC2dOxDyJcp9jbyc1mvyZPZb8p/M5+yt5EbHUqvl7EP5woYy3U7zzVBkldQJD/9WrXXRXWBiEJ2FfxVenZg42iH30cLLniqdH4Vk9arzzXP3KAqVGgDarDeH2b8rb7/PXPEgKZ1/8Bla08HbT733HMyadIkmTlzphJPiESACR3RB0OHDnXroyLEl0DVCjMDreb1O68YrCpZOtMKoAWIXKtHFjuyopDIjqoVRFZVQGtQV6gAqlnwYVUY0WAxxUNcbfzpbDlx1f7NPWVahcDaWnTGVQsRYkqPYw/BFTNpid3LhbFGd/3VHvug28hXtzLiHs5rcp69jewu9kGHlkKU6dgH5xai83kg084mZCLD4TmrKCuuVF1vdV7Zf9e6BO1ALLwMfxXagGDXgSP2ahSOgdVfRfN65aD1hwpVu+s7mCPGGLCOoUK19KrXmKjuB7gUUqhKIeoAYik6OlpVnyCe8vLyVPQBIhC4uDCpD6D9h5mBVn/VVeYSN1d3NPZg5qrZSmANmXWPOWIY11G1gsiqChBOriIanI3uFUY02ETTK98cN0cMcdX97Uw1k9AK2ojVwVrNAqhYQVxZYx/g4crvP9K2f9UcMWIfILwqin0IOmUsyGuNfYAnC0BAQWz5YuzDueS3l18sYSGuvY4YH9DDMdvTW6A65eyvQnaV9liBMv6qTTvVGEDFyuq3Iq65btYtaqkaawsQM/7At4sdzxOtPwor3yOo1IZ5HBCsX79e+vVz/IEg5UE+GNq7wcEudXZAgMoTsqy07woiChUpjGHmIJ7Roh0pMm/9G+q6dQFnCCyrX6s2QJsPHqsxXWLsogvtP1SuAMQYxBfEFUJHcYyYB+wBZhG2axRepsVYFX75+Ud5/KX7Zd3xQwJ5FhkkMqDZhfLM2Nfk/BaOP65WIIRAVmyieh0F5Z9Vggmiq8n9/1QzFiGkMAYg3FAFAxjDNYgzHSehPVyokOnKGe4pzNqjBJy1RelvOP+u6Vl7MJbDE2V7i7ZtpRIRGiKR4WGyZcY4iWnoCIP1FVCR6v/0a3LKtl/w8B1KeEFEjZz9trqGrCuIL30v0K3CysjMzJQOHToE5HsRhNS3i3eozCp4rQAyqhD4iXPdGgzkZ1RV9u7dKx071t2HkHJPHiZztPBWrFhhXwqGkEBDh4FqULFCW/Cd8YvNEQe472SOEU4JsYWZgTCwQ1DVFp5ENGgDe2URDZX5sCCi+kwbKJ8cz1IiCuTZPnZ99Mt+NY7rroDY0YIH6BaiN2Iffp3zYI1iH841EElfPDtWBiVdotp4F4SclSibgBrYs5PPiigAUaT9Vbp6hUqWFk0anGt/FWcCVg7EEqpUWkRZsaanH079UdaMel9+2uqYoUy8Szkh1bJlS7UUTEpKikyYMIGiihATGNWt5vW/Dv6zTLplvDKx6/FD5kLMqGhpcYXjK57up8RVbeIuokG3Easb0YCKFkAlqsAmnAqcPDs4zyktkafmPGCOVA2IJysQW65iH9A+hMjSVCf2ATMSUcGqauyDLwqs84IK5NnIL+Wr8z6QjxqvkW3npcrMJtvVuD8BcaX9VboaBf+UFler0h3/HtpfZU1eJ+XBMjWoRF334i3qHGb0H/7znRzZdrhM6CezqrxLyF9tmMeKZs2aycCBA1XQZpMmTeTnn3+WdevWyUcffSTbt2+XI0eOqCVhcJ8/8uOPP8qFF7puSRADCOmYmBgJCqpo9hDRz+iajldKfKs4c1Tk8osulaOnf1Em9usuMRL/X147V9Z9s0GOnvpF+a8gulCtunvO7+SLzC1yU3eH+b2mRIYEyw1tGkpiC0floluzSEEkw5CLmshv2htVtp9zi5TvCozqFCMdz4tQFaq7Pz0k247mqo7S8s0vSJ5NNBW1SJbC1kMkOC9LggoNIzEyz3/MOSmPVBKM6unrCK26oDDHbLHQlhdKg+tH2mMdQHjnqyUospE0HPig7fpFaiwoLFxyv1iuRFej3z6svkehTVjlbTV8WSEtLpSwC7spQXXytYelcP/XInlnJKKr0WJE7MPpd56VoNBwdR+A0Mqzia7gxs3KVMlqC+dnVHL2Vzn27GApys4UKco3GnslRVJ0dL/tZ3tXoq4YJEHh7ltivkKLJg2ViV6D88Y2gdXyvIaq3RcZFqpagFOWrpHM7GPS4rxG9ugFjH+47Vvp0zWB70UmIRGhEtO5udrr80P/2y/FJ4uk451dpHmPVkpEYfYfhFV4o3A1FuhgKbu61CzlhJSmQYMG0rlzZyWosLVq1UpOnz4tX375pXz88ceyefNmZT7HPf4EhZR7KKTcU9EzirD98YYwgqDSxLfsYBNMabaxnjKi9zB1z0s2caWjF6ziCuNfZKSp6ldtAmEFQaWBXwrtwiEXNZYbLjAWdW4SESL/+tqoTl0V/at8sfttKQ1pIAXxf5aSqA5SGn6ehB438uUgrnLbjZHY0GLp0drRbrRS168jiJ3gxo7wQxxjWZ7oq4fYq18QYRBcYRd2N8Ztzx5bzqdGblhkr2T1fdD+O7XU9lZYVCAlZ45LlO1ecMomriDO8rZ+oMQcQLULS/gUH/1RCTqNroJVR3A5P6NTy/4qRUe+Fyl0mvZeUmzbSqTk1yMS0b2/Oeif9Iq7QBnWIaIAKlfrdn0v+YVFcl+/yyWh9fmqcnXbjEXy2Z6DNoUcZG8Xopp19OSZKvmrAoXgSyKkz6PXS4tLjQiT4oJiNeMPRDdvIO36GzMB4bnat2KPTVi1tAuxQKGuhVSV3GmYxYd197DGHhYx7tWrl2RnZ8u2bcYbR3VAm3DcuHEyfPhwmTJlSoVZVc7gPnwNYhgI8ScgkrCsDdLXte/qpu43qD3Ou5pJ7QgMfX7li2qzZlghiqGqmVbVobKIhievvVRskkOCis9KUL4x+y445we1B4Wxw6Qk+iJ5bp/jDRlBo9WNaKgLXLUQEWKqx7GvKPYBVS+0Ep2xiqOKYh/g2UILUY9BnLmKfcCx9dxKwe4Ntv8p6yuyU1wo+Ts/MU/qD7oFCH+VTllH1cqVvwri6vLHZtNfVQlIUscyNciq6jEmUY3BUwVxhRl/WmSR2qNKQgr+KAgg5EkhRwoCqnXr1kpQVQcY2eG9Qv7UrFmzpGnTpjJv3jzzauW8+66RSk1IfQBm9sMvZZSZ7aeXvsF542hjDAIK4aCjXhtbRkyhelWbZnYNxJT2Vg08v71gjl/kt49I1PbhEnbYsaRF+M//lbCS3LILPe8/XS6i4d+2Y4grVxEN3hZYzriKfYBnyzn2AQKrOrEPWkhVFPsAg7yr2Iezq16R0sI81c5zBcZLC/Ol5FT996tqcfXSPf3lgRsMMQC0h8rqr0Jb8LYZC+mvstAqsY2KUmjYxngfCW8coTbQMNb4UKBbgG90fYlG9RpSoZDCtFyIJ5jNYTqHAMrNzVX5UciRQs5UdbOk0tLSpEuXLjJs2DBV5UpOTpYTJ064XY4GGVYogWOaMCH1FbTztkxdp5a30a09LajASVM4oR2Y9Jfr1OzAuqhUaRBxEB0UrMQUKlOacNuf9KbZKfJtcrMyswhxDBFmFVdfnzBaVFbhhIoVhBUElvMsQldL5ZxrILCsEQuYeYilenQ8A0DFCwZ5bHpmYqQpyCC6Qts4pl5roVWw2yGk0Co8u9b2oTI42GHt1wfmHjv4wAr377Z/j/oMZv1d1r6lvY2HPXxVyK56bJDhP0SVCkvXYOHl51Z8rsYA/FXWJW0CHVSphqweoWYB9hibpMawRI0WUFhcWYMxnWFFqkY5IQUBhTTzp59+WokngGBOVJCefPJJJZ4SEhLUeHXJyspSCx1r8H1QlUIORkXoahjEFyH1HbQBrYsyQ1ChJYht6JWGbwcBoLoaddCcJYhzVK5i/5CgWoG1AXKiNkxZLTeff6FEmB4e/Em7PqaNbJyyplyOFDxXaAtaxdXvL26qhJWriAagxZU1osEaKApxhZmE/kB1Yh9QzYq2tBB16zAUgi3EzPrSpSm9t40HN2urTPH1LfahqmD2H9YHxHI2AOIK5nTs77rGCAcFyK9CpQqzATUQXYFetbIuqIxjtP+wR1YVwEy/deNXyqanPikzC5BUTjkhhVl5MD86iydUkGoKfFUREY7ZOAD/X5Xx4Ycfqnu4HA0JVLCkjXVZGxwj1wqp7Hppm12HvrULqNU7P1Z78MfFj6u2IKpYngCx9O+/rpUfZu+VzX9cJt+/lCH/+du6CsM4nUGFCgs6WyMa9MLP1ogGKyfzy4orBJE6RzRg7Fy3BqsKxJMViC1Us6xVLh370OShlyUoItohpjSh4RIUFinhHRyTGLRIssY+6HYhrunYB2sL0ZdjHzzlvcdHlPFXQTBpf5WuZuF85Oy3VGgoK1UO0P5DlUoLrIZtGpVb3w/nEFZYD9CaX0UceDXZHGbxsWPHlhFFMJyjZTdypDEjxgqqY88++6w88cQTqnpV2b1VBcnmsbH+m4TsLfCy4Ky9yvG1ZzTj4xck++QR+UPfByW+eQfJPPq9jF5qxBP0jrtKnvnNU+p41TdrZdMPW+QPfR6QVo1bqjFfYNnhEmkYIvLblsbnu2zb+/mgbUb16i/xwWr8fydL5fe7DAH1QLtgeaCtcS++9qtTpeq8YwP/ft0G5Z2WqE0LJfyHNDWLUEIjpKB9T8ntM0pKIxtJxM5VUhR7sRSfb4jZkF9+lEbvPCGlEQ3k1PBZah/2wzZpsNqoUOVePULyu99svw8Udr5Wzvb7vTrGfbhf3weCTx9VY4UX9ZKSRjX/EO1tTucVSObPv0p8i/OkUWS4Or/5BWNB4D4d28izQ4y/QfM37pb0/UfkzsROapyInP3htOT/nCuNuzaV0AZhcnzLz7JnhrEsTduhcXKBbQO4J6RBqLqnNsD3i2gRZZ7VPnWZbO51IQVflLVNV5k4gj8L1agxY8ao89oSUlwipnKcl60g5fGHZ4R2H9YGPHgsS4WGopKFMfirsMc5WoYA1SxUrVDlqi1q4xnpNp+uXKEKhfUFsdeVLesY2otv9m+r7kUVC1lZYy6JKePb8iXcPaOS44cl2FK5qg6oUJXmnZHovoY5Hq0+vSwP2ouojFnHYL7HTEaAViGqXPg6+MEADPFnVsxUMxvx9RqMo7pmrbDVFrW5/AnW/Nu8Z788eGOSPXUdCesA1aw3Hr5THaP9typ9r7pPV7R8mbpeIkab0uGpQhAojOxoAWIM17BOoHWx5eqQfyJPvnxmvRz6/Ecpyi2S0KhQ2/eKk6TH+0hE09p79l5fIqYuwUy//PyyZUOYyF0BA/ru3bvVmwyOseXk5Kj73ZnTCSHG7D/ELmBmoLU12CTaaDV1aePwYo2aO1atJ4hWoAZiy9OWYG0BAWVt/1kjGnS7EGNYQ9A64xBg9iCEGGIZNDqiQae3a3y1TeipiAIQSp7GPuiv8VbsgzeASR3+KogoAJEEAYX91Z2MEFCAiIXn3v+M/ioTGNXR/hv2xQNKRAG0+HQL0LqHr6qqiypDRL2XvFgOrPtBiSjUkbH/cU2mGsd1f8GrQgpGcxjONfg0hll78fHx5ogDbUBHbtScOXPUprOrcEwIqT4QV1h0GQJrUiWp5ADiCsvaWMUVgMA61zh7qyCssEiz1eiOKhTElauIBvistHhC5aqiiAZfnEVYU6oS+wAPV1ViH6xeK32MSlZ1Yh+swszboAoFf5VewgZYjewaiCr4q6ziKpBBBerSsUlq09UozPTbbhNSyKmqyqw/VKKK84ukxPw91K0xnBeeLZC0GRvMEd/Hq0IqKSlJVZmWLl2qZuOlpqaqWXvaM4WYA+RUQWChfbdkyZIyG6pTCAbFMSHEc6wzA0Ha39apRZlhYtfAwA7QGtSgaoXYhedXzjZHfAc9K1ADUeW80LOOaMCahPr+yiIaXC30jC0QqErsAypbaPNh0zMT9VI+EF1ViX1A5co64xDCCoILew2EGASYNwQX1gbEhqgFzebv9qv9rgOOSiZM6xBXgRoOihgFbKhYgVaJxnqjONf5VWgBLr3qNUm9fZm9cqXR7TxXlBSWyIGPK57N72t4VUhBMGE2IFpzyKZCNWr06NHmVSPGHcvOYOYgIcR7oFKFqAUdDgqQZwXP1Av3TDdHjPR18NaW5WoPXlu3QC3KjL2voyMarLMItYeqqhEN2LR3C2DcOqsw0ICY0q1CoFuIVYl90ELN2kLM2/aBEk5oJQblG6I15/Ol9tgH3R6EqKqL2AdUorAkjbUiteDhO1RrcNowR4t87to01e57aukac8TwVyHPCkvcBBqY+YesKqSq6xbgwU+/VwIKgurAJ46K7963dtnbea5Qbb68Ysn52T8+tFS41l5dgbX5fvOb38iQIUOkf//+yjelwXp+O3bskFtvvVWt9ecM7r/0Usf0X0/gWnvuqes10uoDgfCMWjRurhZebmIJBcW6gViUedLND9sXa56c8hfJPPK9/O/HHfKHAQ+pMZjXn1w+VZo1ipEEy6LOvkjLqFD5TbtGZRZ6xsLPJ22firEWoV7oOeNkgbz7g9HWxDjWK0R16va1B+STrLM2ERZs/x4QVq/v/VVVv5wrZVbq8+vIuvA0wJqGkT0HlhFNWNMwLO5yiUpMtt8f3KiZFOz5wnbtdjndvJPqWhR+85laZBr3RNruxffAYtJYBxHjobGd1LqKEFDHZtyu1lLUYwAtxjybMAuN7Vjm/7+qYOFl+KmsCzCfys2X3QeOyH3XXW5faPnmZ15XFarNew6ocQB/VWb2L2rB5roAryE8I194DSE9Pep8x+8RxNWpH39VY5eOS1Jr/KHtt/npdeYdFRMaGSKX/9GxlmVN8Im19rzFokWL1ALJtZFZRQipfWBaRwvQal6/84rBqpKlM63AzJWzJf3QTvnjm8Z0e4AgUVStzrWBvaroWYEaVLMw9sFN7e1rFFoXgtaCCeIKZnb4sKzL5UBc3f3pwYBpDVYVVK20uR2gaoUWIozyGlSz4NlqOvZVexXL2kLUx0VZe8tUrAAM8qeX/VWJqZw1c9UYQIXr54mXl2khOpvpKwPp6vBX6ZR1oKtYbc9vovZA+6vum/2WORI4oM2HWX2oUukWoLXFFxTqWoIEhwXLBddeZJ75Pj4lpLAocnWXnSGEnFvQ/sPMQKu/6ipziZurEozlKMDT7/5DeawQyaCBcR3L3EBk+QMQVs4LPaNViE2b2iGuMIsQtGtgLOqM9iDElWoDfusQV0uziuWipRnlWoO6nUgcwLNlNcrjGC1EiC4txCDCILoaDHxI3Q8gvPT1kNaGZ0t7rgBaiRrt17Imx8MQj3PnFiLGnQUX1geEvwqzAzXaV+XKX4VIhkADaerXPHO99H/xNxLeMFyJJqDracG236nQyFC58in/iSnyKSFFCKkfYEbgf4a/JP8Z/bI5YvuUHmP4JnT8AoBpHcnrVzxtZFtpfGFmYFVB+846ixDiaucdCeUiGnq3aqD21nuXHi5RoslauUJEA3KxkN5uheKqariKfYDY8jT2Id8mtKoT+9B9+wJpHOSYoLDowVtk5FWd5BmLeT1l007lp8IyNhrtrwqEmIX4Wy+Wtv0vkttS75ELByaoNh5m7akcqesuksErR9RqjlRdQyFFCKkTkK5uBRUrtAXfGb/YHHGA1uDJHEM8of2HmYGIXvAnQeWMVTCBD25uXy6iAWntEFeuIhr0HqBi5SqiAW3C+hjRUBdUNfYBmzX2IaLXb5XAssY+lJjtQ6CFVKFNbCH2AS1Ea+xDy5RH5NHvZkj/sGw1BsZdHCl/bJQpDyS2M0fQAkxV+VXIsdLU9/wqiKU+02+Uu7eNUUb1u7f+Xq59/ia/ElGAQooQ4jUwMxALM2sgribdMl7mPzjHPn7IXIgZXiotrnCMmYEQV/4MRJOVB9uFyA/DEsqIK/iwUL2yziKsKKJBL/RsFVMQYNiIZ1gFE3AV+wARpn1bemZimE2oQXBhcxf70Pfr/8jvQnfJQ6WOhYGHh2XI5vM+lAcbHzBHRGa/u1qeeeZvMnTKTHOk/qIjE/wRCilCyDkFbUAILA3O4buCyNLi6q0t76o8KwgqvTgzqlW3z7qnXGCovwMPFqpX1iqVq4gGzCrUaHEFAQVDOzZrRANElzXhndQctAm1DwtAQEFweRr7MDjqkGoJjgjaaTfMx+xaKS823CKzz75pH1u0YqWkPTZQvvg/Y+k0Da47e7b8CSyH5K9QSBFCfAq0+SCirOv+je53nwoRxWzBrmaY6Gvr3lCiCtlWVnEF35UvBobWBLQJ5/SOLTOLEFWsyT2bq3HnNiI4mW+IKz2LcHr60TKmdhxDcLE1WLtAPFmB4EI1y1rlgl8LG0SWBl4tJbyuvdv+PX7T1fAVFoU3sLcTf/pylVxY/IvE/ZRmN8wf2vedZD19s/JsWZPj4evCjEVfFVglZ3+Vkwsny9HHr5FfbP/t2J96c4oa9ycopAghPg8qU1jWBoss69DQm7rfoPY41+IKour5lS+qDbMBNRBa1vP6AsSUtXKFiAYIq6pGNKCCZa1UqXbhqv2MaPAC8GxZRReqVs6xD+3v+YtqH7Z4+DW7EEu6/rfyU2kDORoda499WLb8XQkvylXHWjT9uu9rNdOwqrEPMMp7U3BBLB17drDk7/pMSgvz1Kw97PN2fKzG/UlMUUgRQvwSVKgOv5Shohe0uNJL3+C8sRkkCgGFFiBmB1rFFKpX/mxmrwgIq+pENHRrauT7oD0IcbXxp7NlIhogrmB0t1azgG4nkrrFOfbh2hsGSvcXPpcuz6TahdjB87vJjJxu8k54L3u78aUvvpfDJUY4ZlViH2CUdxX7gIqWFVexD55wevl0KS3Kt6m4AnWu19rDeWl+jpx5v2zchC9DIUUIqTfAa7Vl6jq1vI32XWlBBU6awgleq6S/XKdmB9bHSpUzaP1Z238QV64iGlDRwr53S0c6NaIZIJpcRTSgemXF6ssi3mPWqGQZ/MhfJfnRGXZx9VXWSRlwcoCMLBgohYlGWO5H3x6WVyKvk6zGF5WJfXDl2SrY/ZmqVKGipYVTRbEPEGIQXNrHBXBsPXemYPcG2/9U8HopLpT8nZ+YJ74PhRQhpF6BNqB1UWYIKrQEsQ29cogaQwCorkYdNGcJ4hyzAmP/kGD3XNV3nL1Vb/ZvqyIarF4sGN0hrrDX6GgGVws9M6Lh3ID1AdtalrBBKOhDA66QEXcNtSeuz127RV7ObiID9/eQvLgr1RjWBfx3VH/Zd+3EMrEP4V2uVQKrKrEPaBM6xz6gmoXFp62eLVSzILoKv0+3t/NcYbT58qXklH9MkKCQIoTUe2BSty5rg2NtaNdL2+w69K19+ZrVOz9We4BZgWgL6mv1HYgmKxBV++/uVEZcuYpo0As9Q1xp4aQ8V4xoOCdAVE0bNkAttqx5dBDWzoxUY1pcIQQU+VWD3v9ezkQ6xPLe8AskdOLbVYp9gNBCJcxd7MPJ1x9Voivns8Vq3UTVzrP39BxgCNeDG/vHcnEUUoSQgERHLGh/FSpXEFXYY/1AgMoVDOxo/z2/yjETMOXL5Upc+cvSNrWNq4iG4fFNlNiCuNL+K2tEw4HThheGEQ3nDlStsD6gdQkbXcWyVrP0Eja9HputQkGtuIp9aPZUarVjHyK6X28bsL1OXJWlbOPhXRxrGPo6FFKEEGLywj0zVPq6bg02iW6shBXE1p1Jt6kxtACfXv4PJa6wfqAG7UCksgcqaBNCRFkrV5hViDHMJNQG+Cbhjj877iIasBbhPesOsTVYh2DRZawP+L5t01WqQ8dOqj04ZQqpTd/9qMQVFmF2hfZmadzFPjS8dZJIeJQUaxliVqYKg0JEQiOk0ZDJxoAfQCFFCCEVAAEFYYWZgbo1iDG9XmCXNg4v1qi5Y9WizKhUaSC6AsVvVREQVtbKFQQVvFhViWh4/vtiWXngTJlKFY4Z0VC7OPur0AKEvwqtQT3+UfpetVwNFlrWy9agWoXWYHUWX9axD7+WhstvT98gqwsvkPxS2795kEiebb+usLX89uwAdd1foJAihJBqsmXqepVrhRR2Z5pYPplDXLlKX6+PsQvVAbMDqxLR0NpIZigT0YCqFSMa6hZUppz9VTf17KjGb76sk11czV2bpvxVqFLBtK6B0LKeu+JPC1fJz/kh8qczl8nlvybLTacGSC/bfuLpXpKVEyRPLXEs6OzrUEgRQogHWGcGgrS/rVPVK/iuNDCwAyxvo0HVCrEL9S19vaa4imhITQpXaxHqdiHGILSwr2pEg/MsQkY0eIb2V73x8J32FmDjKEPg4ryxOab9VdgqE1Nrd2RIToGjZXuo2PHvWVhcLB985T+TOyikCCGkFkDLT/upNMizgqn9hXummyNG+jp4a8tytQfwVmFR5kD2WFWEbvVp4LdyjmiAFwv3uYpogL/KOaIB1SsrjGjwDLT/4K/C5uyvQttPG9VRoYKwum3GQnV+wCawcpWIqjgAIa+gSH761T9mdlJIEUJIHYGqlXXxZfAvm6iC4Jo62FG50osyW6tUiFtAWzAQAkOri7O4QpXKOaJhTp9Y1UJ0FdGgBRZYkvFrhRENuEYqB5Wqru1amWeiWoLaX6XHUzbtVGJq03f7lWm93fnnSUR4qO2Ki+wDRalE2q63Oq+sgd1X8bqQWrFihYwbN06GDx8uU6ZMkfT0dPOKa1555RUZNWqUun/SpEmyZo3/9E0JIcQZmNbRArTmWmFRZlSydKYVQAsQRvVHFjtmLyFuAWIrUDKtagLahDC1W43uky89X4kta0TDgbMO8aQjGiCgEM8wduPhMnlXqGhhdiGpHC2mNA/emKRE1TWd29vFVedYa0ZUWUEVFhIiA3o4Mql8Ha8KqY0bN0pKSor07t1bZs2aJU2bNpV58+aZV8uzYMEC2bp1q9x1113q/l69eqmxjIwM8w5CCPF/kLiOmYGoXh3LK5b71x+STTlx6tqpqEvkoc+z1DjiFrAgMxLYNTCuo2oVqJlW1QGVqapENGiRBXRcg45ogJiymtpxDNHF1mDFwJz+6dQH5L3HR9hbgNrIbjT38L/GUURoiERHhMn/jbhZnfsDXhVSaWlp0qVLFxk2bJg0b95ckpOT5cSJE0pguQIiqm/fvjJgwAB1P74O4mvbtm3mHYQQUn+AWEp8N1NW7j8tua2GSt7F/5Kci56Q9384pcabNzYyedo2a6P2ABUqRC5c8fR1ZWYDBvrMwOoAYeUc0aBnEbqLaIC4QtWKEQ3V43fXJ8onU0fL9d3jVRsPVamo8DAZ2LOTbJkxTmIaOsznvo5XhVRWVpa0aeN4A0hISFDCKDMz0xwpy8svvywjR440zwxyc3MlOtp/HjAhhFSVR7/MlryiUskvMVodJdEXqT3OTxeWyK+t71dtwXfGL1bjVtAaPJljiCeY1jEzEAZ2CirPcDWLUC/0bI1o0NUrdxENEFeMaChLt3atZckfh8mBV5+Qbc89LPtfnSzzxg7xKxEFvCqksrOzJSLCDAYxiYlxzLKojKNHjyq/FITX1VdfbY4SQkj94aODZySn2LGsipVCm5ha8eMpZVS3mtfRDpx0y3iZ/+Ac+/ghcyFmGNi1uIKvCsLK2hYk1QOiyZW4shrdMeYqogG+K4gm54gGiCtrRAPuCcSIBhjQ/RWvCinQtm1b86jqwBc1YcIE1eobOHCgavMRQkh9Yv+ZQsktci2iNHnFpZKdY8w8s4JgUAgsDc71WoJaXOmZgRBUOm0d1SpXgaGkeuhWn6aiiAaIMGtEw8bsHLWHv0pXpiC4GNHgXwSV2jCP6xzMvIMvCl4nDWbuxcXFlWvhuQJeqvnz5yvzOXxTnrB+/XqJjXWs/UNcg5dFUFBFGR8E8BmR2qbPF0WSX4mWirB99N1wFfwk1eenU0fkqQ+fkVaNW8rkGx6RhhENZcGWJbbtTXX9X0Omy6VtusmZ/DPyznZjPbWRVwxXe1I37D1bKq8dLJFrmwbJb1sadY2ZP5TIssMl0ig0SF7pGiwdGwTJB0dK5G+ZxgtjRa9Qe+L7Z8dK5XRRqf1r/ZnD+SKxZRtWtUrHjnU3C9CrQgrxBd26dSsjmhCFkJiYWCUhBdDeO3z4sEybNs0cqR4QUv369TPPiCswKxLiNjjY/3856wo+I/fwGbnH+Rlhdt67P5xSbTxnwoJtf2zbN5LX+znaejUF1Sm0+uCvQjI79vBXIXoBzH9gjj2mAVWsUzmnysQ21DXwz3bo0CGgXkPKY7X9F2nXINRe0UILEL4r8IG5RiEqV4hnAC9f01ru7thUHePekwUlaiair4PJFfAFoqWNamxUaLD8P9tr/B9JraRZZNkqX03Yu3dvnQopr746YTSH4VyDNxHM2ouPjzdHHOAaKljYW4HZnBBC6iP4A9IoLFiJJisRtvPo0CD555WtzZHaAYGhh1/KUNELOpFdtwhx3jjaGEO8AlqAmB1oDQhFa5Bm9toFbcLqRjToY7T/ILgqimjwJe9VmRmqZksbez1DFdf9Ba8KqaSkJNm9e7csXbpUmcdTU1OVeRy5UgBhmwjfhHjCjL7WrVvLv//9bxXaifsR5rlr1y6VJ0UIIfUNfArfOjheBl/UWCJDDDGFT+m32D6l/29IQq1+Sq8IiKstU9ep5W3sosoUVOCkKZxQzUr6y3VqdiDT1+ueiiIallwWJte0MkztriIa4KuqKKIBXqxzFdHgPENVo2eo/jntJ3PE9/GqkIJgGjp0qPI6wTyOatTo0aPNqzaFeuyY5OXlyZEjRnLs5MmTVRVr9uzZ6n4IrRtvvFEGDRqkrhNCSH0DYunVvm3kpxEXy447EiT73s6qnecNEaWBQd26KDMEFdp82BAeChAAqqtRB81ZgjhHqzD2Dwl2QzupO2Beh4dKA/H06/2XlIlo0DMNrbMIVfsw/aiqUOn2INCzCL0R0VCVGar+glc9Uu5A1Wn69OlKQNXVzDx6pNzj7Nsg5eEzcg+fkXvcPaMDNrHSzhJ14GvAT4WoBcwSRCsQ4gktQKBnDQLMCsSMQZxbBZo7AtEjVV2q+owghqyzC/XyN3rZHIAKFcQVxBdiHYD2Z0GMQaABfC9UunCf9XtWFcxQ7fG2+xVKvh3aUVpHeza5wkq98ki5Y9GiRSrJnPEGhJBA5fiZE/L7+RMk7o/d5Mqnr5O4id3k4TceVeO+hhZLVn8V1gvE/s4rjHUDUblK+fJdJbKeX+VYlDnly+XKc8WlbbyDs+CB38p5oWdEM1QnoqH725llqlVVjWhobxNgunVdEbheGyLKG/iUkJo4cSLbdoSQgAViqc+0AbJ65yeSW2gYg3ML8uSD9I/UuC+KKWdeuGeGSl/Xlacm0Y2VsILYujPpNjWGFuDTy/+hvFVYP1ADsYUqFzk3oB2IqpNVXD17RUv5TftGyuyuxdiBs44sMy2cIK5++9F+m7jKKCOm0CbENWcGXdi43KQKDcZvbtfIPPN9WC8lhBAf4c9v/VXyCwskvyjfHDHA+dm8s/ZYAn8CAgrCCjMDdXQCxppEG38ou7RxtPpGzR2rfkZUqjQQXfRbnTtQoXqzf9syRnfdDoS4wnVgrUwdOF2g9hBQMLqjjWgVU2gXRoeGeHWGal1CIUUIIT7C2l2fSk6B0UpxpqC4UD7cvto883+2TF0vayf/V/mrnGkS5ahG/O61cS7T1xm7cO5AZQoiyiqutLDSOVegsoiG1/ccl7FdYs7pDNXagkKKEEJ8ABjL0carjLzCPPnp5M/mmf/jbDxHKCiqV9qkDnZnfaf2MKtrULVC7MLzKx2eK3LugZjSIgroiAZsetwa0XDxeZHnfIZqbUAhRQghPgBm50WGOf7IuCIyPFJaNWlhntU/0PLTfirN2w8vVKb2F+6Zbo7AqP6u2r+1ZbnaA3irsCgzPVa+BVp/uv0HUM3SEQ3wXmlgQPdXKKQIIcRH+M2lAyU8xPUfFIwP6NrfPAscULWyLr4M/mUTVfBbTR3sqFzpRZmtVSodx8DAUN/DKq78HQopQgjxESAYGkQ2KCemIkIjJCo8Uv5x51/NkcAGIsq6DiAY3e8+VclC/IJmpk1UQUw9sniyOWLEMUBsIZmdkNqAQooQQnyEmIZNZcOUNZJ82S2qjQeiwiJlYPfrZdPTn6jrxDVIXMfMQKu/6qoEY4mbqzsae4C4hedXvqgS2DUwrqNqxUwr4gkUUoQQ4kNALM2+75/y/cyv5cup62TfC1/Lv0fNoojyAMwIxLqBqF5p2sa0MfbN2thn/qFChciFK56+rsxsQM4MJFWBQooQQnwUX14exl+weqsAKlaYGfjO+MVlTO0A5ydzDPEE0zpmBmKjoCKVQSFFCCEkoMDMQKvAgrjCNv/BOfZxrCEIIKJ09AJ8VRBW1rYgIRRShBBCAh5ELEBgadAW1GsJ6rwrzAyEsIKg0mnrOHcVGEoCBwopQgghxAm0+SCiIKY0mBkIUYXZgl1NcfXaujeUqNILMwOIK/iuGBgaGFBIEUIIIVUAbT8sawPzuvZX3dT9BrWHeV2LK4gqzAzEZs2wgtBiplX9g0KKEEII8RBUqA6/lKHWDtTiSrcIcd442hiDgEILELMDrWIKkQuMXfBvKKQIIYSQWgTiCrELyycsdogqU1CBk+YsQHitbpw+SMUusFLlv1BIEUIIIbUM2oDapA4gqFTsgm1DeChAJUpHKxy0zBLErMDYPyTYPVfEt6GQIoQQQrwAxJR1ZqBaL9A0tOulbXYd+ta+fM3qnR+rPcCsQAgsiivfg0KKEEIIOUfoiAWrv0pHMdx5hSGuULmCgR0Ca976N9QYSPlyuTz5wTR6rM4xXhdSK1askHHjxsnw4cNlypQpkp6ebl4pz9GjR2XmzJkyatQodT++bs2aNeZVQgghpP4BYYUWoG4NNolurIQVxNadSbepMbQAn17+D9mQuVn++t6zagygYoVUduI9vCqkNm7cKCkpKdK7d2+ZNWuWNG3aVObNm2deLc+iRYtk3759ctddd8nYsWPV1y1YsEAyMjLMOwghhJD6DQQUhBUWZUY7UI81iW6kjru0cXixRs0daxNYf1ezAzUQXWwJ1h1eFVJpaWnSpUsXGTZsmDRv3lySk5PlxIkTSmC5YteuXTJgwAC1QUTh6yC+Nm3aZN5BCCGEBCaIXJh/98sy8eY/mCMO9OLMAOLKVfq6NrqTmuFVIZWVlSVt2jj+cRMSEpQwyszMNEfKMn/+fBk0aJB5ZhAZGWkeEUIIIYFNfPMO5pFB2t/WqeoVlrjRwMAO9JqBAFUrrBvoK+nrB/zY5+VVIZWdnS0RERHmmUFMTIx55B609PA94uPjzRFCCCGEaNDy034qDfKsYGB/4Z7p5oiRvg7e2rJc7QG8VVc83c9rHqvjZ07I7+dPkLg/dpMrn75O4iZ2k4ffeFSN+xNeN5u3bdvWPKo+CxculLi4ONXmI4QQQoh7YFqHgR3ZVpp/2USVil8Y/KQ5YizKjKqVtUoFbxXagrUdGAqx1GfaAFm98xPJLcxTY7kFefJB+kdq3J/EVFCpDfO4zsHMO/ii4HXSYOYexNHIkY6FIV2B2XtoDU6ePFn5qzxl/fr1Ehsba56RisDLIigoyDwjruAzIoTUJ1Z9s1Ze3jBPbrr4evlD3wfV2CPLJ8v2rK+lYURD+eChFDX206kj8tG3n8ilF3STS9t0U2PVZeqq6fLFD1slr8gQUVbCgkOlX0IfeXLgo+ZIzenYsaN5VPt4VUhNmjRJunXrVkY0IdIgMTGxUiFVWyIKQEj169fPPCOuQAsV4jY42OsFS7+Bz8g9fEbu4TOqHPhnO3TowOdTCXX9jFCdwuLLqF5hsWZgXS8Q6wwCNTNw7xZV/bJWvioCbTxUoCoiMixSvn/ha/OsZuzdu7dOhZRXX50wmkMQafAmgll7lXmealNEEUIIIaTqwLSO2AUtooCeEdi2WRv7zD8ILggsrBtonQ3oamYgjOWViSiQV5gnP5382TzzbbwqpJKSkmT37t2ydOlSFbaZmpqqZu1pzxPCNhG+CYEFIKIQgTBw4EDZs2ePiknAVlmIJyGEEEJqD6txHejA0HfGLy53DecncwzxBNM6ZgZiswqqds0uUBWnyogMj5RWTVqYZ76NV4UUBNPQoUOVGJowYYKqRo0ePdq8KnLs2DHJy8uTI0eOqHu2bdumzhHCOWfOHPv27rvGbANCCCGEeB/MDLS28CCuMCtw/oNz7OOHLAsx6+gFLHMDYRURFiHhIWFqzBmMD+ja3zzzfbzqkXIHqlTTp0+v0zYePVLuoW/DPXxG7uEzcg+fUeXQI+UeX35GEFBo+V0Q00bFLwDkV+l4hYaRDaWgMF8KigvVOYgIjZDIsHDZ9PQnEtOwqTlaM+qVR8odWBKmb9++9EIRQgghfg7afKhUaREFRve7TxnSYV5fO3mFJF92i2rjgaiwSBnY/fpaFVHewKcqUt6AFSn38FOye/iM3MNn5B4+o8phRco99eUZwYAO71RdEFAVKUIIIYQEHnUlorwBhRQhhBBCiIdQSBFCCCGEeAiFFCGEEEKIh1BIEUIIIYR4CIUUIYQQQoiHUEgRQgghhHgIhRQhhBBCiIdQSBFCCCGEeAiFFCGEEEKIh1BIEUIIIYR4CIUUIYQQQoiHUEgRQgghhHgIhRQhhBBCiIdQSBFCCCGEeAiFFCGEEEKIh1BIEUIIIYR4CIUUIYQQQoiHeF1IrVixQsaNGyfDhw+XKVOmSHp6unmlYnDPqFGjZMGCBeYIIYQQQsi5x6tCauPGjZKSkiK9e/eWWbNmSdOmTWXevHnmVdfga2bPni15eXnmCCGEEEKIb+BVIZWWliZdunSRYcOGSfPmzSU5OVlOnDihxJIrUIGaP3++3HXXXeYIIYQQQojv4FUhlZWVJW3atDHPRBISElRVKjMz0xwpyzXXXKOE1IABA8wRQgghhBDfwatCKjs7WyIiIswzg5iYGPOoPBBahBBCCCG+itfN5m3btjWPCCGEEEL8m6BSG+ZxnYOZevBFwSOlwcy9uLg4GTlypDniGnwtWnzu7nPH+vXrJTY21jwjFYGXRVBQkHlGXMFnRAgh/kHHjh3No9rHq0Jq0qRJ0q1btzJiCFEIiYmJXhVS/fr1M8+IKzIyMpS4DQ72esHSb+Azcg+fkXv4jCoH/tkOHTrw+VQCn5F79u7dW6dCyqtPHkZzGM41eBPBrL34+HhzhBBCCCHEf/CqkEpKSpLdu3fL0qVL5ejRo5Kamqpm7SFXCqxZs0YFb0JgEUIIIYT4Ol4VUhBMQ4cOVblREyZMUNWo0aNHm1dFjh07poI3jxw5Yo4YLT1sAEILx0w4J4QQQogv4FWPlDtQpZo+fbpMnjxZBXbWBfRIuYe+DffwGbmHz8g9fEaVQ/+Pe/iM3FOvPFLuWLRokfTt27fORBQhhBBCSG3iU0Jq4sSJMmjQIPOMEEIIIcS3YS2QEEIIIcRDKKQIIYQQQjyEQooQQgghxEMopAghhBBCPIRCihBCCCHEQyikCCGEEEI8hEKKEEIIIcRDKKQIIYQQQjyEQooQQgghxEMopAghhBBCPIRCihBCCCHEQyikCCGEEEI8hEKKEEIIIcRDKKQIIYQQQjyEQooQQgghxEMopAghhBBCPIRCihBCCCHEQyikCCGEEEI8xOtCasWKFTJu3DgZPny4TJkyRdLT080rrqnu/YQQQggh3sKrQmrjxo2SkpIivXv3llmzZknTpk1l3rx55tXyVPd+QgghhBBv4lUhlZaWJl26dJFhw4ZJ8+bNJTk5WU6cOKEEkyuqez8hhBBCiDfxqpDKysqSNm3amGciCQkJqsqUmZlpjpSluvcTQgghhHgTrwqp7OxsiYiIMM8MYmJizKPyVPd+QgghhBBv4nWzedu2bc2jqlHd+wkhhBBCvEVQqQ3zuM7BzDv4nOB50mAmXlxcnIwcOdIccVDd+6vC9u3b5ddffzXPCCGEEFKfadGihVxyySXmWe3jVSE1adIk6datWxkRhGiDxMREl8KouvcTQgghhHgTr7b2YByHgVyTkZGhZuHFx8ebI2Wp7v2EEEIIId7Eq0IqKSlJdu/eLUuXLpWjR49KamqqmoWHnCiwZs0aGTVqlBJMwN39hBBCCCHnEq8KKQigoUOHqhyoCRMmqOrS6NGjzasix44dk7y8PDly5Ig6d3c/IYQQQsi5xKseKXeg6jR9+nSZPHmyCuAkhBBCCPFlvB5/UBmLFi2Svn37UkQRQgghxC/wqYoUIYQQQog/4VMVKUIIIYQQf4JCihBCCCHEQyikCCGEEEI8hEKKEEIIIcRDKKQIIYQQQjyEQooQQgghxEPqTfzB8OHDzSMHY8eOtS8nk56eLosXL5bs7Gy1zMygQYNkwIAB6hpwd91f0SGn0dHRMm3aNHPUoKbPpL48s8qeUaC/rvBskO+2a9cuteqAq59hxYoVanknrDwQFxcngwcPlp49e5pXa37d13H3jLAyw5w5c9SxlSVLlphH9f8ZgVdeeUW2bt2qnlHr1q1l4MCBfB1ZwOto7ty5alk00KVLF7nlllvsP8OCBQvUz2cFP6f1Pcv6jHv16iX33ntvmVxGd9f9CSwdh2XjrO/HoKbPwJNnVK8qUnig1q1Tp05qHC/Q2bNnq0WQZ82apR46XpR6TT931/0V/PdDIOCPuDM1fSb15ZlV9ow0gfy6gkDYt2+f3HXXXepnd/4ZIBJSUlLUOH5GiIh58+apa6Cm1/0Bd88IQDhYX0PYNIHwjPA88McJzwg/A/5A8XVUlhdffFGOHz8ujz32mEydOlWioqLK/Qx4btbXEMSiRj9jrFeLr8eC/3htatxd9yfw3rp27VrzzEFNn4Gnz6heCCn9y4hfIuumVeTmzZvVfuLEiWps2LBh6hdt06ZNatzddX8EbyxPP/20dOvWTX1qcaamz6Q+PDN3z4ivK1FVFlQNsOFnd/4Z0tLS1CdnjONnTE5OVhUBPNvauO4PuHtGWEMU1U7rawibJhCeEf44YdUKPCP8DPoZbdu2TV0P9NcR3msgxm+77TZVgUpISLD/DKhqA4ismJiYMq8ha8UNz/jGG29U4/h6PG/9fIG76/7EO++8I127djXPHNT0GXj6jOqFkMIix/ilrIjDhw+rqoAV/OHECxe4u+6PoGqCT2YjR440R8pS02dSH56Zu2fE15XI/PnzVZvKSmRkpHkk6hOb9WfEmw+eWWZmpjqv6XV/wN0zwh/Dyl5HgfCMXn755XK/Z7m5uUpggkB/HeG/F61e/AHXnDlzRu0bNmyo9pW9jlChwfW2bduaIyKXXHKJ2kNMurvuT0BYQvCg5Walps+gJs+o3rT28MY1ZcoU5WlBWQ59Tg3+oFnf2ACUvcbddX8En8qwVURNn0l9eGbunhHAz8jXlQN8ckYbND4+Xp3jOCIiQh1rrD9jTa/7I87PCEA0jBs3Tr2OsIefRxNozwh/sPB7BFFw9dVXq7GaPoP69ozwGnr33XdVKw8iS4MPYXgfwuto0qRJ9mrVnj171L5BgwZqD6xf5+66P4HngkqR83t3TZ9BTZ5RvRBSOTk5Skn26dNHqXq80KBY0e/UWD+tuMLd9fpITZ9JfX9mfF2VZ+HChaqqZv3kbP0E54qaXvc3nJ8RRBTaMqNHj7ZXHeDnsX7KDZRnhN+dCRMmqN8jmM2tfwz5OjLABzdYDvCaQXtPg/cj8MQTT6hKOt5b4MGEMNW4M9f7k/neFTDb47lU1EUANX0GnjyjeiGk0HdHeR17gDeqxMRE+frrr9U5QOm3Mtxdr4/U9JnU92fG11VZZs6cqd7Mx48fb44YHDx40DxyTU2v+xOuntGYMWPk+eeft79Bw8cD87n1dRQozwh/APWHkmXLlpWZhcbXkQFm4WnB/eyzz9q9mngNwW+JKgkEKFpbmFmmq1LAeuwKd9d9GQhGVHKd2+jO1PQZePKM6k1rzxnMeEC5F8TGxqoXnBWoWo276/WRmj6TQHxmIFBfVxAIEIWTJ08uU0WAIMjPzzfPDKw/Y02v+xMVPSNXwBuE1i8IpGek0R9KNmzYoM75OiqPNuRXNDlFv8bwOtIzic+ePav2QAsw4O66P/Dhhx+qPX53UM3VFV0IaIifmj6DmjyjeiGkUAq1elcAyun45QL4g+ZcGUCvGeV34O56faSmzyQQnhlfVwaVCQS0F6w/I9540A7V/qCaXvcXKntG8LM45/+gaoXXB6jvzwj/vXgG2FvB75Im0F9HqLTAO+eM/iAG0YBnaG3j6WO8jvCag+iyVuW++eYbtYdodXfdH8B7J/5NkcmmN5Camqp8UzV9BjV5RiF/tWEe+y2nT5+WTz/9VB03a9ZMKXi8caEH37lzZzX28ccfq38I/GL997//lR07dsiIESPUNXfX/Z1169apff/+/dUe1PSZuLvub7h6RnxdGQIB0/tvvfVWOXXqlBw4cEBtmNIPQVlcXCwrV66UgoICadWqlbz99tvqDyTaWaCm1/0Bd89o//796hNzUFCQNG7cWL0OvvrqK/nd736nXgf1/RnhZ0QUCKaRt2jRQkJDQ9XvBapR+H3D71Kgv45CQkLUexDeK84//3xVTYNAQDgn3i/QFsZ70d69e6VRo0ZqRp/+GXUbGcIK3wPPG9W55cuXq2d71VVXVem6r4PXypAhQ8ps+BmQp6U9UzV9Bp4+o3qTbI6UU6h2KFaoSpSNrYY0vJEFQkq3FVRU8ItpBdUQnYRb02dSH56Zu2cUyK8r/NyuErmB9RnVNHHa3XVfpirPCG/OyL2BwRoVBoir2k719nXwDBBsaE1/x6d8tK80gfw6AnivgBjUyeZ4nSBXSldDUGV76623Kkw+B6ig69dZbaV2+zKo0kFIWStGNX0GnjyjeiOkCCGEEEK8Tb01mxNCCCGE1DUUUoQQQgghHkIhRQghhBDiIRRShBBCCCEeQiFFCCGEEOIhFFKEEEIIIR5CIUUIIYQQ4iEUUoQQQgghHkIhRQghhBDiIRRShBBCCCEeQiFFCCGEEOIhFFKEEEIIIR5CIUUIIYQQ4iEUUoQQn2f48OGyceNG84wQQnwHCilCCCGEEA+hkCKEEEII8ZCgUhvmMSGE+CRo7Y0cOVJ27dol27Ztk8jISBk0aJDaqoL++g0bNqjzadOmqf3SpUtVy/DEiRPStGlT9f0GDBigroEVK1bImjVr7NcTExPV9yGEEA0rUoQQvwCiJi4uTsaOHasETUpKihw9etS86p7Vq1dLr169ZPDgweocAmnt2rUybNgwWbJkidovWLDA7sVKT09X/x/W6/gajBNCiIZCihDiF0A8oWLUu3dv6datmxrbs2eP2lcFfA2+vmfPnuoc1am+ffuq7wewh1BLS0tT52fPnlX7Bg0aqD2uQ1DpryeEEEAhRQgJSLKyslSFCW0/ve3bt0+18QCEU58+feS5556TSZMmqWpVRkaGukYIIRoKKUJIQJKXl6f8UKgyWTftnwJjxoyRqVOnqsoVRNazzz5LMUUIKQOFFCEkIEEb7/jx4+aZAfxPzh6ohIQE1RKEwIqKipJNmzaZVwghhEKKEBKgoG2HGYDaXI797Nmz5cCBA+oc5vZRo0bZhRUqUbm5uWr2HiGEaCikCCEBCdp6ycnJKgIB/qj58+erFp6OVMAe5/PmzVPX0dbThndCCNEwR4oQQgghxEMopAghfg1ab++++655VpbY2FhlGCeEkLqCQooQQgghxEPokSKEEEII8RAKKUIIIYQQD6GQIoQQQgjxEAopQgghhBAPoZAihBBCCPEQCilCCCGEEA+hkCKEEEII8RAKKUIIIYQQjxD5/0ZDPoklXW0VAAAAAElFTkSuQmCC;" parent="t4vPKVTW1FN4aHRBo3Oe-2" vertex="1">
          <mxGeometry x="44" y="45" width="531.3" height="322" as="geometry" />
        </mxCell>
        <mxCell id="t4vPKVTW1FN4aHRBo3Oe-4" value="Relation of VMAF to CQ" style="swimlane;whiteSpace=wrap;html=1;fontSize=20;" parent="W5TQijJyQ9mE0h_75X8s-119" vertex="1">
          <mxGeometry x="65" y="1215" width="624" height="402" as="geometry" />
        </mxCell>
        <mxCell id="t4vPKVTW1FN4aHRBo3Oe-6" value="" style="shape=image;verticalLabelPosition=bottom;labelBackgroundColor=default;verticalAlign=top;aspect=fixed;imageAspect=0;image=data:image/png,iVBORw0KGgoAAAANSUhEUgAAAmQAAAFvCAYAAADkPtfiAAAAAXNSR0IArs4c6QAAAARnQU1BAACxjwv8YQUAAAAJcEhZcwAADsMAAA7DAcdvqGQAAH6WSURBVHhe7Z0HfBRl+sef9IRO6CARpYh0VFCko4CoiO2UpiKnoPAHTtATTzn10BPPAw+4gxM5RUEQBRFRFFBAKSqgdJSmgARQDC1AevLf37PzbibJJpuysCW/r59xZt53djbs7O789qkhWQ6EEEIIIYT4jFBrTQghhBBCfAQFGSGEEEKIj6EgI4QQQgjxMRRkhBBCCCE+hoKMEEIIIcTHUJARQgghhPgYCjJCCCGEEB9DQUYIIYQQ4mMoyAghhBBCfAwFGSGEEEKIjyly66TNmzfL1KlTpVOnTjJo0CBr1MnixYtl+fLlcvLkSalfv77ceeed0rp1a507fvy4zJ49W3bs2CHJyclSuXJl6dOnj/To0UPn3VHQ+YCneUIIIYSQQKBIFrK1a9eqGIOgyg3m5s+fLx06dJDJkyer4Jo5c6Y1KyrG9u/fL3379pVhw4bpcbNmzZK9e/daR+TE0/k8zRNCCCGEBAqFFmQQT2+88YYKKnds2LBBmjZtKv369ZNq1apJ79691XIF4QRgGYM1DAtEFI6DiFq3bp3O58bT+TzNE0IIIYQECoUWZO3bt1dBlp+LMT4+XurUqWPtiTRs2FAF1759+3Qfj4WL0k50dLS1lRdP5/M0TwghhBASKBRakEHwFMTRo0clKirK2nMSGxtrbeUFrko8pkGDBtZITjydr6jPRwghhBDir3g1y7Ju3brWlmfefvttDcSH+zI/PJ2vKM9HCCGEEOKvFDnLEvTv319dl/YsS4whjgsxXYZx48ap6MqdjTlp0iR1OY4dO1bjv9zh6XxFeb7CsmvXLgkPD7f2SCCDt3VISIi1RwIZXsvggteTBDNVqlTRpTh4TZCNGTNGmjdvnmNs+PDh0qZNmxxjhRFjwNP5Cvt8RWH16tXSpUsXa48EMnCJwx3OL/7Ah9cyuOD1DB727NkjjRo1svZISfGayxIB9hBaBnzokPVojxErrBgDns5XmOcjhBBCCAkEvCbI2rZtKzt37pR58+ZpEdglS5Zo1qOJEYMYQ+mLnj17yu7du7U8BRYUmgUo8Dp48GAVVsDT+TzNE0IIIYQECmHPObC2PQJX5cKFC3UbRV6xnZiYKK1atZK4uDiNv1q1apUsWrRIYmJiZMCAAVKrVi0VXqiqn56eLlu2bJGNGze6ll9//VW6deumdcUQw9WkSRM9V0HnA57mi8OBAwekXr161h4JZE6cOKFZt3SLBD68lsEFr2fwkJCQUOx4KZKXYsWQXQhg5ZowYUKh3JkXCsaQBQ+MUwkeeC2DC17P4IExZN7Fq2UvSgJaK6E/pq/EGCGEEEKIr/AbQTZ69Og8lfwJIYQQQkoDfiPICCGEEEJKKxRkhBBCCCE+hoKMEEIIIcTHUJARQgghhPgYCjJCCCGEEB9DQUYIIYQQ4mMoyAghhBBCfAwFGSGEEEKIj6EgI4QQQgjxMRRkhBBCCCE+hoKMEEIIIcTHUJARQgghhPgYCjJCCCGEEB9DQUYIIYQQ4mMoyAghhBBCfAwFGSGEEEKIj6EgI4QQQgjxMRRkhBBCCCE+hoKMEEIIIcTHUJARQgghhPgYCjJCCCGEEB9DQUYIIYQQ4mMoyAghhBBCfAwFGSGEEEKIj6EgI4QQQgjxMRRkhBBCCCE+hoKMEEIIIcTHUJARQgghhPgYCjJCCCGEEB9DQUYIIYQQ4mMoyAghhBBCfEyRBdnmzZtl8ODBMmvWLGskm8WLF8vw4cOlf//+Mm7cOD3Wjqf53Hj7fIQQQggh/kiRBNnatWtl6tSpkpycbI1kg7n58+dLhw4dZPLkyVK5cmWZOXOmNet5PjfePh8hhBBCiL9SaEEGi9gbb7whffv2tUZysmHDBmnatKn069dPqlWrJr1795aTJ0+qcCrMfG68fT5CCCGEEH+l0IKsffv2Ksh69OhhjeQkPj5e6tSpY+2JNGzYUK1W+/bt031P87nx9vkIIYQQQvyVQgsyCJ6COHr0qERFRVl7TmJjY60tz/O58fb5CCGEEEL8lSIH9RdE3bp1rS33eJrPjbfPRwghhBDij4RkObC2Cw2yGuG6HDRokDXiHEMcF2K6DMh8rF+/vh7naT433j5fYVi9erXUrl3b2iOEEEIIKTxVqlTRpTh4TZCNGTNGmjdvnmMMJSnatGmjY57mc+Pt8xUGCLLOnTtbeySQQSwhxHlISIg1QgIVXsvggtczeNi7d6/HcKbSRkne115zWSLAHoH2BlwoZD02aNBA9z3N58bb5ysseDG5BP7Caxk8C69lcC28nsGz8FrmXUqC1wRZ27ZtZefOnTJv3jw5fvy4LFmyRLMeUSesMPPLly/XgrMQVqCk5yOEEEIICRTCnnNgbXsErsqFCxfq9v79+3U7MTFRWrVqJXFxcRIeHi6rVq2SRYsWSUxMjAwYMEBq1aqlx3uaR12xXbt2SZMmTfTYkp6vOBw4cEDq1atn7ZFA5sSJE5p1W9JfLMT38FoGF7yewUNCQkKx46VIXooVQ3YhgJVrwoQJMnbsWC306gsQQ9alSxdrjwQysLTCfc0v/cCH1zK44PUMHvbs2SONGjWy9khJ8WrZi5Iwe/Zs6dSpk8/EGCGEEEKIr/AbQTZ69Gjp06ePtUcIIYQQUnrwG0FGCCGEEFJaoSAjhBBCCPExFGSEEEIIIT6GgowQQgghxMdQkBFCCCGE+BgKMkIIIYQQH0NBRgghhBDiYyjICCGEEEJ8DAUZIYQQQoiPoSAjhBBCCPExFGSEEEIIIT6GgowQQgghxMdQkJECOfT7KWuLEEIIIRcKCjKShxNnz8tD0xbKpUMnyDVPTNX1sBkf6jghhBBCvA8FGckBRFe7p6bJss27JSk1zTESouslG3fpOEUZIYQQ4n0oyEgO/vz2p5KSmi4p6RnWSJb+H/tnk1LlmbnLdZ8QQggh3oOCjORgxda9cl4tY3lJy8iQj7/7wdorvTCujhBCiLehICMuIDSMm9I9IZKcmi7HTiVa+6UHxtURQgi5kFCQERdxVStJdGS4Y8vppsxLls7XrFTe2i8dMK6OEELIhYaCjOTg1quvlIiwMGsvJxjv0bKRtVc0fvn9lHR79nV5YOp71ojI6fPJOnbHy2/rvGHcvOU6tu7HA9aIyGvLv5WGw1/RteHT73fr43G8wTzP2AVrrJGSP8/9k9+T0+eS3cbVnXKMm7i6C/HvATsOHctxPkIIIcEHBRnJwQv9e0i5mEgJDXG6LauFpug6KjxMwkJDZPWO/TlEBERGbhEBAQGxgXEjJJY6xAbGITqwAOxjWffjQXl33TYdg6jB+TE2Y8UGHQP/XPyVztnH3l23VR+P4zEHzPOs2RPvtefZ9NNhycxybzXMcox/tHGXbpf0edz9e15xHIfX0f5a4hjsF0bcvrt2q56DEEKIf0NBFgQYUWS/QeOmbMbMzR3rkf/7KM9N29z0IWBiy5WRzx7/g0uA1AtNlE2Vlsj/au+WKuVi5ExSSg4Rge3cIuLTzXt0G+MmAL5940ulbtVKur7esYBmcTV1wfj1V8TpWMUy0dK3Q0vnun1LHQNDelyrY0O6t7VGHGOObYz1uuoKXQPzPFddWt0rz4O/PzMzU7fzIzU9Q+PqLsS/54zt2hnw+uK1xfUyVjdsYwzCD6IUYB/X+5UPv8whytxZ7LCNY+zPQwgh5OIR4viFn1/AUKlj9erV0qVLF2vv4gJBM3/dNhnfr7tDVNTTMWPdwI16qOMGDnDjHDdvheOmX1HeGnGPjuGmi2PBd6+MUEGA8xmr1ZQ/3qaiAI+94+XZOobzje/XQ7erPzhe1xATn//5D5Lw0p3ydEJDWZlSQ56M2S59og6JhEfK7NSG8t/UZtK3YyvXY805ISLM32OEH2LSHu/TySUu8gPHezqmqOzdu1caNGggIZalDxT3eeKGvqTJDPmBuLpDrz1l7Xn334NzQfTWrVJRryGA0Hpg6vuO17eizHK85nguHAdRjTFcG1xLjMFSCZ64vbM84bgW9vcAzof3BsBxON4+hvcehB4eh+sLIOQh+uyi8ULj7lqSwIXXM3jYs2ePNGpUvDAWkhdayLwIbmh2yxNwZ43AjQ43QONSAzgON1qILQNuxDgf5nBu8JnNOoI1uLd9C7054iYJMQZwY8U2LEZYAISeOeam1tkfIogzPB7CL3HhBMlKT5EXYjbJ+kqfOMUYSE+V+yL2yHftE11iDOCcv705ziXGAM6FfRxXmJv2xbqxF/d5ihpX581/D84FQWTEGIDYgvBe9OT9rufC2oxh3ozt/c8TjrH79BzAvAcwh/cNMO8tYM4HZjhEPd5jdusahCDE9iCbNRY/BuoP+4f+CCCEEFI8KMg8YHf9GXADw5jd9WeOu/qJqS6hhZsZblKwKMD6ZcCNDud4xrJgAXOTxNpghBZuxuZGCSFlhJYRX7jJ4sabWxSZG7Q5DuAYjBsrHIBwwuPxPKk714ik5uO2ykiTlG1fWDulBxNXZ0TZJWFJukZcXZmoCPnH/b103x/B+8B+rQHeA7jeZhzHQLRhgUXTYN53dreqHVMKZNQbSyQxKUX++u4K3cc43ve5kxbwowSfEWO5JYQQkg1dljbe//gzmb7xF4eAyXYHwjqAGByAGxZuYhBcRqAZVxAEGcQYwI3MuH1w3HqHIJs14g+uGyDOCVGGm59xRfoDmSeOyO8v9NYqZO7eFGa86nOfSWiFajrmr3jbLZLw21HZOu3P0uD0bokOyZDkrDD5scKVcvXwCVKlei3rqOAH73P8wLjuijjp+bf/yfnkVFv2qSVSoyMlIyNT4w3xYwA/AAA+C+bHCgQhxB728XnADxFjxcsNXVzBBa9n8ECXpXehhczGhkMJLneguXH0slmkjCsIweIYwz7mAfZhabLHZoHc1giAGw/G/EmMgdDY2hISEVVAFTKHKHPM+7sY8zaZ505J5pQB0uz8PhVjuI1g3Sppj45jvrSA9zl+cLzw/spcLbacmBZblziOg+DCsQZ3SQsmsxQ/eozrFC5Q/LihC5QQUpoIe86BtV3qOf3rEdl+/Lw0j6shI25pL9ER4VK9YjkVTrixYB9gjbHbr22qgeuGa+pfIt2a13cd549kJSVK8ublEhpTXheQum+TnH7zcUndvV7Ca18h6b8dcBzoJrMwLELCKlaV1B2rJaL+1a7Hn1s2Q84uniih5atIeA2n8EzasETOOM4JFRdRr7mO2Z8nunVPHcs4cUROTRuqY1GNr3cKQsffeHbhS5L01dxiP0/G+89J5v4NXnmeM+8+J2lH9kpIRpqlSvUwh1JL19i6lO8/kzKdB+iQu+cBeC4ca/YDnREzP7KK5OYFGbqJySny8/Qn9YeMAZ+VkY7P1R2Oz42hesWyGheJz40Rb854yl9l1Y79mo16LvGMLN/1iwz69/s6j88ZgID7bv9hvRxG4BH/58SJExIbG0sLWRCQkJAgVapUsfZISaGFzEa1ctlxV4X5gvf2TQA3bb1xW+DmfmJif4eIGaPbhkSHQDg1bYikx2cnBUBEJLzQW1K2r7ZGnGIFY+e/nGuNiAoNPB7jhpRNH+u58NgYh7AIiSrjEB3ZQezq1A6PdAiycMlIOOIQPN9J0pp5zkkH55a9po8/t3yGNeJ4bsc8/maszb/J/jzm34NtM5Zs/e1pjn387SV5nrDfD3jteRBXp2IM2O4hekNxvDgZp34t8HmwD1fw8ae76DbA34rriutoHgtwfXDNISoNuH54rP06+hJvttiC5RjWYnv845DuziQTCDTzGXv9843qLrUnuGAbGaOISyOEkECHgsyLQBThxombscGdKMJN2Qgtg7lpY3F3c4doALhRGxGR7BAehvNfzdXHuRMruMnbhR4IsaxBIOqaW3U/qnkXibiksVR56gOJbtkNikPnQyOiJKpZZ6k67mM9Jiy2tkQ27axzoEzn/vr4mI79rBGRaOuckQ2udj2X/XlwDhDTtrfzfI7jsIDIBteU+Hmyosp65XkQV5eV5hAAEKUO7D/q7eGXIeERunb3PGnxe1yvP7ad6+zrasQgjsH7BNf8fK7riDm7aHQn0nA+vK9wve3gfHbRV1IudIstuDQh0kwcJrjn+uZ5RJoRZsBsw80Jd6cpAwMwhxAEk4BDCCH+CIP6baxZ8ak03TZbQmPKSfm+z7lu5rjB4aZWpscQvYkDiC+IoHJ9xuhNGOAGiRsnHlflmSU6BgsIbrqg2our9UaP85kbaaVhr+k5IbJguQJ4bpwT58INNiy2Vo6/B0IO56z44D8L/HvwHBBo0Q7Rgccb8FwRdRpJeJ3sjM78gCBBbFmg4c3A4eNPXu8QZc6OBe6AG7Lay+utPffgmodEl5cynfrpewDX1mn5POq4Ns+6riPeA7Cs2a+jubZlOvWXsj2H6Ji79xrOZ34MmPcaHguLH7Zjx8zV4/FePvPu8/q+qvhgtnjDOOZxrCfQWH3xhl2SlpEzhgwgGxWiauawu6yRkpHftYTQQmkYFOE1MZoQYxBe9mQCU6fPPkZ8B4P6gwcG9XsXr8WQHT9+XN5++22ZPn26zJ8/X7Zs2SKVK1eWWrWyM9BmzZolU6ZM0fn169dL9erVc8znZvHixTJ16lR555133J7P03xRObHuQym390u9SYbGVFALBywLZ2b/RcfwBRLVzFk4Fjc/3BAzjuzRG6WSnirp2O82yBXPBLmbtv87ibmqp0RZ8UyITUrd/bWKIjwWN/QIhzjKPHlUb4hlbxikY1gwH92mtyu+CSAuCscYgQbwt2IM5zHgb8CY+ZsNOCa0QlVrr2AKc3P2R7wZp5Lx24EC4+pgPYxueaM14J7IxtfrNTIxZFjjuuL62q8jrlXu62iurbG4KW7ea3hfpez4UqKuvF7PDVJ3rpa0g9v1+WKuv0vfR0lffyApm5fpvwuxc3h+iPQzc/7iEH7zHO+vHnoc3t8npzwoKVuW5YixA+0cImj2l99LRkaWxoyhFMiZLMdrER4mMVER8t7j/SUm0mk1LCn5XUvEaiJGzR7HCb7/KV7j1BCXBmas+NYh0k6rgxUxbACZnRBqsLaZZB1ycWAMWfDAGDLv4jUL2aRJkyQ+Pl4GDhwo5cqVkyVLlsiOHTvk5ZdflmrVqql4wjJ48GC54oor5JNPPpGvvvrKNZ+btWvXyrRp06R3795y4403yuzZs2X//v3yn//8p1DzxQEWsibfTlMRUqHvsy4LkrFIVej7nLq4gLFalO0xRF1cxL/w5q9wZFGie0FWynmHOkvTG7t+aMIjJSQ8Sqo8/aGEls0pCvwFiCqIrNDKtVwWN1jCkFxhLGR2SxrAGN7nsLAa96ex2uIHinlsWof7ZNs7E7UUSJRkOP4LlR0Vmni9FEhJr6WxpCEj2ogvd5Y0U44GrlJ7PUDiXWghCx5oIfMuXrGQwTr2xhtvyN133y0dOnRQxdyuXTtZvny5pKenS/PmzdWK1bhxY7nrrrukbNmy0qpVK7WUXX755RIX5+z7Z2fBggVq8Ro2bJgeX7VqVfn000+lRo0aeryn+eLw8y/x0uT+v6iFwG61MBYpk9kHXBYpyzpB/Atv/goPiYyWmGv7SCaC938/JFmZGRISES1RzTpJpaH/9lsxBmAZw3vVbnGDddRYXo3Fzml9c1qAjXDD+z1ly3LHY52WXFjIkjcskeSNS9S6lrXtc6me+ruEZzlEquN1Dg3JkprpCSLffSzRLW+Qcx9NypPBCoFonrOwlPRaGksaMqYNqJEGqxlKcZisTXQfgHj77qd4V0kaJA4M/e8H+lha0rwDLWTBAy1k3sUrQf27dzszx3r0yK6/BZo1aya7du3S7ejoomUkwtpWp04da0+kYcOGKsD27dun+57mS0KguunIhQOiq8KA8RorVvWZJY71Oql4/wS/FmNFBfFpdmsvPgeIT6s0bIbrBwrEGrZDy1V2qKsMdZ1CyLnITFdLYuL7f3cln5hkBFjXEBP52+irHePZWaSIe4OF7mKCWoCwjNlrAbpr+I4kAWNhM8CShsxOU6uQEEK8gVcEGaxSAG7E/OjcubNs3LhRj4FFDS5OxHvBouaOo0ePSlRUzl/S+FVl8DRPvMOhhMPWFjEEYpKDtzAiLSslScRtooNDnGWkSdrPm/NksEKQmWzP1J3O7hcao/nuc+outWeHYtuZEJMt3C407go2YxtuTSPSIM5QxBbFbBGbZnB2MMjuV2tAiRBCCCkMXhFksE5BXC1atEg2b96sMQII4F+zZo11hKjwgsUMcV+jRo2STZs2Sc+eziD3/Khbt6615R5P86R4nDh7Uh55Y5TUf6y5XPdsV6k/urmMeOtxHSfElALJz+GE8ay0VCl/11gVbyaDFOuyPYeqUDOlS+yJAshCBRr39uVcta6hppzBFyINXTdgSTNFa+2lN+5t7xyDGHP2tp2tFjXT4zNu6AS55ompcqljjaxUjBNCSH54LagfVi9kUCKwHu7JNm3a6PiRI0dk/PjxrqD/Rx55RAUcLGWIO+vbt28eVyfo37+/Buz365ddc2rcuHFSv359GTRokMf54rB69WqpXbv0Wj/A6aQzct/sIZKcliKpGXBHOYkMi5ToiCiZfd8MqRhTwRolpZVKMx+w3JX5EB4ppx56y9opmNDE47qk125ijYiUXf1fCf95k5zv8oikXXaNFvotv+ApnUtr3FnOOcZBzPq3dS7p+vslo2p2jOfFJDE5VXq9uki3b29dX1b++Iskp6Y5Pj/mqzXL8fkJ09ps84be7Pj8FC2GjhASOCCmrrhxdRe0DhlEWFJSkgwZMkStYgjAt7soUSLDCLbcjBkzRpMB7OJq+PDhKvQw5mm+OECQwbVamnn0zT/J5ztWy/nUvL/mI8MipPdVN8uU+1+xRvwXxBJCnDNw+MKQOPevkrxlhbon84BSIM27SIX7XrIGSoa5lolvPaFWswqDXlFrGyxlp6c7hRli38reNlqta0gmgCu03L3P5kjOuZDAXYl2T1/vOSRf7vjJ8fnJFVvnINwhyspFR0rTutVl8uDe6gotjfCzGTzAGwYDC8mmJO9rr7gscVFgsYK70gCLGcpewE1ZHBCwD4uaAc9x8uRJTZcGnuaLC17M0rys2LHSrRgDqY6b7ydblrl9nL8twN04F+8s5W4f42yx5RBf+lrr/x2gFEhEtLor3T2uOAvAGuU4UPA2qmEb3ccawg9xbYhTwxhqs7k6Wax91/n45LNyZtbjDvE2VGv9YczbS4crL5NHel4nq1WMuW8rlZ6RIafOJTnE20GZv36767E7f/lVsz7t5wvmBbgb5xJ4C69l3qUkeC2GDL945syZo8IIy4wZMzTrsU+fPlpnDPMmxgxiDTXJEOR/zTXO+BKUyECNMjwWtG3bVnbu3Cnz5s3T41HXDOczFjZP86ToIIA/KTW7HY07ktOS5djp36y90gkTHRxfHGUrOVtstequZSxgZneWAul8UeuyGZFmj1PLnUyQX5sqZHzm7iVaEgrT4xPUjq2g3QUAOggg9gyxZmztREjpxiuCDIwcOVKtVs8++6wuYOzYsboGZh6V9eG+hADr3r27CjaAeibJycny66+/6j6E1b333quxZjge1q+HHnpI54Cn+UBn4tKp8uzCF609J4/NeVLunjxQdh7+wRpxHnfts13ks60rrBGR+d8s1LHXV82yRkTW7/1Wuk+4TQa/PswaEfnFISzMGLbjqlwi0Y6bakFEhkdIzYrVdbu4z2Mo7L/HH2CiQ178tRQIRJo9mQA12FBnLbdIQ4FctaRtdCYOlFSkFbbH55fjh7paPf2ScFozN7HA5Qng/kSSwANT39N9QkjpwGuCDFaw0aNHy9y5c3V5+umnc1TgN/MI5Mc8KurbA/JRbR+Zmqjib4BYw3E4HnFmrVu3tmaceJovKpO+nmZtoXDkGRUREAx2EQGRhDEIDwNEROMnrvYoiiA8cosVd8+D80xcOkUfax6P55v/zQe6fu/bD3QMYP6XhHiZ+OlUa0Rk5uq3dAx/K84P3nc8Bs+PcxsB9Nm2z11j5t/Ttr6tPY8boiNjrK2SPU9R/j3efn2Bu+uYHxBdHcf3kGXbvpAkNBp3AEvix5s/03Fmnzq+SPy4FAhcmqilllukoRMHRFpE/at0DD1E3Yk01Eizl+QoiFuvvlJ7eboD4z1aNnI1RwcotfHE7Z01m9N0B5i/bpuW1bA3RIdgY4N0QoIbrwmykoLWR506dXLbRulisSl+s+sGDbGAGzz2zRjWEABYQ3gYMIYb/7MfZFu03v92UR6xAuGRW5i4e566VZyVwyvEVJCml1yp29c3vFZuatldx3q2yO6b+HDXQTr2UJcHrBGRe669U8fuvc65Bn9wjNWtUkfPY86JeTOGBUwb9KpEhCMuKKfbJSw03DESIn++ZZQ1UrLnwbqw/57ivL6bD2/TMXevL/bdXcf8LHZtn+0s51OSJCXd1N1yWkCwfy75nP4NJLCASEOzdSxGpKEJv1rRGlytrlcAkYYaaSjDgdg0A4QbxFpuXujfQ8rFRNpEmfNzhB6fZaIi5B/399J9OxBl9tpn97ZvoaINAq2uFfiPjgGwmN3+8mzdJ4QEIciyJE5ueO6WrNPnT+s21m3/2jnrrn8NyDr0+y86Bh6c8WjWFY9flbVuzzfWSFbWPz+ZomMzVr5pjWRlvfv1Ah370+w/WyNZWTt+2eU6p6fnwTiO9wUJiSey/m/WmKzLHmuWVWt4g6zL/9Qsa+j/Ruq4LyjO6/v99u+zMjMzC30dsca/FctfF7ygYwDHmPH8lsscr4/5e+x/I85540u99bkM+HtwfvtzkILZs2ePXktfkHb4x6xfH7sq67e/dM5K2btRx85/+5FrLD0hXsdA5vkzuk5IPJf16GuLsuoO+XtW6z+OzYob8lLWH/+zQMeLy+0T3sqqNuhvWQ2G/cMaycr6x4dfZl31+JSseWu2WCOBgS+vJ/Euu3fvtraIN7igZS8CDZS96NLF2TycOEEAO2LLAg0khxS1gTFcnev3fCtvDJnmsuT9dcGLMnM13KIatq5j7qhduaYcOXlMLYErxn6kVj5Y3GChA98+v8oxd4la5oxFbcGoOfo8cKXiuTH/xsNOtzmsfn+aM1bOnD8jrw6coHOlleJcS28CSxhiyuDiBHBfwmIGYGHDOJIGTr85Ri1sKMtxfuUsSd25xllAF8kOLbppZmpx4+tM+yZPDdIRf7Z+9yHtLGB3jfoTvr6exHuwubh38RuXJfFPsqKcbbFKAxBDP77ynUuMgb/d/bSV6JD/zSM6MlqGdvujijA81u6+xTZcs0ZQGTcuxk2BXXuMnYmT22Htw62KWD0AkeYuHs64bMmFAe5NI8ZA2R5DtONAuT5jXONpP32nawi3k/8ZIik7vnSIsSQdgyhL3vq5JLx0p2SeK14MGMQVXJv2BufoGAAxZu+9OWjq+9raCS5OQkhgQUFG8pCQnCEPrj4stWb/KC3f36vroV/F63hp5JZWPbUorjsw3qNZN419g5h7deDL1owzTg5jxuoFMHbk33tlw99WucTZTS1uVMsa5q5v5BSDzRxzmMe4ibGDSDPxcO9966wMD2EGkVb7/xq6YuQArHCFTVogRQMCLXcjdog0NF4Pr+0QaO6arjv20XT97MIJGovmjVIbuRukw4pmsFvHTBYnIcS/oSAjOYDoavPBPll6MFGS0jN1DOsPfz6j46VRlD1/19NSNrpsHlEWFR4lMZHR8vd7nrNGCo+xogFYz759frW6MM041nB9YjEWO7tIa9fQaRX55US8JjeAr/du0HV+SQvuRBq2kbhAK1vJgEgr3/c5yTh+UMRVyy9XNEhGmqRs+0IS331OTk0bag16D4iwRU/ep8vjDrEG4MJEjbOGw19hhiYhfg4FmY2XfqtobYkcOpsmHRf/JANW/qLbhmFrj8itnx6U7SeC8xfn498cleT0LEnJzHkzwX5iWqb8ZcMxa6T0EFuusqwZt1zbRsE9CWIioqVnixtk3bNf6PyFwi7c3Ik0rGGdg1v04a7OzFSINpPBCrcpgPAyIm3Zts91DAyeMUxLrNgzRSHQYHUz7lNSOPI2Xc/p5sZeVqbzR44dlNVIeKF3jizO4gKXJmqcGQvZL78765wBdAgA2B/5v4/klcVf6T4hxD+gILPx7bkol9D65OAZ3f7kYKKsPXpOx7Ceu/eUrD3mWO87rWOnUzNcIs0u3CZsOa6CDo834LGXvrNbpu9MsEac5zTCz2AXgzg/uBDP447Pfjkr5zPy3jRAmkOULT5QOi0pEF1TH/in/DRpu3zz/CrZ/+p2+e/gyRdUjOWHXaQBWPDgFrWP546Hwzp3mRG7Vcz+WAg0WNly14IrSKSxe4HjyzS2tqtrgTs0LSQiUmPPKg17zTnoIHmj04VpuggA9OmEUHNXWqMoIM4MLk3UOjN1zpAcgA4BiDWDBY0Q4h9QkNloFp0mzWOdvyz7N6wkceUipEPNstKhVlkdw/qWS8tLxcgwuaVuOR3bnpDsEmnTd53QMYinCZuPq6AzYwDiCXMYM0Jr+g8nXMLPjNnFoBFaF+J5jEh7aoOzQvhBh9Azbso8MezWfnJGlhw9n67beBwebwQrgAh0JwYhJPF3BQOBmuiQW6RBhC0cNUddpWNudmbpgdy14CDcjEgzCQbgyXf/Ko3/fLXU+1NTdi+wiGpxg6u/Zx4c4+gUgNgzZGMaTKun6GtutUYcn+03H9f6Z/aCtMUVZyg6i3gzYzUzbZtgTTNJArCaQaQx1owQ30FBZuOFWtk3EoiubX9oKB/3ulSFmeGdbnXl4IArXCKteZVoFWk4xog0PBaCTtcNst2gjzaJ1TE8Fmsdu9I5ZoQecCcGL8TzGJEG8QSRdqnj3BFGiOHnvGOpcibJtQ3CHe+YWmXCnYLP8Tg8fsKW352TDrBtxKABzwMhCfFoxCCEIcScXaTZLYMGHI+x3JZBiEGM2cXghSRYEx3g3oRAs1vIYHGDcLv3urt0H3Om+O8frr1Dxw7+fkhmr52nZTlSMxDA7uxe8OF3H0vrp6/P4RYtTRSm6XpuYDFDFwGTJGAXXohNA7Cgoa3Tb6OvVutZSYBL87c3x2msmRFp6KcJNybWhBDfwDpkNkpbHTKImQErDzuEWxkVmmCgQwwtPXBGqiecl+ELN0uFs6lyplykTOp3jZwuHyXtHSJvSS9nHz64UCGsXmpbQ4UhgMCavvOEPNo0Vsa2cnZdwDEQWRCYELgA+8b6B4ELkYjHQrSBj2+6VAWleSwY27qanlPF4zu7dQzPO62D09oAkQZL4thWVaXG2SNa6+jlrb/r34NjIEYBLI14LgjXR5tW0bGCMIkO59Iyc8TWRYWGSNmIUNl4ZwOpEm0qs5cO0Ndz6dZlkp4BQYrXRCOkrLVIvap1Zf1zK3Ub8Wmwro2+eYTLOgerm10EFkSg1a1CaYuzH07UAP6stBQVYpFNO6oYK2wdMnQCyHQIM7R4gijDPgQZgHCDiINwO/+V082JrM+ScMfLb2uMGSxmK59/WMcg0NCuCRY2uD69BeuQBQ+sQ+ZdKMhssDCsyNFj5+TD3nMkwiF6IjIyXbfZtLBQSSwfKX0X9JNaDmFVUtyJQVjbBnzxi8Q5BOA7N1yiIs1YyABElbEYGjFohBYea46DSHusxjn90q83d4+eA5ZFWDyBWtYc/05gxKA7kYa/ESLv95R0OZ2c6Ta2LsIhyu68rIK81qmONVI6gHsSFrE8WG8YZKQemLxLhRhizwCsbCgLAjGGoreIR4MbFbFtBRHIN3AE+nurzyfcl7CUQYzBxYkkAGRsAowZCxvEG+aNda0wIAMTgqx940td7ZqqPzhe1xhb9OT9uu0NKMiCBwoy70KXJcnBnlfWSHnHHRViDBi1jv2q51Jl37/WWyMlA8IKYsiIMYD4PeMmNm5VrDG2ps/lLjEGIMTweGP1wmONO7Z/fZv7tqnTVQuhZTAuXePuBXCxwiUKAeZyq/5yVoXe0XPpct7E1pkXxLqXINHhwwNnXK5W81gAl67dJRssIIDfrRgD1uuTmpEmx07/5jbj8/T5M67kgGXbna5NiDTTSzSYit56s+k6RFfFBye64s/QcxNAeIXXcd4UIdJOThsqv7/Qu0i1ziDCTKFZA5IBsD+ku9Oqifiybs++rkKtJMkAR09fnDADQgINWshs0EIm8k6b/0p6kjNo3x3h0WEyYNOj1p7/UtRf4U7x9LuKOuMChRi7d8UhOWIlMeQPPkLO58FjIfQ0keEzZ5kBu6sVlr3TKZkyrWNttdoBiEAcD9evXXT6M5c/1lyS0/IPAEd5EGSk5gfcmKih9vydf9E6bCjHATEGkFSAODYIs7unQKDFy/sjZ0v7RtfpPMkmd1snZGYiGQBAvCFhwFtAhJkYM2RtIlGgsJw4e17+/PansmLrXoeYT5OYyAi55erG2ow9tlwZ6ygSaNBC5l1oIXPDume+kGUPLpKz8dm/zrdO2yBL7n5XDn3hdIuBfR/+IAt7vi27Zm+xRkSObYzX41aNWmqNiJ7HjKUmplij3n+ekoK/A2IsPwmD8fTkDDn/W/D9woWbEhY3I8YArG677m0k0WG2VySXhQxEh4XmScKIKx+pa1jgOtRw3nAQ3wY3a+5MWXfJERBpsLpBqBlwXO4MVl9RmO4FBWFKdZiWUih6C0uavTOBvejt8u1f6BoWM3fto0orTuuYra1Tz+y2TkaMoe+mN+qcIRkAVjTEmfVt30LH4OqE1eyBqe/pvjsgxto9NU2Wbd6tYgwfHqyXbNyl45gnhFCQ5QFCBwII6x/mbLNGRbY4hNKJH3+XrdOd1dDBD3O2qojBcUZo7V/8ox4HQWWE1qGVP7nGjNC6EM9jRNrGl9fqPsBcbuGGc2A/txjE+UMc74icJlOzl6VbsJCdOXiqRM+Dx+FY/L0GiM157V53Kzrtz+ML+tSroLFiimPlyjx1gPFeceXzZORiDYGHMSPSkCkL0Ya5gjJl7SINGaoGdxmscIlCpCEG7mLi7e4FcGlCoKFjgb122pibR0qH+u3kj52dMUzu2kdRpOUkd1sn1DeDFc1eQgNxZhBoRS2lMeWPt2nQv3Ftvrtum+w4dEyD/40bE65NbJvOALCMpaSmS0q6cec7PzzYP5uUKs/MZd9NQgAFWS5qtqkjcTdcLuXqVJC63S6zRkWa3NdKIstHyZUDs7ON6vdprGN4DNb2MXMO0OD2K3Ubx2EBF+J5INwg0iBqjHBzJwbNvl0M4ng8LivToTls1p9sU1CIhEaEyiWdL/PK82AO1kCDEZvmOOD2eRznK4wYTD+XJh//YX6hxKAn/t62ptRIy5DBH++Qf05ZLX99/WtdP/DpLqnmuNH887pa1pE5gcgyde0A9iHQIN7cxcNBmIEcIq1+dkyPu3g4ZJBCpNlj1WBda/H+3hwiDdsY85Z17WJ1L0B9tBdvHZfDkpa7fdSnW1e4RBoWAJGGYrb2DgSllZiO/dSShl6bBtQ5Q0LAGSspoLj0at1IxRkC/01NMzQ2h2sTljMAN+V5tYzlJS0jQz7+7gdrj5DSDWPIbAR6DBlEBgQIRFrXyTfrGMTIssEfSrna5aXrlJtVxEHcrBq5VM4eSZT2L9zgEolwoR76fL9kZmZJpkOAZKYhkB1vjxAJCQ2RiLIRcufS++XkvoSSP49DWLV5soOKVQDRtXXaRj0njgXu/j0QXUbw9fv6YX0ePNYINByH4zct+lZ2jtuoY62GtZWWjgV/D6xwwH5OPPbEj8f1GPM3Qizumr1V/8a6DhH6wa1zJNnx+FDHawOJilclIzxUYspGyp0fD5SoytnC62ICIQZRhlIfJjsUFjOINIhBJEOAwmaWFhcE+sdZosnbuIsHhOAyZTOMhaxu7CVquYNgQ5soI8ZeHTjBVVMNwg1irrAlN4IVuDBhNYNbE7FmABY0WM7K9BgikQ2u0bHigHIZKDKLGmcfjr1fuv51hmPUfGpy4xzf9uqfpGalwmeFEv+AMWTehYLMBoP6naScTJYNL69xiLN9GjMWHhMul3SqJ9c908VnwsMAkQaRV7NtHZegghUNQs0uBn/Yskv2vQCrW6pbMYgxiDIIScTnAYhDIwYh3CDgYH2s2qy6HP7qgNtkh5CwEAmLCpfWI65V6ybA37Pumc/1seZvxLl+cAg8/D0QeRcSWMjQ7QGJBMbqBvGFcXvSAmLU4BYFdpGG4+wCD8c89e2v0qFWGT2nO9DlAYWFLwTFKZNgym2oK3TINHV/zv9moTw2Z6yOrRi72GV1K41AjKXu+06iHYIsd50zWNLQKL24wGWJ9kzoCIC4s7ihL0lyav6JMdGR4XLotaesPRJIUJB5FwoyGxRkeYFgMS7RQMLcxNPOpqpAKwiIuWMb4l0iDRgLWcthbWTzlG8KzDw1GIsdLG6w2oGeb96hYhDxghCDAM8D8YfXVoWk4/Vt8+cOrtcZx2GuzZMdJbZxVR27EMB9mTuzFG5NlP9AnBusaxBp7or4ItngiW+OSarj2+PIOWfLrZjwULnNcS64eL1ZKLe4datgOUNSACxmABYzWM4AGrRjHC7OSUunSjuNV8tuH1UaOf3mGBVpFR/8p1rIEF92bjmsW86SG8Vl2IwPZcHX7jNuI8LCtMfmzGFOCyYJLCjIvAtjyEiBBKIYs+NJjAFYsSCmjBgDcF/qWLfLC8w8NdS7qaHruRDfh9cNQswIqtjGTssSjjGvqT3uzsS0YW2SPZC4AWBdg0jLHQ/nLiO3KLjLLDU12hDjhjUwcWxISDBjk3ckyA+nUmT/6RRX/9OktEx5b/9pafb+Hr9oKQVLmBFjAIILSQLGrQnQmxOiDL06IeAA1rCmmf3SAlyX1V5c7XJXIugfGZpYStKuCaUtoiPCHVvmU+Rch4WGSmhoiPzj/l66T0hph4KMkAKAeEJmaUFmZMx3/mdPaw/iq6rctex+tY4ZkYYxCDxjMQMFJXvgcSbZA6Itd0YuRJrJyEXyg8Fd0gKsdbkzWPPDnUiDBe3Ug020e4Ih2SHC9LZqV6pWhm5SepY88c1RHYJlDVa33AVyYWGDJe5iAoEGUYY6Z4Z72jp7c9r7eQ6eMUxdm6bDQGnFFJu1V/yHMINrE9a0woI6Y1smjZK72zVT9yTeJZHhYZKRmSkpaemyfMte54GElHIoyAjxQNyNDTTD1B0m87QwQGTZXZDYN8LNbok0Fjsj0vAYiDQcY0QaHgtBhzUscgAiDaILIs2ewYpkCY1hs2WwGpEGoVdYjHUMbPo92SlSLaWqpUCsZgYQaUsPOV2cpgOCvbE8xBmK5iKGzYz5CtQ+O/LvvbJg1BxrxD1wdzZ+4mq1nJUWYCmrPuk7qfrMEpfVLGXTxxpvlrJ9ta4BXJvYL6gzAETZtCG3a6zYR4PayafPPKjjCPyvW9Uq93I+WctnmHIZhJQ2KMgI8UDbJztKRNlIlygzRqFQh0AJjw7XZIcLCUQXRBrEmxFpALFoEG4mU9WdSANN7mvpnLONGZG2dbozExVAxEGk2V2gOAaiDWsDAvjhpiyXlCaDlthKgUxdLQOX7pJy59MkOSNLjp5Pd9umym4ZO53qVHHuynJArMHCdjT7qS8KSAKAW3PByGyRhtgzuDDh4jQ4XZ1Trb3gxW4hi7rmVt1H2yZTkBbZmbCYnZo2VPfdgYbrp98eK8efbC+XL35Sak67W77vkioLR96ugf8A5TJQYNaUyyCktMGgfhsM6g8eihsInh/+nHlaHOxJCyY71J5ZCvEHELcG96d9DIJt0biVUvZ8quDbI9LWhD41LFTSHMJr4h/byf5HnNXccwOhBctZc8frBncoMBmf9mQCtJmCUCsfHiKHBjb22rUsDrCQfbZthYzuNUJLaKAAbfcJfVSkmabp7riQ5UD8hVPThmgyAIQaYtByAzGW8NKdkpWaJJKe6nqvSHikhETGSJWnPpDQspVUjMFCBqvZ3v88gSOIn8Ogfu9CCxkhhQCiq+OE7trHE8JkwMZHpPPEmwJSjAGTtGDEGDCWtCsHuhdSBsSsVTqTLBHpmSrGgPlVF5mRIVGp6TL025+tkbxAbKF8hhFjAF0KMG5PJnDnzoQFLXfRWxyH/QsZkwaLGboImHpmFctku5hN7BnEGRqk95nUV+6f/rDUf6y5XPdsV6k/urmMeOtxOXH2pB4XbCAZAO2aKg9z9tAEsJj9NvpqdWUmLpwgWekpKsaAywLg2M9KOS9nP3TWQUMXAPTInDXiD7oPINLQzBxCjZBghxYyG7SQBQ/etpCVVmAxg0UMrlIT55ZdwsNl68hDWHSYXDWqnbpG7Va4omAsafXSTsi91zTSa2kvy4GOB8BY0uxjFwNYydBv07R6ggvTNEgPC0XQeragjAqPlDJRZbS7gbe6GPgriCk7/rTzexQ1zZI3r5CsAhrRh0RESbWX11t72SCmrOHwV3QbpTHeGnGPbhP/gRYy70ILGSEkX0xcmj3pwMSxheQQY9nbkGkZyRmy6y0Uws2bTIBCvPZkAhOnZi/pAYwl7epK2V9TiEmD8DIFb8GhxLyWMXfto7wNCssaMQawXbNSTRWOLjFmvSwp6alyNulsqWjlBNclemkizizyinYqxvL7WaSSPi1FMs/kzMIFcF0O7XGt1czc2UoOIg2xZlgICTYoyAghRQLiLG8pkOxbLsYx3+QBpwvUnogAcQbhZU8mQKkOrbM2+ENrJH9QlgNWMHvHgHduuERealtDPu7lDA4HxoWZuxE7RJopcnshOH3+lORwOtiUSFpGunyyZZla1ga/PiyoxRkKyVYaNkOiWvdUC5j9Jcmx7VhCIiIltIL7DhDj+/XQZuawkAG0ZHpt+be60I1Jgg0KMkJIkSlMKRC4KRGnZtpRAcSnQdDZMz5zW8YARFp+ljSs7cCSBqEGy5kBFjTs527EDpFmr4mGbSQUeEOkIYA/KTV/1xzEWXJaskxeNl0+27pCMzfh5gSIP8M2xFqwEdXCcf3Ds6+NiSIwwiwrM7PAkhl20MQcwHpWoYyzxh/LZZBggYKMEFJkilsKBCINSRFIKjCg/yj6e/Z843ZrxBmnBqFmL3qLjE9Y0pbcPd8ayR9YzGBJs7s2H23qLMFhRBpi1FAfDdmddpEGcWbfLyzIpoyOKDjJIzoyWu5s4yw4i24BzWxtnRB/hszNYKPc7WMkJKqMSJhTlJn3SkiYVdcuw3NbMgPcl8jA3PTKiDzlMm5/ebbuExKoUJARQooMskvvWDJQ6vVs6HJfohRIXNfL5M6l9xcp+xRuTQg1e5yaiVu7cqAzdgjgOOc6UtcAAq2wBW7h5kQXAiPSIM5MfTQj0mBBQ5IAhBri0AzuMj7dcUurnhJpCY/cYLxHs24aa4ZitAtHzXFlaNoJtpZNKGmB0hbRrbo73ZeOsRCHcI1q2knKdH1AG5mHxTo7Q6CmWcILvbVtU37AOobFYCxjZ84XYJ0kJABglqUNZlkGD8yyvLjAmmUXVN7EXMtzRxK1Jpo94/OtZv/WNcbQ8QDA3Xls42Ftzm6PXysMEF4t3t+n67Gtq6mIg0i79dMDuv74pku1NEd+oLRFx/E95FzyOUnNSJOsqBoSkvKrRIVHSXREpKx79gu3WZYQYa+vekvaNWzrShRACY3533wgrw6c4Cq3EQz89P16uax1O7efTWRnIksTRWdjx8y1RgsGLkvElsGdCQsa2HHomIq2ulWzLaTE+zDL0rt4TZAdP35cFixYIBs3bpTk5GSpX7++3HnnndK6dWvrCJHly5fL4sWL5eTJk1K5cmXp06eP9OjRw5rNC47FY3C8u/N5mi8qFGTBAwVZ8FDQtYT4QpP2Nn/uoO2lEF8GixnILdJO/HhcXaWeRBqE16HEVJfwQt9NtHoCRqRBsN366UG1rk3rWDtH/Nq+hAS5a8k3cjDD8TyhkSKZqVIv9KAsuK2DNKhSxTqqYCDQ0KoJQKCZ1k5o3XT4xBHtyRmoFHQ9YSFD7bIyPYZoyQxwbtkMXZftOUTXnnhl8VfyyodfqiCDa9NuTSPehYLMu3jNZTl79mzZt2+fjBgxQp5//nkVXFOnTlWhBtauXSuzZs2SDh06yOTJk3WNfXw43YHj58+f7zoe55s5c6Y163meEBL8IPYMMWkQY8CU6cA6d49PZ3P2nI3YTScCOxBXdisYtpE0gEK2xrWJLE7Enq09dk4FG4BIa7dov1y35Dc5GuL4eyDGgGN9NLSR9Fj2uyQkF871CVcmmqDXrVJHHurygI7tPPyDNj2fuHRK0GZoIjuzyjNLXGIMzczPLXvNWpzCzBN21yXdmCSQ8Iogg+jatGmT9OzZUy1UDRs2lNGjR0tMTIx8/vnnesyyZcukY8eO0q9fP6lWrZqua9Wq5ZrPzYYNG6Rp06au43v37q2WMAixwswTQkonBfb4vM0p0tCA3Yi0/Yt/1DGQO4PTgCSBd7rVVYsYMFmcHWqWdYk3JAP8cCpF0rOyJDUzp+MhxbF/Ji1T/rLhmDXiGdMdAA3QAcSZiTmzx55BqAVb3JnBxJahtllE/at0G6CxeX6ZmY/36aQV/1H537gsR/7vIy0yC9cmIf6KVwTZ7t3OejC53Y/NmjWTXbt26fb+/fulefPmum2YOHGiPProo9ZeTuLj46VOnWzXAkQerGCwwgFP84QQYjAizVjSYhtX1W27JQ1xcAt7vK1xaRBsBQFhhizOj3td6nJXwoKW1wmXLczSHaJs8YHiCyeIsBVjF6v70rgs4cLsPuE2afvXrkFZMgOCDP0x0ZYpssE1OgZL2YmJ/XVBvFlu4KJ8wiHKTO0yACGGWLP56yjIiP/iFUFWo0YNXednnTLj58+flxdffFH69+8vgwcPVpdlfhw9elSiopxZVYbY2OyaQp7mCSGkILpOvllFmokpgwgzFjLEmwGItCV3vyurRi3V/YI4lZppk19OYhNzusySM5yiDLXPkM1ZVHJ3B9gV77TuwUKGNk4AFjOU0Ji4dKruBzqwjiHI35CVnC3CMt0IMneg4j+sZUO6O187iDPEmrHiP/EnvCLIYJ2C+3HRokWyefNmjQuD2FqzZo11hBO4Ldu0aaMxX3379pWvvvpKA/Pzo27dutaWezzNE0JIYYHFDOU3sDaWNCQMQKihnycWkJ9Iu7RchESHhUi5pDQZtGSH/HPKanl2xte6Hrh0l45j/r2fTmv8GeLQTDkNxKFBpNlLbRQGWMrG3DxS3ZtGqE38dKoWmUWsWTC6Msv2GKLNzCvYymUkvvucZmjmVy4DFf+/e2WEy2qGQrII/DdV/wnxB7yaZTllyhR1TUZHR6vwAkeOHNHYsmnTpmmwP8SbYdKkSRr3NX78eGskG1jREBeGGDHDuHHjNJty0KBBHueLA7Isa9d2fsAJIST9XJpsG/ONRFWLlivGtpLwshFy9OODcuANZ5jGFU+2kthrq0vKb0my++UtciAqSsocPC0RDqEVmZGpLkx8waaGhUpaZJisHdNObqsfJU/8mClXVRR5pbEzJu2JHzPkywTnV/EX14ZJ+fDiZwev3f+1PPPJC9KqTnP5110TdGzf8Z9kS/x2uenKG6RcVDkdCyYq/dd5H0ivfaWcve2vul0Qx06fk7unfSzloyPl73e1l9Zx1a0ZQkpGlSpVdCkOF7QOGQRXUlKSDBkyREaNGiXDhg3TrEgDrGgQcO4E2ZgxYzTmzC6uhg8frkIPY57miwMEWefOna09EsgglhDinGUvAh9/u5awkC3/42IpV7u8dJncS+PQtk7b4OrPmRYeKhHpmbptJyMsROJ6NJQb/uEM0rcDC9nAVfHSoVYZmdP1Eh37y8bf5JODZ+TJllVzdBwoLLCOmeD/K/98je4jQeB/D/1Hx3zFhbie5z6apOUyYro/rBmaiC07/9U8kZSzUva20dZROYHbEkVlTe0yWMq+3nNIJg/uzVIZhQTeMLuRhThEVQne115xWeKiwGIFd6UBFrMdO3ZoYD+yIOHS3L59uzXr5MSJE2pNcwcC9hG4b8BzwJqG+jXA03xxwYvJJfAXXsvgWfztWpa/pKKW2kCNs6gK0ToWd0N9LVYbEhriRow5f/OGZWTJr6v25zkflo61y2kXAWRymjHTIP2/P5x0ja07dl5e3vq7a7+gpWKZirpOTE50bJfXv6FiTHnXPMbN9sVcgLvxkiymXEaZa2/T/ZQdX8r55TPk/JdzJckhzHIfj6VS2Rhpfmkt3V6/+6D89d0V6sp8/fONeY7l4n65ENcy0JeS4LUYMvzimTNnjgojLDNmzNCsRxR/BXBbIqZs3rx5KtYQO4ZSGca1iQKvCPTHY0Hbtm1l586druOXLFmi5zMWNk/zhBBysUDWJnpxZmVmucm0tG5cjiU9OUMW3PiWltzwhCmt0b9BRd1HvNmAlYe1rZM9IcDEoeUHrGRvPDzdsUzTWDOAwH9kZtb+v4a6HWxENnAW1XUmBHguXAormbGK1a1ivd4M/CcXmbDnHFjbJQLuw59//lnmzp2rrr/q1aurm7JsWWeNHgi28uXLy4oVKzT4H7FlEGu33HKLzqOuGEpkNGnSROLi4nQJDw+XVatW6fGoaTZgwAC1tAFP88XhwIEDUq+es2EtCWxgfUXWbUl/sRDfEyjXMrJClOx84zvJTDdRIFjn/JtDHD+BUxNT5cyBU9Lg9sYSFhVuzeTlxjrltCBtm+pldD8lI0um7zqha9Q+wzwsaN0//lmTATrULCNxtj6fdqpXqCYNataXqAhnZvr3P2+R9779QLevqtdSml3SRLcvBhfjeoY6hFiZTv0lqlkXiajXQsfQBeD07L9ISHikYyxnCaboiHAZeUt76duhpatp+VurvpMXFqyU7/bHa4amcW2SbBISEoodL0Xy4je9LGHlmjBhgowdO1ZdnL6ArZOCB1ha2TopOAika7lm7Ao5sGyvZKbljSELjQiVSvVj5Wx8omZxojYaQLYmMjhRhsNkd+YHsjNPp2RI8yrRWgvN3tYJ4g0FbGExg3A7nZqp+/lhqv0jUxNWNGRmYuymFt0vaGsmX13PovbJRD/Mbs++rpazWSP+4BJqJBu2TvIuXnFZegO0XurUqZPPxBghhJSUtk92lIiykSq+gJEcoQ7xFB4dLj1ev11rnxkxhrpnppyGva3Tvg9/0ESB3DSPjVbrmOkYgG3017S3dULHALg1p+9M0CU/4L7EYgL/Z65+S92X9nIZWKP4bDCUz0CcGVyYMR2zM/NR8d9dcVkAi9je/zwhi568zyXGEPgPNyYhFwK/EWRotWTizQghJBCJqhwtdywZKPV6NnQIsDB1WobHhEtc18vkzqX367wdZGii9hli0K4c2FLHUPds3TNfyBZkbtpEWX5tndDsHMkApmOAaeUE0QYBB2A1gzUNLs78uKetsxE7MjGNSBs8Y5j2z0Q3gEAH2Zeo+m/6ZKJmGar9//5C73zbMME6ZlyV6348oPFkqF9GUUYuBH4jyAghJBiA6Oo4obsM2PSoZmMO2PiIdJ54Ux4xZkCD9N4L+rrcleXqODMi7RSlrROEGTI20dbJiDPEmMG1ieKz+QEhduTfezX4vyCcVrSpAW81yzi6R9d2Cxm2YTVzR5zVFxMi7for4nSbEG9CQUYIIRcIlMIoKrCawa2Jshoth7XVMXdtnQrCbh3LjcnKhDuzxft7tbxGfrwxZJq8OnCCLBg5xxoRuUvbMk1xxaAFKqbif3lbxX8E/ps+mblBYH9uFyYsZWhazmr/xBtQkBFCiJ8BUWZ6bAJYz3K3dTq2MV5bOG182X0PYTsI7kes2TvdLnHFnyHwHy7MCVvyF3hwXd573V3aQxPkZxXDeKBZzBBPVrbnEJcLE6TF57Wa2bG7MMEMhxBDeYwZK/LG+xFSVCjICCEkAIBrE5mYEGsASQCwnKGmmbGeYY2EgNzxZhBhiDUzLkyAJACM33JpthVPXZufHtR4M3dAoC0cNUcWOJbcNc0aP3F1oWqaHT1TtH6dF5MKfZ9VgYYEAMPpN8fIb6Ov1k4AuXm8TycVaU841gZkZ0KkFYVDv+dvpSSlBwoyQggJQJAEAHEGi5kRaatGLtWEgCV3z9f9gkCZDMSamdIYWi5jZ4KsPXZO5u4/rWMgd+HZppdcqY3MTeD/jsO7XNYxbLvjxNmT8sgbo6T+Y82l75sPSoMxLWTEW4/ruD+BkhhwYUY1d5Y/gqXMCLHUnXkF2dAe16obE/XLwLtrt8odL8+Wa56Yqm2ZCuLE2fPy0LSFcunQCXo81sNmfKjjpHRCQUYIIQEIXJqINYPVrCDg0pzX7nW1nBWE01pW3rmu60wsgEuzxfv7pNKbu7QGmjvg0ny46yAZc/NI6dXS2acTNc2Qmfn6qlkqujqO7yHLtn0hSWnOcySlJsvHmz/TcX8TZXbg1izTub8KtcimnmtU7vzlV7WOYSnI6gXR1e6pabJs827Ha4HM1xBdL9m4S8cpykonXqvUHwywUn/wwEr9wQOvZeGBtSymahm5+k/ttHMA+PyRjyQjNUPOHUmUK+5ppmP5cddlFeWxFlWlUSXnY9cePS9z9zmFRaOKkdo1ABaz7h8fkA9+PuOqida1SSe1mplOAM9+8Hf52iHKVv+wRg4cPyD7fz0gyZYYM2RkZkimYzly6pjc3KqHNep/RDa+XmKuv0vCazjvDabif2j5KhLhEGp2ujWv79BWIdKr9RVyx7XO19pYytANwDBi5key98jvjtck3RpxkpGZJRkZWXLkxBm55erG1qj/wkr93oUWMkIICRLgukTwvz270+ybOmcA9c3cFZ7NjRacbVpF1+itCVB4FtYyuDbzizVr18CZHXrvdXfKKocoO5+abfHJisruHpCakSafbFlm7QUGaFgOV2bSmnnWSE4QTwZXJkDtMlT7Ryam3YW5Yutex2viviZcWkaGfPxd8PUXJZ6hICOEkCAGyQCoh9bg9it1H9mZKDqbu/CsvbSGHcSYofAsLGEA4gy1zjrULKstnAAEGpIBTMYmXJioafZYrxHqnswKKydZ0XUlvfrNktRshpxv/Z6kXvaYZIVXUMvZsdO/6eMCAbgwUSbDVPxXcbZhiS65+eX3064A/3U/OltcwZVp3JTuCZHk1HQ5dsp9picJXijICCGkFFGutjM+DNa0GlZpDcSXLXtwkRafRRHagoAw2/aHhlp41tQ6QwkNWMzQssmeBBBX5RKJjK4umRVbS0jyLxL+21IJyTjnuPNESXrF6yW56TSJjKkuNStWtx7h/yADs8ozS1zlMpK3r5bEd5/TJXXfJh0zINgf1rInbu8sva5yujeRlRkVAXGbXxvpLImODJealfIWCCbBDQUZIYSUIuC+NIVnTa0zWMbM4qkTgDv616+oa1jNDLCaIWuzfLNnJC22m45llrlM1yA0JV5CT30tFa+4cI3M/YHx/XqoGxNCDNYyZFSmpGVIeGj27feSsGyXbkRYmPRoyYbdpZGQLAfWdqln9erV0qWL50wa4v/s3btXGjRowEDwIIDX8uKAbMyytcupaxPWM9Q3+2HONrlyYAuNQysMsI4Z1ya6ACBLE7ojM1OH1DqWFeYUbTE7HpaQlN8kK/Y6Ofq32ToWqKA0RlhsLc3GBHBfZp48qoVn7SCO7GqHIAOVokLkrxEbpVP4UYkOyZDkrDBZmV5H/p11tSyfMFpiy5XR4/yZPXv2SKNGFI/eghYyQgghGmsG4WVqmu1f/KO6LwvTCcBgxJidTNtP/qxwy4JmG8P80fPObMNA7Y+JumVGjKEXJtyX55a95lhm6JgB7ZdgMXv85mvlvUrrpGvkUUl13IYTsyJUlHWPjJelFb+QSiGp1iNIaYKCjBBCSB7q92nsyto0FLamGfi4Vz2Z1qG2RIfaLJtGiDmGkhu+ICn1Rkro5aOkVplw+SXhsNYuq/1/DbWOWaBi+mLmB2LKhiatlNpyRiKyMmTU2Wul3albZGVaLd2X1CQ5++FE62hSmqAgI4QQkgcIMcSawXJmMG2aYD0zIGvTXQkNZGKiVEafehUkwiXKQiQy3SE6HMIM5S9Cq90otStW1pZNaLv0S0K8HlWYFkz+CorJVntxtcSOmetyWcKFmfBCby2ZAVJ3rnH8L1nOZEXIxvSqOvZhSpyuJSNNUrZ94dwmpQoWhrXBwrDBA4uJBg+8lv5DWmKqJCWc15pmsY2rqUtz2YMfSvy6Q1p4Nq6bs/G5netrlJX3t/wmdy/dKQM+2yU3rT8gN246KLVOnJf9l1WRo6mZsul4kgxq2VwqhSdL9YrV5PGbR2iRWQizYW8+JqeTzsjVlxUujs0fCHH87aEVnEILJL77vGT8dkAyjh+UqAZt5Pzad7XoRVRIptQOdQb0jy2zXcqHpMnRzDLydlI9ORpZQ5rXt0San8LCsN6FFjJCCCGFIndNM9MNAJhyGsBe06xcUpo8/eY30mz/7xKRlqlCBOuWe36TwZ86e18i9qxiVJg2LH/1gany8eFMTQiY+OlUdV8+u/DFgI0vA9HX3KqWs8gGV0tY7YYq2Iz39vaoQzKl3LcuYbYoNU6mJTWWUXNXeeyHSYILCjJCCCHFAjFmvRfcqyU0Wg5zVufPXdPsmxdWS2ZquoSlO1MtjRDB/uU//S5LdsfLtj80cNU0G7b2iC63fnrAVfH/ppbdXc3MAxEUk4UbE43LQXhc/i2sGkc4ux+gTEYFx0JKDxRkhBBCig3qmpl6ZiB3TbPDXx2Q9KScPRsNmWmZcujzfTmyM0+nWDUyHKDi/4+vfKdWMwAr2WNznpSJS537gUpkI2drJYPLGR8eKTeUPSUbn39ANr0ywlW77JXFX8m7a7daB5FghYKMEEKI10AyQKthbdW9Wb5uBUuMGbtYTiBE0pMz5Pxv2T0x37nhEm3XhCxNgLplA744LJXe3CXPLFss87/5wCHIpgR0JmbZ7n90Niy/pImERETqqwM3ZlSzzlLl6Q/l0rg4FWMAQuyVD7+Ukf/7iC7MIIeCjBBCiFeB+xLCrHKjqhIeDeuX+4QMCBHMl6meXeEf1jI0NEeWJkAsGdoygTNlWui66SVXSjPHAmA1m//NwoCLMSt/918kdvRsqfby11L5/2aqdSxlywrJPPWrdYQTI8yA6YtJghMKMkIIIReMuBsbSEiYEWQ5hVlIaIhc0jm7nZI7EFsGgYam5n+7vok2LX9z2Nvy0vYkLZdx1+SB8ticsboOVDLPndYm5SB133e6NqAf5qIn75OVzz8szeJq6ti6Hw/QhRmEUJARQgi5YLR9sqMG/4dG4HaTlUOSZWVmSVRFz4HrcGG+062uy2o256c07ZOJJbOcM0C+YgAH/aPSPwL/sTZNyyHQjEhr37ieS4x9+v1uuePl2erCpCgLLijICCGEXDCiKkfLHUsGSr2eDdU9qW7KmHAJDXfefmKqZvdstJfLKIgONZyPgfVs6t2PyqsDJ8jf7n1J5u49JYfPnJLPtq7Qyv+BRLk+Y6TigxO1PAaE2MlpQ+X40120T6adCmWyS43Y3Zkk8GFzcRtsLh48sCF18MBrGVzsWLdNml7fXAvJnnUsJkMT5TJM30yU0kD2pifszcw7Lv5Jtp9IlnJyVjK/GyB1q9SRb5/PKWYCBQgyiDEAqxmEmh1YyepWreiymvkKNhf3LrSQEUIIuWhEVY/Rde5yGRBoplwGhFphsJfLMNshGc4EgNPnE1WwBSKwksFiBjGGtcG4MHtddYVLjO04dEzuePltLY1BAhsKMkIIIT4HmZmmXIYRauidubDn24VqZj6tY21tZr7s9lYy5uaR8u+hc9RqhnIZt73+ojYthyszUEBMGSxjpln56TfHuHVhQoit+/GglsZgFmZgQ0FGCCHELzDlMgw/zNmm1f63Tt9ojeSPaWbepGplhyAbIdFl47RkBlh/IlzXy7Z/rutAA5YxI8SS1jgblBv6tm+p6/aNL2VMWYBDQUYIIcQvuXJgC3VtNujT2BpxxpptnbbB2sufDrXKytjW1bRcxn2XR2rtssYNesmAlb9ouYxAAi5MtF3SLMyO/a1RJ3Bf/vbmOJk14h7dR/FYZGCOm7dc90ngwKB+GwzqDx4YCB488FoGFyW5nsjCXHL3u7oN96bpn1lYIMRQKgPEHnhRXup1p9x73V26H2icWzZDzn81V8r2GKLuTQOE2GvLnV0MUL8MJTMuFAzq9y60kBFCCAkIytUpb23lpLDlMm6pW07Xoed/lqRTO2Xm6rfUrYlyGYGWAAAxBldm8qaPrREnN7V2CiQE/fs6C5MUDa9ZyI4fPy4LFiyQjRs3SnJystSvX1/uvPNOad26tXVENps3b5ZXXnlFevToIYMGDbJG87J48WJZvny5nDx50u35PM0XFVrIggdaVYIHXsvgoqTXU7Mw4xMltnFV3YcLc90zX2jx2cKWyxi74B+yavtSGd1rhPz719ZaLqNDzbLyca9LrSP8n6QNS+Ts4omahWmKydpBgL9pTj5jxQapW6WiVv33JrSQeRevWchmz54t+/btkxEjRsjzzz8vlStXlqlTp6pQy80HH3xgbeXP2rVrZf78+dKhQweZPHmynm/mzJnWrOd5QgghwQeElxFj4ORupwvSWTIjVbc9MeHuP2uNMru7csP+7+T1VbN0e+3RczJhS957lz8BEVbtxdUuMXb+y7mahYk1MAH+EGNsTh4YeEWQQXRt2rRJevbsqRaqhg0byujRoyUmJkY+/zxnVgssWidOnFCLVkFs2LBBmjZtKv369ZNq1apJ79691RIGIVaYeUIIIcFPy2FtXOUyjFA7tjFel8Lwzg11pdbvb0vY3r/JzNWz1IU5YOVhmbD5uAxbe8Q6yv9JWjNPXZhmbWhWt4aumYHp/3hFkO3evVvXcEHaadasmezatcvacwo3uBkhojwRHx8vdepkFw2EyIMVDFY44GmeEEJI8AOLmb1cBuLJlj24SJfC1C9DuYzR1zTWwrL3XHuXY519W3xv3WyZ/81C3YZb05/jzGI69tNszMgGV+vagCxM05y8btVK6sJ8YOp70nD4K9qknPgPXhFkNWo4Fbgn69Qnn3wisbGx6mb0xNGjRyUqKrtnF8BjDZ7mCSGEkMLwcNdB8uMr32n9MgizT3tWl+jdT0vEkXny/reL5JODiXLrpwelxfv7XLXN/A1kWsKFifIYIHXfJjkxsb9mYyLTEmIMnHEIMrRegjCbv26bjhH/wCuCDNapWrVqyaJFizRgH0Gbs2bNkjVr1lhHOAM5v/rqK7n//vutEc/UrVvX2nKPp3lCCCGlC7gtu06+WV2YcTdcrmOwlKHiPyr/FwYUlx3a5hqJq1RJHurygEOEpap1DMv2hMCohg/XZXr8bocgey2HCxPCbGiPazUD8972LaxR4g94NctyypQpsn//fomOjpY2bdro+JEjR2T8+PHy4osvqgXr0Ucf1fFx48ZpHFl+WZb9+/fXuDC7e9P+GE/zxQFZlrVrO9tUEEIICQ62jflazv3sFCXtPsgZWlNYHvr6B4n/9XsZ0rC23NG0qySmZ0n5cP/N/I34eZOUXTZR0mtfKWdv+6s16p7Nh36To6fOyc0tLrNGSHGpUqWKLsXhghaGnTRpkiQlJUnnzp1l2rRpKpTKlCmjc7CmIQasbdu2bl2YY8aMkebNm+cQV8OHD1ehhzFP88UBggx/Kwl8EEsIcc5SCYEPr2Vw4YvrCcvYpn+s0ziza/7cXscOffGTnNz9e6GLy173XFf5JSFeK/7PHL5AOn30s1rMvrrtMmke6/8B82ot+2iShNe5QsreNtoaFXVfDvr3+7o9eXDvIpXGgOcLHjKSTUne115xWeKiwGIFd6UBFrMdO3ZoYL8JtIcbE8IMC2LAkJmJbXdArCFw34DnQBYl6tcAT/PFBS8ml8BfeC2DZ+G1DK7FF9ez6f2t5YEd/6duTOyfO5Io68et1B6ZEGq5j3e33NSiu9StUkfuufZO2XEixRXgv+7YebfH+9uS8t0nkrrvOy2LkXFkT445Q1y1SjnGPS3A3XhpXkqC12LI8Itnzpw5KoywzJgxQ7Me+/TpoxaruXPn5lhwPLIysQ1QDmPw4MH6WADL2c6dO2XevHkq7pYsWaLnM9Y0T/OEEEKIOyIrZCeERZaPtLYK5vm7ntbaZUgAQH/MG2JPSrmkrZJ2bKnOIwsTgf/+Wr8ssqnT+wMLWVisMzQHsWU96pWXt0bco1mYps0Ssi+ZgXnx8YogAyNHjlSr1bPPPqsLGDt2rK4LQ0JCglb4//VXZ9NXCKt7771XMzdHjRql1q+HHnpI54CneUIIIcQdpqp/zzfvcLksUbds48trtWxGYTjzw8uSueuv8s5X/5MzSWdUiK09dk7rl/ljeYzIBtdI9UnfSeyYuVoWA2Ls9xd6S4Jj6RZx1NVmacehY3LHy7N1eXftVh0jFwe/aS4OK9eECRNUxKHQqy9g66TgAZZWttsJDngtgwt/vZ7z2r2u1f5rtqmjQs0TqOo/celU6dXyRnl14MtaGmPAyl9ytGByZmZmaq0zfyPjxBEVY6Bsz6GOZYhuQ5B1e/Z13X7i9s7yRJ9Ouu0Otk7yLl6zkJUUtF7q1KmTz8QYIYSQ0otpXB7bOPsehHIZW6dtsPZyYmqXQYyByqm75MYzf5d2mU4XJsQY6pa1eH+virWCOOiD2mZwW6IPJsRYmU7OagWwmjWtVlZdmOP79ZAh3QuX8EC8g99YyPwBWsiCB1pVggdey+DCn68n3JUQZnBpYnvJ3e/qOLIzkRBQEINfHyafbV2h2xBqpzJiVIyBsa2rydhWOY0NCckZ8vg3R+WzX85KUnqmxISHym2Xlpe/t60pVaLDrKMuHhBjJ6cN1WzMig9OlKjmznshLGafbt4jFWKitH6ZHVrIvIvfWMgIIYQQX4KishBjwFjMQGEC/+9p63RzXt/wWod4qaBuypfa1lAx1r+Bs0o+rGZz956SnxNTpc0H+2TpwUQVYwDrD38+o+MQa74AYgwkb1qia2Cak4+bt5zNyS8wFGSEEEJILiDM+n39cI7A/4Iq/t/Usrsc+fdeeWOIs5TTLwmHZeP6cZK0f4YrhgxZmGhY3v3jA5KcniUpmTkdVNhPTMuUv2w4Zo1cPBDoj7ZLsIzBlWno1foKXaM5eQU2KL+gUJARQgghboAoQ5C/4Yc5W+Vs/BnHepsmALgD1jEwc/Vb6sJE8P/6vd/qmOFESoacz3BaxnKT5hBliw+csfYuLjFte6u70pTFOP3mGLl6Tn/ZfF8j2fTKCBVl6IH5yuKvmIF5AaAgI4QQQgpB/T6NXSLNuDYRa+ZOnPVscaOuUdm/mWMB79xQV8a3qSGZ7kK3bUPJGVly9Hy6tecbEFOWsn21bpf98QsVY8C4MEf+7yM5dvqcjhHvQEFGCCGEFAIE98ON2f6FG3Qf7ZeWPbhIFvZ4Wy1ndhBLBhfmwlFz1GqGWmXvf/VfqX52tYSJJbbsusyW5ID5WmXCrT3fABdmmc79tZBsTMf+1qhIs7o1dG0EGvEeFGSEEEJIMTh75Ixax7DkV1DWuDBfX/WWTFw6RR6bM1bCj3/mEGMOUWY0mK4tdeYYDzu90bntYxBLhkKyJuPy7OKJ0nbp47L+nsu0sn/NimV1nHgHCjJCCCGkGMBihqXVsLZSs60z1iy/2LKmdRrrulx0OQmNnychGUlOUQaMpSwjVcVZasV28s4Ph61B/wEuTBSUjd21VOpWdWaOvrb8W2k4/BVdk5JBQUYIIYQUE9QnQxYmYsrgtlxy93x5q9m/tRWTHWRhrhj7kXzx1BKJCU2X6J2PSuThWRIGaxnITJGws9scG05X5boE/7s9w1KGgP/oa261RpwxZQj0x5qUDAoyQgghxAvAbWliyU78mLfJOAL861a5RG5p1VMiMs5L+G9LJOrQdInZNkjKbL5HovaNl6jjn0gdOSD961e0HuWsX+YPwIVZ5ZklGlsGQhOPyxPX1tJ4sr4dWuoYKT4UZIQQQogXiLvhcnVhYt3gdmdmpYkxs/P8XU9LZGR2sdmQtJO6jgqPktjj82TNH9pJh1rO+CzULUMLpuk7E3TfX4DrsvyCp6Tb+pdk2wONXT0vUdkf7ktYzUjRoCAjhBBCvARcmF0n36wuTAgxZGGicTkyMg2x5SrLhue/lHYN2kpUhLN8RkxEtFx9eSv5133/0HlgKvvret9pHfMnQlKcZS8yTx7VNbjj5dla1R9lMUjRoCAjhBBCLhAm+3L/Rz/q2gDRtfBP78jPr+6Q1Y98IrOHzZT1e76VB2c8KvO/WajHVIwMk2kdakvz2Gh5tEmsjhmRhsWXIJYs6fr78zQnN9X8WRaj6FCQEUIIIRcAWMlQswwuzDZ/djYnR4zZ1mkbZNtrm+TLMZ/JO23+K1/3XS6fP+LeotS/YSVZ0+dyXQMIMbgxsWw/4Vu3YEqLXg5BNkRrlsGFeWJif/k0Y5a8fVsjGd+vhx4D1yXdl4WDgowQQgi5QCCWDC7McnWc9cjQdmmLQ5BtnvqNHFr5k6QnpWsZskt/rSX3/3ib9D10s3S71BmPhX6YOw//oNsGWM0Mp1P8I9gfQJBhAR1CD7ssZIOmvqdlMT793tm4nOQPBRkhhBBykahxjbNPJMhMc/azNGXIrjx2mbT+5Qr5cfIWFWPdJ/RxLLe5XJgAlrKPb7pUrWYm8B9Wswlb8mZ1XkwiG1yj7kuUxojp6HRhwjK27seDuv3uOva+9AQFGSGEEHKRgPsyLCrbypWNs2w/RNqhz/fpNtotgcOW5ckAIYa4MgC3JdyXEzYf97kog/vSNCdHPFn4mrflvRurSK+rrnBlYZL8oSAjhBBCLhKIIctIyXB1TcrGaSfDeHpyhlTJqKzlMcbcPFIe7vqAzrkjrlyEteXYLpu97WuSNiyRc8tekybf/U/+d2dLaRZX07KYHZB319Ja5g4KMkIIIeQigViy8OiwHH3F7WAc82Wql3UIsUEOQTbC1Zz82YUv6mIHMWUHB1yRI/B/7dFzPreWIdA/N+t/PKhlMVASg6IsLxRkhBBCyEUk7sYGEhrh/vaL8Qr1Kmsmpp3533wgr6+apcv6vTn7RkKUGRfmobNpMmDlYXVhwpXpK2La9pZKw17T5uThda7QsTInDkiFkDTdrls1uxMBcUJBRgghhFxE2j7ZUSLKRrpEmXFfhjqEVWhEmNYuQyamXZSh7RKAtaxurLORuTsqRmbf1u3uTF+AQH8jxuDCbLLqJfmq+mr5csxt0r5xPR0n2VCQEUIIIReRqMrRcseSgVKvZ0OX+zI8Jlziul4mvWbdqceghlmNNtnC6/qG18qRf++VDX9bpf0w4cKcuHRqjgxMAGsZ3JfIxBzbqpqOwYXZcfFPPm2/hGr+Guifek7qRzutZGiz1O3Z17XVEnEI8ywH1napZ/Xq1dKlSxdrjwQye/fulQYNGkhISN7QWRJY8FoGF7yeeUGgv6lTBtBy6Wx8osQ2rqr7+z78Qc4dSZSWw9rqPoDr0sSTrRj7kcuC5o4BK3+RTw4m6jbizey1zErCnj17pFGjRtaeZ84tmyEh0eVczckfmPqeqz7Z3v88Ueqr+9NCRgghhPgQuxgDsI4ZMQb35bpnvlAX5saX1+oYqOAmaD4/OtQoo+tbLi3vEmOwmmG5mKAshhFj6fG75cnTH8h9Ufu1LAZbLVGQEUIIIX5LuTrlVaCByPKRugb3XneXLBg1J4d1DMH+uV2Y4NGmVeTUg03knW51dR+1y2797KAuvuqJeW75DKl6Yq88WWa7zHqolzXqLCZbWqEgI4QQQvwUiLHeC+6Vnm/e4XJZwmqGgP9rarZyibHPtq6QuycPlMfmjHUryvyNiMuv1jUq+5sSGXBhluY2SxRkhBBCiB8Dl2ZNW4D/sgcX5XVhlsl2e1aMyekCzQ1KZMBa9lLbGurGBKdTMy5qs3K4Lqu9uFor+wMtGrt5h26X1jZLFGSEEEJIgICAf4NxZQJkYb7x8DR1Y97Usrs1mj8QYnBlIqYMYqzF+/s0E9ME/18MchSPnf+0rK/0iYxrmCpDureVQ7/7xpXqSyjICCGEkAABIgzuS6cLs42OIUsTmZjdLu+kwgzsPPyDujCRjemJ06mZKsrA9pMXP4YL5TBStq/W7U6J30n/V9+Va56YKpcOnSDDZnwoJ86e17lgh4KMEEIICSCQgQkXprGQrRq1VDMxV41cqvtg4qdTNcgfpTFMk/L8QAFZuC/Htq4mjzaJ1TEINCPSLjSwlIXe8RdZk3WJ/PPU5ZKUmiaXhCXpesnGXdLuqWmlQpRRkBFCCCFBRrsGzgQAuC9R3d8TcF+ikKxxYd766UG59J3dF82FOXa7yPikq6R72CHZVGmJfFZhma6fj9og4cln5Zm5y60jgxcKMkIIISSA6Tr5Zmn/wg3SdcrNuo84s66nr5XvH/tS48oMnixldkyA/9z9FyeWa+O2HfJe9GfSNeKoRIdkaDsprLtHxMuisstk7fdbnAcGMWHPObC2S8Tx48fl7bfflunTp8v8+fNly5YtUrlyZalVq5Zr/rXXXpPXX39d51euXCkRERFSv359nXfH4sWLZerUqfLOO+/kOR/wNF9UDhw4IPXqsb9WMHDixAmJjY1lNfAggNcyuOD19D6RFaIktnE1CYsK1/1vxn+pZTF+XRMvTe5rqWODXx8mf5r9pFwSW0eaXdJEx/IjOixU0BMzOjxUXmpb01VMFpYzzBkSEhKkSpUq1l7xQQB/7a+myeVhiRITkmmNOgkPyZJQyZJqcl5qXX+LlIvOTmQINrxmIZs9e7bs27dPRowYIc8//7yKI4glCDEzv3//funbt68MGzZMOnToILNmzdI2Gu5Yu3atCjccN3nyZD3fzJkzrVnP84QQQkhpBEH+dmAZQ50yMHP1W7r2BFyYKI1hGpSj/dKFcmHGVa0kXSKOSZkQ9zFrkQ6R1j3yiNSsVPjuBIGIVwQZRNemTZukZ8+e0rp1a2nYsKGMHj1aYmJi5PPPP9djduzYIT169NAFIqpfv34qotatW6fzudmwYYM0bdpUj6tWrZr07t1bTp48qUKsMPOEEEJIaQSuyzZPdpCeb9yu+4ghe3XgBI0nG9NrhI79knDYbXNyd8AyZoTYhC1OI4s3yTxxxOWmdAfGoyRDMs94/7n9Ca8Ist27nVV1IbbsNGvWTHbt2qXbb7zxhvTp00e3DdHR+feuio+Plzp1sgvhQeRBwMEKBzzNE0IIIaURZF82ua+Vq0cm3JeZj52Qx6OHuGqUvfftIocgm6KV/SHOCgIuy2kdamvtMgT+e5vQ2NoiEVGSZe3nRscd86EVvP/c/oRXBFmNGjV0XRTrFFyVR48e1a7/7sBcVFROXzHiDgye5gkhhBAismv2Vg30/2HONmtEpGmdxrqG9ayircp/fvRvWEldmKayPyxlN3ybIdN3Juh+SYlucYNImNM9mgfHeFTTTtZO8OIVQQbrFILpFy1aJJs3b1axhfiwNWvWWEfkBQkACOiH+zI/6tZ1NkLND0/zhBBCSGkH7ktYzVo+6iwkC3FWa11F+fC6t2TD31YVqixGbqbvPCGJ6VkyfdcJa6RklLt9jIRElXGJMpf7MjxSQiKipfxdY62B4CUky4G1XSIQRzZlyhQN3Icrsk0b54U/cuSIjB8/XrcNkyZNUpfj2LFjNf7LHf3799e4MMSIGcaNG6cibtCgQR7ni8Pq1auldu3a1h4hhBASfBz9+KAceMMZanTVfztKVPUYmfXtXFmwZbEMura/3N0qZ3iROz7+NVNePZAlj9ULkVtreCc/MCQ5UWLWvS2RP28QSU91iLEoSb20tSR1HCxZ0YER0I+s0+JmnnpNkLkDwispKUmefvppa6RwYgyMGTNGmjdvnkNcDR8+XIUexjzNFwcIss6dO1t7JJBBLCHEOVPrAx9ey+CC19P3oM3S+nErdfvW9+/Vyv9X/vkazcasW6WOfPPcKp3zBLxh8JCBuXtPyV82/iZPtqyiGZolBYH+GlsWYJTkfe0VWYuLAosV3JUGWMyQWYnAfkNhxRhAwD6ONeA5kEVpYs48zRcXvJhcAn/htQyehdcyuBZeT98vDe9oor0wey/oK1WurKZjjzccJu0TrpLRvUbkOT6/xX4tX976u2Zj/veHk3ImLTPHccVZwhzC0N24vy8lwWsxZPjFM2fOHBVGWGbMmKFZjyazEmIMAg2lMZCViQQALEbELV++XAYPHqyPBW3btpWdO3fKvHnzVNwtWbJEz2dizjzNE0IIIcQ96IUJyxg49MVPEjElSW7d3lGuPuYsGgtrGRqUFxb0wEQ2ZodaZV2FZEnR8FqlfrgPf/75Z5k7d666/qpXry6jRo2SsmXLqvBCVf309HStqL9x40bX8uuvv0q3bt20rhhKZDRp0kTi4uJ0CQ8Pl1WrVmmyAGqaDRgwwFWJ39N8cWCl/uCB1cCDB17L4ILX0/84/fNJOfCZ0xjSoM+VElIrTNr+tavMXD1Lmta5UhrUdN9Rx16pv031MvJYi6pyS5wz1mvt0XMyYOVhScnI1DnimQsaQ1YUYOWaMGFCodyZFwoIyS5dulh7JJCBpRXua37pBz68lsEFr6d/AisZ6pbBaoa6ZNc+21XHx9w80rE4i8nmZs+ePdKoUSNrLyeo7G+KyR4ccAWtZoXAO6kRXgCtlTp16uQzMUYIIYSUVuJuuNzlwix7PFr+Hj9axkWMlIe7PqBjcGEWpTl5hxpOqxjqllGMFQ6/EWRotZS7kj8hhBBCLi5bp2+QkL0ZUmZFiESnR6kQ6z7hNmn8xNWunpieQKblqQebaDFZgIB/ZGJiTdzjN4KMEEIIIb6n/m3OKv4I/EdBWfBLgrOqwXsbFum6qAz44rAMW3tEOi7+yRohuaEgI4QQQogLuC8f2PF/2qQcpB9MlRdinpAHIu6W5+/8i44R70NBRgghhJA8GOvYD3O2StinqdJ4RR2pnFxBXZjzv1kon+4qnPsSvHPDJdqg/ONerGSQHxRkhBBCCMmXul0v0zUEWmSFKPl06wp5bM5Yefnzf8n6vd/qnCcQ2I8G5XHlnL0q4b689J3dGldGnFCQEUIIISRf4MK8a9n9ctfy+11Ws5JiAvy91Zw8GKAgI4QQQkiBoEaZEWOXf1lDXt44RqZWHy/XN7xWx4oK3JfNY6O1wj9xQkFGCCGEkEKD5uSZ59Ila2OK7iOeDGUxXl81S/cLA9yXa/pcrmswfWeCujCxBgfPpum6NEFBRgghhJBC0+bJDmotq3lLnO6//+0i7Xv57MIXi1Q81s6ELc7m5OO//01qzf5RWr6/V9dDv4qXhOTSUbuMgowQQgghhabB7VdKv68flurd6uh+rxOd5Nm1j8j/hd0vFWIq6FhRGdEsVkIc/6VkZElSeqaOYf3hz2ekzQf7SoUooyAjhBBCSLGp9E20VvS/4sdLJTUxpchtlsDOkykSExYiDj2Wg5TMLElMy5S/bDhmjQQvFGSEEEIIKTZXDmyhLsy4bpfrevCMYUVqswQ+++WsnM9wWsZyk+YQZYsPFM8VGkhQkBFCCCGk2DS5r5W6MBFbBsvY9z9skcrJ5QvdZgkB/MZNmR/JGVly9Hy6tRecUJARQgghxCvAdfncd8Pkz98MlkdiBlqjBXNpuQiJDgux9tyD+Vplwq294ISCjBBCCCFeIyvJae0Kic9Uixmq+aM0RkH0qVdBIkLdizKM94orb+0FLxRkhBBCCPEKiCGD6xKZmIgtW7/nW7l78kB5atazBcaU/b1tTSkfEZpHlEU59suEh8g/r6tljQQvFGSEEEII8RqIKWv/wg1a3f900hl5eMtdWhYjdHv+pSuqRIfJxjsbyJ2XVXC5L2PCQ+XmS8vL93c11Plgh4KMEEIIIReEO5reKpefukS3IzYWHLgP0fVapzpy7P4rZesfGsrR+xrLm10uKRViDFCQEUIIIeSCABcmrGVoUN7y0bYaT1aYNksI9C9tUJARQggh5IKBeLKuk2+W2MZVZebqtyRpR6J89J8Pit1mKVihICOEEELIRaH9uas0puzuH3vIb8virVECKMgIIYQQclHo3rybteV0Z5JsKMgIIYQQclFALBncl70X9JXEK1Jk4tKpHuPJSgsUZIQQQgi5aECUOePJZsnc9+ZJwlM/y/r/rrZmSy8UZIQQQgi56PRsfqPcePBaqXW2muz99w5JTUyxZkTOxpe+gH8KMkIIIYRcdG5q2V363NtHt2E1y0rPki/HfCbvtPmvLOz5tq7XjF0hKSeT9Zhgh4KMEEIIIT7h+ke6SL+vH5brn+smDzzyoDx47nFZF/u9oFZ/elK6HFi+Txb1nlMqRBkFGSGEEEJ8BrItv3lhtWyovF3+sLu7XBvfQrKsuczUDEk7lyobXl5jjQQvFGSEEEII8Sm/fPWz9NnbRZocr2+NZJOZlikHP99r7QUvFGSEEEII8RkI4M9IypDWvza2RnIC92VGcqac/+2ccyBIoSAjhBBCiM8oV6eCpIelu9yUucE45stUL+scCFIoyAghhBDiMw4lHJbtVfdJRmiGNZITjO+K/UmOnf7NGglOvCbIjh8/LtOnT5fBgwdL//79Zdy4cbJ582Zr1snixYtl+PDh+c7nxtPxRT0fIYQQQvyLuCqXyOeNN0hKWJpLlMFNCdJC0iUtNE2WNf1Galasbo0GJ14TZLNnz5Z9+/bJiBEj5Pnnn5fKlSvL1KlTVaiBtWvXyvz586VDhw4yefJknZ85c6bOucPT8UU9HyGEEEL8k65tO8m/r5sn26rtlXSHMIObMs2x/qHqTzKl3TzpcFU754FBjFcEGUTXpk2bpGfPntK6dWtp2LChjB49WmJiYuTzzz/XYzZs2CBNmzaVfv36SbVq1aR3795y8uRJFVbu8HR8Uc9HCCGEEP/k+bueFqkQKh82WynjOk6TV657U/7qWH/QcqVklsuSv9/znHVk8OIVQbZ7925d9+jRQ9eGZs2aya5du3Q7Pj5e6tSpo9sAog1WLVjV3OHp+KKejxBCCCH+SWy5yrJm3HLpfdXNEh0ZLSeiz0hMRLT0bHGDrHv2C50PdrwiyGrUqKHrgqxTR48elaioKGvPSWxsrLWVF0/HF/V8hBBCCPFfILqmPvBP+WnSdvnm+VWy/9Xt8t/Bk0uFGANeEWSwTtWqVUsWLVqkgfV79+6VWbNmyZo1OSvr1q1b19oqHJ6OL+r5CCGEEOL/INC/tBGS5cDaLhGII5syZYrs379foqOjpU2bNjp+5MgRGT9+vGZCIs4LMV8GZEbWr19fBg0aZI1k4+n4op6vMKxevVpq165t7RFCCCGEFJ4qVaroUhy8JsjcMWnSJElKSpKnn35axowZI82bN88hllCyAsLNnYDydHxRz1cYIMg6d+5s7ZFABrGEEOchISZ5mgQqvJbBBa9n8ABvGDxkJJuSvK+94rLERYHFyl4HDBazHTt2aGA/QAA+AvENeAyyIhs0aGCN5MTT8UU9X2HBi8kl8Bdey+BZeC2Da+H1DJ6F1zLvUhK8FkOGXzxz5sxRYYRlxowZmvXYp08fPaZt27ayc+dOmTdvnoq1JUuW6DzqiIHly5drUVk8Fng63tM8IYQQQkigEPacA2u7RMB9+PPPP8vcuXPV9Ve9enUZNWqUlC3r7D0VFxcn4eHhsmrVKg3+R42yAQMGaDIAQF0xlMho0qSJHuvpeE/zxeHAgQNSr149a48EMidOnNCs25L+YiG+h9cyuOD1DB4SEhKKHS9F8nJBY8iKAqxcEyZMkLFjx2qhV18AIdmlSxdrjwQysLTCfc0v/cCH1zK44PUMHvbs2SONGjWy9khJ8YrL0hug9VKnTp18JsYIIYQQQnyF3wgytFoy8WaEEEIIIaUJvxFkhBBCCCGlFQoyQgghhBAfQ0FGCCGEEOJjKMgIIYQQQnwMBRkhhBBCiI+hICOEEEII8TEUZIQQQgghPoaCjBBCCCHEx1CQEUIIIYT4GAoyQgghhBAfQ0FGCCGEEOJjKMgIIYQQQnwMBRkhhBBCiI+hICOEEEII8TEUZIQQQgghPoaCjBBCCCHEx1CQEUIIIYT4GAoyQgghhBAfQ0FGCCGEEOJjKMgIIYQQQnwMBRkhhBBCiI+hICOEEEII8TEUZIQQQgghPoaCjBBCCCHEx1CQEUIIIYT4GAoyQgghhBAfQ0FGCCGEEOJjKMgIIYQQQnwMBRkhhBBCiI+hICOEEEII8TEUZIQQQgghPiYky4G1XWJmzZolX331lSQnJ0utWrVk4MCB0rp1a2vW83xuFi9eLMuXL5eTJ09K/fr15c4778xxvKf5orJ69Wrp0qWLtUcCmb1790qDBg0kJCTEGiGBCq9lcMHrGTzs2bNHGjVqZO2RkuI1CxnEEcTW4MGDZfLkydK8eXOZOnWqHD9+vFDzuVm7dq3Mnz9fOnTooMdXrlxZZs6cac16nieEEEIICRS8Jsg2bdokbdq0UYFUrVo1GTRokFrCdu/eXaj53GzYsEGaNm0q/fr10+N79+6tljAIscLME0IIIYQECl4TZNHR0daWezzN5yY+Pl7q1Klj7Yk0bNhQrWD79u3TfU/zhBBCCCGBgtcEWefOnWXjxo1qoYIbctKkSRonBotYYeZzc/ToUYmKirL2nMTGxlpbnucJIYQQQgIFrwkyCKtmzZrJtGnTZNSoUeqi7NmzpzXred4ddevWtbbc42meEEIIISQQ8FqWJSxecCM+8sgj6j6EJeyNN96Qvn37So8ePTzO56Z///4aF4YYMcO4ceM0mxLxZ57mi8OWLVvk1KlT1h4hhBBCSOGpV6+eLsXBK4IMLkhYvYYNG5bDBTl9+nQ5cuSIjBw5ssD58ePHWyPZjBkzRjMx7eJq+PDhmhiAMU/zhBBCCCGBgtdclt4GAfuwqBlQuwZZlKhfAzzNE0IIIYQECl4RZCg7AVfhokWLZPPmzWoxQ90xBPFfc801HucBCryiRhmEFWjbtq3s3LlT5s2bp8cvWbJEsyiNhc3TPCGEEEJIoOC1GDKIotmzZ8uOHTu0vpgRRybGy9M8hBVEld2t6akSv6d5QgghhJBAwKutk0oCBNuECRNk7NixalEjhBBCCCkt+E0MGaxnnTp1ohgjhBBCSKnDbyxkhBBCCCGlFb/NsiSEEEIIKS1QkBFCCCGE+BgKMkIIIYQQH0NBRgghhBDiYyjICCGEEEJ8DAUZIYQQQoiPKbVlL9DCaerUqVr7zN6MfO3atTJt2jRrL5u5c+daW8SfQKeGZcuWydGjR3Ufrbjuu+8+Vz07FByeMWOGttmKjo7Oc72J/4DP5NKlS/VagdzdN2bNmqXX2w6OGT9+vLVH/Al7JxV0ZmnTpk2Ozx6u95w5c/Szi/k+ffpIjx49rFniT9ivFb5HmzVrluN7dty4cbJ//37dNuBa8ru2aIQ958DaLjVAdL322mvawglf6K1atbJmRA4dOiSHDx+W+++/X79AzBIXF2cdQfwF9D3917/+pTfsW2+9Va/Thg0b5Oeff5Z27drpMej+cObMGXniiSekUaNG8uGHH+p448aNdU38hxdeeEEiIiK0nRqu5YkTJ+SLL76QW265Ree3bNmiN+7bb7/d9bls2bKl1KpVS+eJ/4DvWAjo7t27y/Dhw6VixYryySef6Bw+e/ih9OKLL0qDBg3kySeflPT0dHnvvfekRYsWUqVKFT2O+Af2azV06FD9vl23bl2O79lVq1Zpy8Mbb7zR9dm88soreS2LSKlzWeJL4o033pC+fftaIzlJSEiQMmXK6JvLvhD/Y9OmTXqDfvTRR13XCRYwjAMINvxqGzhwoDRs2FDn8cvOzBP/Ab/AYUnBDyFzLXv37q1juLkDCLTY2FjXPBb2rvVP8MMIP3YhrmFFgbUEnz30Mgbr16/X9ejRo3Uex+GzjBs98S9wrWC8wLXC9yg+c/ieNdcS4LNZt27dHJ9NHEuKRqkTZO3bt1dBlp9p3JjXif+DL/H//Oc/1p6TmJgYa0v0Fxyw37Rxk8htWie+B9cIYQH2L/FKlSpZW0742QwccPPO7UpOSkpyfT6PHDkiderU0W0DP5v+CVzJuUN2zp8/n+O7Fp/NGjVqWHukuJQ6QVYY1Y4vDpjZ+/fvr2vEQpDAAL/a8MUO8KWPeAc7NKEHDvhljut3xRVXWCOiN+zBgwfrZ3PMmDFqWSP+D75Dce26du2q++4+m7B+Ev8HFmssuY0an3/+uX4uscDFCVcnKRrMsswFxBjMrw899JD+KoDpdf78+S63CfFfcI3gjuzZs6c1Inl+hZPAAF/muInDNWICh/GrHDz11FMyefJkvbZIzOEXv/+CzyRu0PgOxbW0W6v52Qw8cC2R9Fa7dm25/vrrdcx8/mDRxufy+eef13volClTdJwUHgqyXCAeaeLEia4vDrjFEDS8fft23Sf+CSwlcEXfe++9KqIN8fHx1hYJFPAFj2QMxBzZs7TwuTRxLBBpyPJCbAutZP4LPov4YYubNL5Dp0+fbs3wsxmI4FpCdMFdic8owGcR4yZeEJ9P/CiGRZQ/looGBVkhQJA/TOzEP8ENGZYSxDpgMeBXHG7YdpC0QfwXI8ZgPYH4KghjOeNn0/8xN+k1a9bovrvPJqwqxP8xP4ZQAiM/zxHumWD37t26JoWDgiwXMMnmrnUEVwm+QIj/kZ8YA5dddpmu7RYU/GozMWbEvyhIjBnXl/0Xt9nmZ9P/cBd7i3AQA65ZbgsZP5v+yaRJk3Sxc+rUKWvLWbkA8Zx2THiBPf6TeKZU1iEzLFy4UL8A7HXIDh48qDfwkJAQqVChgnz00Ufy3XffyR//+EcGhPsZRozBtYVf4KghZxaY1JGGjdpVuH6XX365/PDDD1pEtlu3bqxD5mcYMQZQy8h+LVNSUjSEYOXKlbJnzx4pX768nD17Vt5//329yY8cOVIfR/wHXDdcL3wO8R2LH7nYx+cOtavwXYogcIgw1LfC9+zWrVu17Am/Z/2LxMRELdicmpoqNWvW1M8g6jmidhxCfMqWLStLlizR47CNa79o0SK91vgsk8JTKiv145d2bkxVYdwYFixYIBs3blSTOuLHYGrPr0wG8R3uqkMbhg0bpvEruJ6s1O//uKvCbzCfTdSVQ/FQU8m/adOmcvPNN+cIFCf+A64pvkdREgGfPRQLvfvuu12uZvygYqX+wACfTXtHFHz27rnnHlfVAliwIcLyq+RPCkepbZ1ECCGEEOIvMIaMEEIIIcTHUJARQgghhPgYCjJCCCGEEB9DQUYIIYQQ4mMoyAghhBBCfAwFGSGEEEKIj6EgI4QQQgjxMRRkhBBCCCE+hoKMEEIIIcSniPw/yjy/Ry4jRIoAAAAASUVORK5CYII=;" parent="t4vPKVTW1FN4aHRBo3Oe-4" vertex="1">
          <mxGeometry x="34" y="34" width="546.96" height="328" as="geometry" />
        </mxCell>
        <mxCell id="vrtAtZKuDrGTrBNEmQKv-26" value="Tests.py" style="swimlane;whiteSpace=wrap;html=1;fontSize=24;startSize=34;" parent="vrtAtZKuDrGTrBNEmQKv-4" vertex="1">
          <mxGeometry x="870" y="77" width="527" height="1080" as="geometry">
            <mxRectangle x="641" y="904" width="528" height="26" as="alternateBounds" />
          </mxGeometry>
        </mxCell>
        <mxCell id="vrtAtZKuDrGTrBNEmQKv-33" value="&lt;h1 style=&quot;margin-top: 0px; font-size: 17px;&quot;&gt;&lt;font style=&quot;font-weight: normal; font-size: 17px;&quot;&gt;Dependent on VideoTest.py&lt;/font&gt;&lt;/h1&gt;&lt;div style=&quot;font-size: 17px;&quot;&gt;&lt;font style=&quot;font-size: 17px;&quot;&gt;&amp;nbsp;- VQA interaction&lt;/font&gt;&lt;/div&gt;&lt;div style=&quot;font-size: 17px;&quot;&gt;&lt;font style=&quot;font-size: 17px;&quot;&gt;&amp;nbsp;- basic FFMPEG interaction&lt;/font&gt;&lt;/div&gt;&lt;div style=&quot;font-size: 17px;&quot;&gt;&lt;font style=&quot;font-size: 17px;&quot;&gt;&amp;nbsp;- VMAF interaction&lt;/font&gt;&lt;/div&gt;&lt;div style=&quot;font-size: 17px;&quot;&gt;&lt;font style=&quot;font-size: 17px;&quot;&gt;&lt;br&gt;&lt;/font&gt;&lt;/div&gt;&lt;div style=&quot;font-size: 17px;&quot;&gt;&lt;font style=&quot;font-size: 17px;&quot;&gt;Function of main&lt;/font&gt;&lt;/div&gt;" style="text;html=1;whiteSpace=wrap;overflow=hidden;rounded=0;" parent="vrtAtZKuDrGTrBNEmQKv-26" vertex="1">
          <mxGeometry x="20" y="44" width="507" height="143" as="geometry" />
        </mxCell>
        <mxCell id="W5TQijJyQ9mE0h_75X8s-18" style="edgeStyle=orthogonalEdgeStyle;rounded=0;orthogonalLoop=1;jettySize=auto;html=1;" parent="vrtAtZKuDrGTrBNEmQKv-26" source="W5TQijJyQ9mE0h_75X8s-1" target="W5TQijJyQ9mE0h_75X8s-2" edge="1">
          <mxGeometry relative="1" as="geometry" />
        </mxCell>
        <mxCell id="W5TQijJyQ9mE0h_75X8s-1" value="For all files in folder" style="rounded=1;whiteSpace=wrap;html=1;" parent="vrtAtZKuDrGTrBNEmQKv-26" vertex="1">
          <mxGeometry x="203.5" y="197" width="120" height="60" as="geometry" />
        </mxCell>
        <mxCell id="W5TQijJyQ9mE0h_75X8s-17" style="edgeStyle=orthogonalEdgeStyle;rounded=0;orthogonalLoop=1;jettySize=auto;html=1;" parent="vrtAtZKuDrGTrBNEmQKv-26" source="W5TQijJyQ9mE0h_75X8s-2" target="W5TQijJyQ9mE0h_75X8s-3" edge="1">
          <mxGeometry relative="1" as="geometry" />
        </mxCell>
        <mxCell id="W5TQijJyQ9mE0h_75X8s-2" value="Get video length" style="rounded=1;whiteSpace=wrap;html=1;" parent="vrtAtZKuDrGTrBNEmQKv-26" vertex="1">
          <mxGeometry x="203.5" y="293" width="120" height="60" as="geometry" />
        </mxCell>
        <mxCell id="W5TQijJyQ9mE0h_75X8s-16" style="edgeStyle=orthogonalEdgeStyle;rounded=0;orthogonalLoop=1;jettySize=auto;html=1;" parent="vrtAtZKuDrGTrBNEmQKv-26" source="W5TQijJyQ9mE0h_75X8s-3" target="W5TQijJyQ9mE0h_75X8s-4" edge="1">
          <mxGeometry relative="1" as="geometry" />
        </mxCell>
        <mxCell id="W5TQijJyQ9mE0h_75X8s-3" value="FFMPEG to predetermined resolutions" style="rounded=1;whiteSpace=wrap;html=1;" parent="vrtAtZKuDrGTrBNEmQKv-26" vertex="1">
          <mxGeometry x="203.5" y="389" width="120" height="60" as="geometry" />
        </mxCell>
        <mxCell id="W5TQijJyQ9mE0h_75X8s-15" style="edgeStyle=orthogonalEdgeStyle;rounded=0;orthogonalLoop=1;jettySize=auto;html=1;" parent="vrtAtZKuDrGTrBNEmQKv-26" source="W5TQijJyQ9mE0h_75X8s-4" target="W5TQijJyQ9mE0h_75X8s-5" edge="1">
          <mxGeometry relative="1" as="geometry" />
        </mxCell>
        <mxCell id="W5TQijJyQ9mE0h_75X8s-4" value="VQA of each" style="rounded=1;whiteSpace=wrap;html=1;" parent="vrtAtZKuDrGTrBNEmQKv-26" vertex="1">
          <mxGeometry x="203.5" y="485" width="120" height="60" as="geometry" />
        </mxCell>
        <mxCell id="W5TQijJyQ9mE0h_75X8s-14" style="edgeStyle=orthogonalEdgeStyle;rounded=0;orthogonalLoop=1;jettySize=auto;html=1;entryX=0.5;entryY=0;entryDx=0;entryDy=0;" parent="vrtAtZKuDrGTrBNEmQKv-26" source="W5TQijJyQ9mE0h_75X8s-5" target="W5TQijJyQ9mE0h_75X8s-6" edge="1">
          <mxGeometry relative="1" as="geometry" />
        </mxCell>
        <mxCell id="W5TQijJyQ9mE0h_75X8s-5" value="resTest.yaml" style="rounded=1;whiteSpace=wrap;html=1;" parent="vrtAtZKuDrGTrBNEmQKv-26" vertex="1">
          <mxGeometry x="203.5" y="581" width="120" height="60" as="geometry" />
        </mxCell>
        <mxCell id="W5TQijJyQ9mE0h_75X8s-13" style="edgeStyle=orthogonalEdgeStyle;rounded=0;orthogonalLoop=1;jettySize=auto;html=1;entryX=0.5;entryY=0;entryDx=0;entryDy=0;" parent="vrtAtZKuDrGTrBNEmQKv-26" source="W5TQijJyQ9mE0h_75X8s-6" target="W5TQijJyQ9mE0h_75X8s-7" edge="1">
          <mxGeometry relative="1" as="geometry" />
        </mxCell>
        <mxCell id="W5TQijJyQ9mE0h_75X8s-6" value="FFMPEG to predetermined cq" style="rounded=1;whiteSpace=wrap;html=1;" parent="vrtAtZKuDrGTrBNEmQKv-26" vertex="1">
          <mxGeometry x="203.5" y="677" width="120" height="60" as="geometry" />
        </mxCell>
        <mxCell id="W5TQijJyQ9mE0h_75X8s-12" style="edgeStyle=orthogonalEdgeStyle;rounded=0;orthogonalLoop=1;jettySize=auto;html=1;entryX=0.5;entryY=0;entryDx=0;entryDy=0;" parent="vrtAtZKuDrGTrBNEmQKv-26" source="W5TQijJyQ9mE0h_75X8s-7" target="W5TQijJyQ9mE0h_75X8s-8" edge="1">
          <mxGeometry relative="1" as="geometry" />
        </mxCell>
        <mxCell id="W5TQijJyQ9mE0h_75X8s-7" value="VQA nd VMAF each" style="rounded=1;whiteSpace=wrap;html=1;" parent="vrtAtZKuDrGTrBNEmQKv-26" vertex="1">
          <mxGeometry x="203.5" y="773" width="120" height="60" as="geometry" />
        </mxCell>
        <mxCell id="W5TQijJyQ9mE0h_75X8s-11" style="edgeStyle=orthogonalEdgeStyle;rounded=0;orthogonalLoop=1;jettySize=auto;html=1;entryX=0.5;entryY=0;entryDx=0;entryDy=0;" parent="vrtAtZKuDrGTrBNEmQKv-26" source="W5TQijJyQ9mE0h_75X8s-8" target="W5TQijJyQ9mE0h_75X8s-10" edge="1">
          <mxGeometry relative="1" as="geometry" />
        </mxCell>
        <mxCell id="W5TQijJyQ9mE0h_75X8s-8" value="cqTest.yaml" style="rounded=1;whiteSpace=wrap;html=1;" parent="vrtAtZKuDrGTrBNEmQKv-26" vertex="1">
          <mxGeometry x="203.5" y="869" width="120" height="60" as="geometry" />
        </mxCell>
        <mxCell id="W5TQijJyQ9mE0h_75X8s-10" value="End" style="ellipse;whiteSpace=wrap;html=1;" parent="vrtAtZKuDrGTrBNEmQKv-26" vertex="1">
          <mxGeometry x="203.5" y="962" width="120" height="80" as="geometry" />
        </mxCell>
        <mxCell id="W5TQijJyQ9mE0h_75X8s-20" value="Res equation" style="swimlane;whiteSpace=wrap;html=1;fontSize=24;startSize=37;" parent="vrtAtZKuDrGTrBNEmQKv-4" vertex="1">
          <mxGeometry x="1726" y="298" width="712" height="522" as="geometry">
            <mxRectangle x="1234" y="904" width="528" height="26" as="alternateBounds" />
          </mxGeometry>
        </mxCell>
        <mxCell id="W5TQijJyQ9mE0h_75X8s-21" value="1. Get VQA results of multiple scenes for h_resolution [854, 1280, 1920, 3840]&lt;div style=&quot;font-size: 17px;&quot;&gt;2. Create a linear regression ecuation (y=bx+c) for each scene&lt;/div&gt;&lt;div style=&quot;font-size: 17px;&quot;&gt;3. Remove ~40% of worst b results&lt;/div&gt;&lt;div style=&quot;font-size: 17px;&quot;&gt;4. Average b results&lt;/div&gt;&lt;div style=&quot;font-size: 17px;&quot;&gt;5. Using experimantaly determined table translate b to target resolution&lt;/div&gt;&lt;div style=&quot;font-size: 17px;&quot;&gt;6. If target reolution &amp;gt; original resolution, keep original&lt;/div&gt;" style="text;html=1;whiteSpace=wrap;overflow=hidden;rounded=0;fontSize=17;" parent="W5TQijJyQ9mE0h_75X8s-20" vertex="1">
          <mxGeometry x="20" y="44" width="676" height="143" as="geometry" />
        </mxCell>
        <mxCell id="W5TQijJyQ9mE0h_75X8s-81" value="" style="shape=table;startSize=0;container=1;collapsible=0;childLayout=tableLayout;fontSize=17;" parent="W5TQijJyQ9mE0h_75X8s-20" vertex="1">
          <mxGeometry x="241" y="195" width="207" height="200" as="geometry" />
        </mxCell>
        <mxCell id="W5TQijJyQ9mE0h_75X8s-82" value="" style="shape=tableRow;horizontal=0;startSize=0;swimlaneHead=0;swimlaneBody=0;strokeColor=inherit;top=0;left=0;bottom=0;right=0;collapsible=0;dropTarget=0;fillColor=none;points=[[0,0.5],[1,0.5]];portConstraint=eastwest;fontSize=16;" parent="W5TQijJyQ9mE0h_75X8s-81" vertex="1">
          <mxGeometry width="207" height="40" as="geometry" />
        </mxCell>
        <mxCell id="W5TQijJyQ9mE0h_75X8s-83" value="b value" style="shape=partialRectangle;html=1;whiteSpace=wrap;connectable=0;strokeColor=inherit;overflow=hidden;fillColor=none;top=0;left=0;bottom=0;right=0;pointerEvents=1;fontSize=16;" parent="W5TQijJyQ9mE0h_75X8s-82" vertex="1">
          <mxGeometry width="109" height="40" as="geometry">
            <mxRectangle width="109" height="40" as="alternateBounds" />
          </mxGeometry>
        </mxCell>
        <mxCell id="W5TQijJyQ9mE0h_75X8s-84" value="res" style="shape=partialRectangle;html=1;whiteSpace=wrap;connectable=0;strokeColor=inherit;overflow=hidden;fillColor=none;top=0;left=0;bottom=0;right=0;pointerEvents=1;fontSize=16;" parent="W5TQijJyQ9mE0h_75X8s-82" vertex="1">
          <mxGeometry x="109" width="98" height="40" as="geometry">
            <mxRectangle width="98" height="40" as="alternateBounds" />
          </mxGeometry>
        </mxCell>
        <mxCell id="W5TQijJyQ9mE0h_75X8s-86" value="" style="shape=tableRow;horizontal=0;startSize=0;swimlaneHead=0;swimlaneBody=0;strokeColor=inherit;top=0;left=0;bottom=0;right=0;collapsible=0;dropTarget=0;fillColor=none;points=[[0,0.5],[1,0.5]];portConstraint=eastwest;fontSize=16;" parent="W5TQijJyQ9mE0h_75X8s-81" vertex="1">
          <mxGeometry y="40" width="207" height="40" as="geometry" />
        </mxCell>
        <mxCell id="W5TQijJyQ9mE0h_75X8s-87" value="-10" style="shape=partialRectangle;html=1;whiteSpace=wrap;connectable=0;strokeColor=inherit;overflow=hidden;fillColor=none;top=0;left=0;bottom=0;right=0;pointerEvents=1;fontSize=16;" parent="W5TQijJyQ9mE0h_75X8s-86" vertex="1">
          <mxGeometry width="109" height="40" as="geometry">
            <mxRectangle width="109" height="40" as="alternateBounds" />
          </mxGeometry>
        </mxCell>
        <mxCell id="W5TQijJyQ9mE0h_75X8s-88" value="854" style="shape=partialRectangle;html=1;whiteSpace=wrap;connectable=0;strokeColor=inherit;overflow=hidden;fillColor=none;top=0;left=0;bottom=0;right=0;pointerEvents=1;fontSize=16;" parent="W5TQijJyQ9mE0h_75X8s-86" vertex="1">
          <mxGeometry x="109" width="98" height="40" as="geometry">
            <mxRectangle width="98" height="40" as="alternateBounds" />
          </mxGeometry>
        </mxCell>
        <mxCell id="W5TQijJyQ9mE0h_75X8s-90" value="" style="shape=tableRow;horizontal=0;startSize=0;swimlaneHead=0;swimlaneBody=0;strokeColor=inherit;top=0;left=0;bottom=0;right=0;collapsible=0;dropTarget=0;fillColor=none;points=[[0,0.5],[1,0.5]];portConstraint=eastwest;fontSize=16;" parent="W5TQijJyQ9mE0h_75X8s-81" vertex="1">
          <mxGeometry y="80" width="207" height="40" as="geometry" />
        </mxCell>
        <mxCell id="W5TQijJyQ9mE0h_75X8s-91" value="&lt;span style=&quot;color: rgb(240, 240, 240); font-family: Helvetica; font-size: 16px; font-style: normal; font-variant-ligatures: normal; font-variant-caps: normal; font-weight: 400; letter-spacing: normal; orphans: 2; text-indent: 0px; text-transform: none; widows: 2; word-spacing: 0px; -webkit-text-stroke-width: 0px; white-space: normal; background-color: rgb(24, 20, 29); text-decoration-thickness: initial; text-decoration-style: initial; text-decoration-color: initial; float: none; display: inline !important;&quot;&gt;-1E-4&lt;/span&gt;" style="shape=partialRectangle;html=1;whiteSpace=wrap;connectable=0;strokeColor=inherit;overflow=hidden;fillColor=none;top=0;left=0;bottom=0;right=0;pointerEvents=1;fontSize=16;align=center;verticalAlign=middle;" parent="W5TQijJyQ9mE0h_75X8s-90" vertex="1">
          <mxGeometry width="109" height="40" as="geometry">
            <mxRectangle width="109" height="40" as="alternateBounds" />
          </mxGeometry>
        </mxCell>
        <mxCell id="W5TQijJyQ9mE0h_75X8s-92" value="1280" style="shape=partialRectangle;html=1;whiteSpace=wrap;connectable=0;strokeColor=inherit;overflow=hidden;fillColor=none;top=0;left=0;bottom=0;right=0;pointerEvents=1;fontSize=16;" parent="W5TQijJyQ9mE0h_75X8s-90" vertex="1">
          <mxGeometry x="109" width="98" height="40" as="geometry">
            <mxRectangle width="98" height="40" as="alternateBounds" />
          </mxGeometry>
        </mxCell>
        <mxCell id="W5TQijJyQ9mE0h_75X8s-94" style="shape=tableRow;horizontal=0;startSize=0;swimlaneHead=0;swimlaneBody=0;strokeColor=inherit;top=0;left=0;bottom=0;right=0;collapsible=0;dropTarget=0;fillColor=none;points=[[0,0.5],[1,0.5]];portConstraint=eastwest;fontSize=16;" parent="W5TQijJyQ9mE0h_75X8s-81" vertex="1">
          <mxGeometry y="120" width="207" height="40" as="geometry" />
        </mxCell>
        <mxCell id="W5TQijJyQ9mE0h_75X8s-95" value="-6.9E-5" style="shape=partialRectangle;html=1;whiteSpace=wrap;connectable=0;strokeColor=inherit;overflow=hidden;fillColor=none;top=0;left=0;bottom=0;right=0;pointerEvents=1;fontSize=16;" parent="W5TQijJyQ9mE0h_75X8s-94" vertex="1">
          <mxGeometry width="109" height="40" as="geometry">
            <mxRectangle width="109" height="40" as="alternateBounds" />
          </mxGeometry>
        </mxCell>
        <mxCell id="W5TQijJyQ9mE0h_75X8s-96" value="1920" style="shape=partialRectangle;html=1;whiteSpace=wrap;connectable=0;strokeColor=inherit;overflow=hidden;fillColor=none;top=0;left=0;bottom=0;right=0;pointerEvents=1;fontSize=16;" parent="W5TQijJyQ9mE0h_75X8s-94" vertex="1">
          <mxGeometry x="109" width="98" height="40" as="geometry">
            <mxRectangle width="98" height="40" as="alternateBounds" />
          </mxGeometry>
        </mxCell>
        <mxCell id="W5TQijJyQ9mE0h_75X8s-97" style="shape=tableRow;horizontal=0;startSize=0;swimlaneHead=0;swimlaneBody=0;strokeColor=inherit;top=0;left=0;bottom=0;right=0;collapsible=0;dropTarget=0;fillColor=none;points=[[0,0.5],[1,0.5]];portConstraint=eastwest;fontSize=16;" parent="W5TQijJyQ9mE0h_75X8s-81" vertex="1">
          <mxGeometry y="160" width="207" height="40" as="geometry" />
        </mxCell>
        <mxCell id="W5TQijJyQ9mE0h_75X8s-98" value="-4E-5" style="shape=partialRectangle;html=1;whiteSpace=wrap;connectable=0;strokeColor=inherit;overflow=hidden;fillColor=none;top=0;left=0;bottom=0;right=0;pointerEvents=1;fontSize=16;" parent="W5TQijJyQ9mE0h_75X8s-97" vertex="1">
          <mxGeometry width="109" height="40" as="geometry">
            <mxRectangle width="109" height="40" as="alternateBounds" />
          </mxGeometry>
        </mxCell>
        <mxCell id="W5TQijJyQ9mE0h_75X8s-99" value="3840" style="shape=partialRectangle;html=1;whiteSpace=wrap;connectable=0;strokeColor=inherit;overflow=hidden;fillColor=none;top=0;left=0;bottom=0;right=0;pointerEvents=1;fontSize=16;" parent="W5TQijJyQ9mE0h_75X8s-97" vertex="1">
          <mxGeometry x="109" width="98" height="40" as="geometry">
            <mxRectangle width="98" height="40" as="alternateBounds" />
          </mxGeometry>
        </mxCell>
        <mxCell id="W5TQijJyQ9mE0h_75X8s-118" value="Resolution 2560 is not used due to issues with either VQA or FFMPEG, this can be caused by 2560 not beeing a common resolution" style="text;html=1;whiteSpace=wrap;overflow=hidden;rounded=0;fontSize=17;" parent="W5TQijJyQ9mE0h_75X8s-20" vertex="1">
          <mxGeometry x="12" y="413" width="690" height="44" as="geometry" />
        </mxCell>
        <mxCell id="W5TQijJyQ9mE0h_75X8s-122" value="Calculation saved in ./Tests/VideoCompressionCalculation.xlsx" style="text;html=1;whiteSpace=wrap;overflow=hidden;rounded=0;fontSize=17;" parent="W5TQijJyQ9mE0h_75X8s-20" vertex="1">
          <mxGeometry x="12" y="462" width="488" height="44" as="geometry" />
        </mxCell>
        <mxCell id="W5TQijJyQ9mE0h_75X8s-39" style="edgeStyle=orthogonalEdgeStyle;rounded=0;orthogonalLoop=1;jettySize=auto;html=1;entryX=0;entryY=0.5;entryDx=0;entryDy=0;strokeWidth=3;" parent="vrtAtZKuDrGTrBNEmQKv-4" source="vrtAtZKuDrGTrBNEmQKv-26" target="W5TQijJyQ9mE0h_75X8s-20" edge="1">
          <mxGeometry relative="1" as="geometry" />
        </mxCell>
        <mxCell id="MdBtM0RcR3EC5CGPybYr-1" value="CQ equation" style="swimlane;whiteSpace=wrap;html=1;fontSize=24;startSize=37;" parent="vrtAtZKuDrGTrBNEmQKv-4" vertex="1">
          <mxGeometry x="1724" y="876" width="712" height="298" as="geometry">
            <mxRectangle x="1234" y="904" width="528" height="26" as="alternateBounds" />
          </mxGeometry>
        </mxCell>
        <mxCell id="MdBtM0RcR3EC5CGPybYr-2" value="1. Get VMAF results of multiple scenes for cq [1, 18, 21, 24, 27, 30, 33, 36]&lt;div style=&quot;font-size: 17px;&quot;&gt;2. Create delta for each cqX to cq18&lt;/div&gt;&lt;div style=&quot;font-size: 17px;&quot;&gt;3. Calculate polynomila exuation 2 order of delta cqX (cq21-36)&lt;/div&gt;&lt;div style=&quot;font-size: 17px;&quot;&gt;4. From regression equation get x for y=0,6 (0,5-2 based on quality vs size)&lt;/div&gt;&lt;div style=&quot;font-size: 17px;&quot;&gt;5. round x to closest half&lt;/div&gt;" style="text;html=1;whiteSpace=wrap;overflow=hidden;rounded=0;fontSize=17;" parent="MdBtM0RcR3EC5CGPybYr-1" vertex="1">
          <mxGeometry x="20" y="44" width="676" height="143" as="geometry" />
        </mxCell>
        <mxCell id="MdBtM0RcR3EC5CGPybYr-19" value="CQ of 0 should not be used, as it usually produces bad results, this should be mitigated by using cq1 as cq0 -&amp;gt; VMAF of cq0 is 100" style="text;html=1;whiteSpace=wrap;overflow=hidden;rounded=0;fontSize=17;" parent="MdBtM0RcR3EC5CGPybYr-1" vertex="1">
          <mxGeometry x="20" y="187" width="669" height="44" as="geometry" />
        </mxCell>
        <mxCell id="MdBtM0RcR3EC5CGPybYr-21" value="Calculation saved in ./Tests/VideoCompressionCalculation.xlsx" style="text;html=1;whiteSpace=wrap;overflow=hidden;rounded=0;fontSize=17;" parent="MdBtM0RcR3EC5CGPybYr-1" vertex="1">
          <mxGeometry x="20" y="249" width="488" height="44" as="geometry" />
        </mxCell>
        <mxCell id="MdBtM0RcR3EC5CGPybYr-22" style="edgeStyle=orthogonalEdgeStyle;rounded=0;orthogonalLoop=1;jettySize=auto;html=1;entryX=0;entryY=0.5;entryDx=0;entryDy=0;strokeWidth=3;" parent="vrtAtZKuDrGTrBNEmQKv-4" source="vrtAtZKuDrGTrBNEmQKv-26" target="MdBtM0RcR3EC5CGPybYr-1" edge="1">
          <mxGeometry relative="1" as="geometry" />
        </mxCell>
        <mxCell id="MdBtM0RcR3EC5CGPybYr-23" value="Optimization" style="swimlane;whiteSpace=wrap;html=1;fontSize=24;startSize=37;" parent="vrtAtZKuDrGTrBNEmQKv-4" vertex="1">
          <mxGeometry x="1726" y="1272" width="863" height="756" as="geometry">
            <mxRectangle x="1234" y="904" width="528" height="26" as="alternateBounds" />
          </mxGeometry>
        </mxCell>
        <mxCell id="MdBtM0RcR3EC5CGPybYr-27" value="Res" style="swimlane;whiteSpace=wrap;html=1;fontSize=24;startSize=46;" parent="MdBtM0RcR3EC5CGPybYr-23" vertex="1">
          <mxGeometry x="32" y="52" width="806" height="218" as="geometry" />
        </mxCell>
        <mxCell id="MdBtM0RcR3EC5CGPybYr-28" value="&lt;font style=&quot;font-size: 17px;&quot;&gt;Min video length for VQA: &amp;lt;1s&lt;/font&gt;&lt;div style=&quot;font-size: 17px;&quot;&gt;&lt;font style=&quot;font-size: 17px;&quot;&gt;VQA&amp;nbsp; runs to average: 3&lt;/font&gt;&lt;/div&gt;&lt;div style=&quot;font-size: 17px;&quot;&gt;&lt;font style=&quot;font-size: 17px;&quot;&gt;Number of scenes: 15&amp;nbsp;&lt;/font&gt;&lt;/div&gt;&lt;div style=&quot;font-size: 17px;&quot;&gt;&lt;span style=&quot;background-color: initial;&quot;&gt;Needed res tests for calculation: regression equation from using just [854, 3840]&lt;/span&gt;&lt;/div&gt;&lt;div style=&quot;font-size: 17px;&quot;&gt;&lt;font style=&quot;font-size: 17px;&quot;&gt;Paralelization: 6 threads&lt;/font&gt;&lt;/div&gt;&lt;div style=&quot;font-size: 17px;&quot;&gt;&lt;font style=&quot;font-size: 17px;&quot;&gt;Final duratioin: 2.5s per VQA test (including video generation)&lt;/font&gt;&lt;/div&gt;&lt;div style=&quot;font-size: 17px;&quot;&gt;&lt;font style=&quot;font-size: 17px;&quot;&gt;&lt;u&gt;Time to complete: 182s&lt;/u&gt;&lt;/font&gt;&lt;/div&gt;" style="text;html=1;align=left;verticalAlign=middle;resizable=0;points=[];autosize=1;strokeColor=none;fillColor=none;" parent="MdBtM0RcR3EC5CGPybYr-27" vertex="1">
          <mxGeometry x="18" y="51" width="620" height="155" as="geometry" />
        </mxCell>
        <mxCell id="MdBtM0RcR3EC5CGPybYr-30" value="CQ" style="swimlane;whiteSpace=wrap;html=1;fontSize=24;startSize=46;" parent="MdBtM0RcR3EC5CGPybYr-23" vertex="1">
          <mxGeometry x="32" y="295" width="806.5" height="451" as="geometry" />
        </mxCell>
        <mxCell id="MdBtM0RcR3EC5CGPybYr-31" value="&lt;span style=&quot;font-size: 17px;&quot;&gt;Video length: 50s&lt;/span&gt;&lt;div&gt;&lt;span style=&quot;font-size: 17px;&quot;&gt;Multi Core: 6 threads&lt;/span&gt;&lt;/div&gt;&lt;div&gt;&lt;span style=&quot;font-size: 17px;&quot;&gt;Number of scenes: 3&lt;/span&gt;&lt;/div&gt;&lt;div&gt;&lt;span style=&quot;font-size: 17px;&quot;&gt;Neded CQs runs for calculation: cq1 for reference, [15, 18, 27, 36]&lt;/span&gt;&lt;/div&gt;&lt;div&gt;&lt;span style=&quot;font-size: 17px;&quot;&gt;Using only one scene for cq18 calculation, as all had simmilar results &lt;br&gt;&lt;/span&gt;&lt;span style=&quot;font-size: 17px; background-color: initial;&quot;&gt;and the scene by scene difference increases with cq&lt;/span&gt;&lt;span style=&quot;font-size: 17px;&quot;&gt;&lt;br&gt;&lt;/span&gt;&lt;/div&gt;&lt;div&gt;&lt;span style=&quot;font-size: 17px; background-color: initial;&quot;&gt;Future: VMAF_cuda&lt;/span&gt;&lt;/div&gt;&lt;div&gt;&lt;span style=&quot;font-size: 17px; background-color: initial;&quot;&gt;&lt;u&gt;Time to complete: 285s (1920p)&lt;/u&gt;&lt;/span&gt;&lt;/div&gt;" style="text;html=1;align=left;verticalAlign=middle;resizable=0;points=[];autosize=1;strokeColor=none;fillColor=none;" parent="MdBtM0RcR3EC5CGPybYr-30" vertex="1">
          <mxGeometry x="12" y="54" width="537" height="175" as="geometry" />
        </mxCell>
        <mxCell id="Jyrxn45nr0JQzOpKeNqC-1" value="" style="shape=image;verticalLabelPosition=bottom;labelBackgroundColor=default;verticalAlign=top;aspect=fixed;imageAspect=0;image=data:image/png,iVBORw0KGgoAAAANSUhEUgAAAZMAAADzCAYAAABDn/uPAAAAAXNSR0IArs4c6QAAAARnQU1BAACxjwv8YQUAAAAJcEhZcwAADsMAAA7DAcdvqGQAAEhsSURBVHhe7d0HXFV1/wfwD6AMERAUNZwJiHvkzIErQX1EHJTmyjQtLBv6N+1JKh+cGZlmuNLIrbkIU8EURBy4FReIAxUXyt7r/u/3d89FxAtcUOEA3/fzOg/n/M5Ffx3hfu/3N3UUSlAKCwtD48aN6ZQxxhgrEl3pK2OMMVZsHEwYY4y9NA4mjDHGXhoHE8YYYy+NgwljjLGXxsGEMcbYS+Ngwhhj7KVpPc/Ey8sLN27cEOdDhw5F27Ztxbmat7c3AgMDxfknn3wCW1tbjWWMMcbKH60zk5CQELi7u2Ps2LHw9/eXSp+hoOHh4QFHR0f4+PjkW8YYY6z8KXIzV2JionT2TFBQEGxsbMS5g4MDYmJiNJYxxhgrn7Ru5lq+fDnCw8PFed4mKwocdG/cuHHi2s3NTWQjecsosynMlStXUKlSJemKsZJDvwo6OjrSlbzIuW6En13xybl+RkZGqFevnnRVCOV/iBAaGiqdvejs2bOKOXPmvHCuduTIEYWnp6d0pVDMmjVLY5k2/P39pTN5oueUnZ0tXcmLnOtG5F4/5Qcq2dZPznUj/OyKT871Kygu5KVVM1dSUhIsLCzEOXW8R0dHi/Pr16+Lr3Z2djlZi5+fH8zNzTWWMcYYK5+0CiYUGCiAUFPVtGnTYG9vL8rnz58vAoqlpaUoo3u+vr5wcnLSWMYYY6x8KvYS9FFRUdi+fTtcXV2lklcjICAAPXv2lK7kh54T9RfJsY1TznUjcq8ffTCiQSNyrJ+c60b42RWfnOtXlLigGxERATqKijIPFxcX6YoxxlhFptugQQPQURwUUBhjjDFeToUxxthL42DCGGOlwO0vdzSb3g4DV7yLObt/lErLLg4mjDFWwiiQrA/aitiUOCSkJWLlwbVw37VQuls2cTBhjLEStv3kLqRnpSrPaASXDrKRhQ1Ht4h7ZRUHE8YYK2E6Iog8T1emQ5e1xcGEMcZK2LCOg6GvZ6g8o2l+CuUbsR5cOg4R98oqDiaMMVbC3N91w4SeY2BiaAJjfWN82GO0KCvLOJgwxlgpcBsyA6E/ncNe1+34n8ssqbTs4mDCGGPspXEwYYwx9tI4mDDGWCn4asMMNJneTroq+ziYMMZYCYpPiRdf61rURYu6TZGY9uJW6GURBxPGGCtB41dNFhnJtAFTsP2LDahqUFW6U7ZxMGGMsRL0tm0ndGncSboqPziYMMZYCTh2PRj7LxwQGcnaiZ5Safmh1eZY3t7eYste9TFy5EjpzjP0Gtqilw7aOSy/MsYYq4i+3zEXX26YKV2VP1ptjuXs7Ax3d3dxjB07Fu3bt5fuPBMYGAgPDw84OjrCx8cn3zLGGKuIfhm9EDu+2CBdlT9FbuaioNCrVy/pSiUoKEjsYUwcHBwQExOjsYwxxioaGgLcd8EgNK/bVBzlVZGCSVRUlAgKbdu2lUqeMTIyks6e0VTGGGMVSVxKAupVrytdlV86CiU6CQsLQ+PGjUVhfry8vGBubi6avXKjLCQkJASurq7imvpVqGkrbxk1kxUmICAAVlZW0hVjjJVNNH/kYfxj2Fg2kkrKpsLiQg4KJiQ0NFQ6y9/UqVOlMxVlABJfHz9+nHPP19dX4eHhobFMG/7+/ors7GzZHvScsrKyNN4r7UPOdaND7vWjn2e51k/OdaODn92Lx8qDaxVvfGqjCAo9rvG++pDzs9MmLqhp3cxFI7NatmwpXanMnz9fjNKytLSEvb29GLWlDBxwcnLSWKYtHR0d2R5yrp+c60YH16/4h5zrRoec61fSdUtITcCVyGvo2rgz+rXui5b1mml8nfoo6foV5SgKrYMJNW2NGzdOulL1n3To0AG2trbimu7TyC06CipjjLHybOuJnaLD/e7Te2I+iamRqXSnfCv2pEXKPFxcXKQrxhhjpF+rd0RGUtgs95PzArG5y2qcHHMQZzyOSaVlV7GDCaGAwhhjDPDY+6sYBkwjtwrLSCiQhG2/gvT4NGQmZuLKn+dx+qej0t2y6aWCCWOMMZX9Fw+IJVO0cWPPNWSlZ0pXYiCUMrhckq7KJg4mjDH2EmhJeToOzPxbHNp5sXNbR7doHd5yw8GEMcZewmr/P8WS8tThrm1n+yNbI2TlCh402e+JnbHqooziYMIYYy/hbduOosPdrIr2o7Z+M3mAoJopyNZRQKGMKcdqpuEXo0jpbtnEwYQxxoqBVgFe7e+FLradijwEmHKSPfVScLRmOq5Uy8DuBsnQ5WYuxhirWKiPhALJ8fCTUon20hPS8HFmHdilGODv+snwskkU/SUub7eSXlE2cTBhjLEioizk/rLr+GX0AqlEezQcuEZQNEbovQETIwMYG1TG+N4dMH+Uo/SKskmrzbEYY4yp0FwS6nAnRWnaoozkgudJJN5PgOMfQzBxxXu44fk1/KYNw7yRDtKryi6tNsdijDGm0qxOU7So21Q0dRXVeWUwueF9DbU71EH6gSWI+rYXzNZOQJLPEukVZRc3czHGmBaoj8RlyWgM7zwU27/YUKSshOibGIiMpMOMbkjc+SNSTuwCUuKAtEQkH96IxL9/kV5ZNnEwYYwxLV26dxVxyUXPSPy/2AvfD3eJjISCSuqZvVBkpmFKYme4xPcGFFnK4LJTenXZxMGEMcYKQM1ZtEzKxF7jcG3RmWLtmpgYGQ99UwPpiiYp6sDdaiwCTFsjrFpjLKz9PnR0yvbbMQcTxhgrAC0pT81bW0/skEq0p85InLaPQK8lA0TZvrOhaPu4L7YqmiK1eXfl0Q1rLfvjp+bTxP2yioMJY4wVgPpIpg34HP1b95VKtJc3IyGmVQyQAT1kVDKUSpSZijIr2ZRdtvd84mDCGGMa0BBg2uSKOtqnDZhSpA73h6ciRSDJnZHEJadikXcg6teoBqOeg6GolmsLD4XyzbiIOxvKDQcTxhjToK5FXZgVccSW2tFZB+E7frd0pXL3SSwW7T4sAsp7NmbQ13sWPCiOUFlZpnUwoT3g3dzcxHHu3Dmp9Bm6T/u900H7wudXxhhjckad7ZfvXRXZCA0B1hZNSryy/rzISFq7dkDT0c8vj9Kifm38OeU9THe2x4+dauNza330Sr2GqnrAxKYWoqws0yqYUCA4ffo03N3d8fnnn2PnzheHsAUGBoq93h0dHeHj45NvGWOMyRk1b41f7VrkSYnR157g1MIgMSnRZnBTNBvTRroDfPDrNrht9kP/t+xQr0Y1UTY1Mxgrr89FkPkxLOxYS5SVZVoFk1u3bsHa2lqc01a9FFRyCwoKgo2NjTh3cHBATEyMxjLGGJO7tROX46Oe44o8KZHmkHSd0wfWzk2kkmfuPonDpTsPxXlcehYWnI/CmQZ9Yez4MTLfbC/KyzodBe0XqRQWFobGjRuLwry8vLwQEhICCwsLpKamon379nB2dpbuqoJJeHg4xo0bJ66pKYyykbxleYOQJgEBAbCyspKuGGOsZMz6Zw5qm9TEZ/aTpBLtXXY7BbMWFqg7XPWhW+2bHUEwMdTHf//TEQmp6eI89vBGOFQajoG1dPGdjfy7rfOLC3lpFUyo7+P+/ftwdXUV19QHQs1XahRMKNio76uDSd4ybYNJjx49pCv5oSY/yrh0ZDjyQs51I3KvH334oQxcjvWTc91IeXh2DgudxYTENR/9JpVob8+7W2HRxBJd3HtLJSp9fvgdZlUMsPPrMSIjITqbZuCEojY6jfoKZvp6sn529DurbTDRKiw2a9YM0dHR0tUz9BcROzs78UCIn58fzM3NNZZpix6qXA8510/OdaOD61f8Q851o0PO9SusbhN+/xRTN84U+7fTJleaXpPfccztEE7/eFQMAaYmLnX5vadx4jg0eyK8prwnyn47ehkNN4Uh7t0FcBw/HdUMKonywupXmkdRaBVMbG1t0aJFC5Fd0GFvby/K58+fLwIK9aNQGWUsvr6+cHJy0ljGGGNyQ3u3331avC1zo69FiSOvwQvXo/f3q8W5WRXV5MS2p9eib+plZTYi/6atYqFmLhIaGiqdaefx48cKT09P6erV8ff3l87kiZ5Tdna2dCUvcq4bkXv9wsLCZFs/OdeNlMVnF5ccJw71eVEc+vwfxckFR8R5Wnyq+BqblKJY4XtCfN185Lw4z06OV0zbdkCx7OQNRdr1U4qkgI3itbnJ+dkVJS4Ue3MsyjxcXFykK8YYK1tW+/8pNrmizKSoI7doLok6I6FVgMmxaxFi+O+qAycxoltrfOzQCU8iQrEtrhr2XLkLfZv2qNJjpHhtefRSm2NRQGGMsbJE1ax1D2/bdkS/1n1hVkX7QEITE3OWSVmqWiZFjeaQLJ0wCCO6thKd7UEPkmDZpD2ud0rExn6qaRLlWTltvGOMMc1clo5G3wXO6GLbSXS4FyUr8XHZKg6izkgIZSQr/YJFRkKTEjddj8XA/RH4Y9sWGLTsCYtadaRXll8cTBhjFcrU/lPEUilFoc5IaJmU1pM7SKUqtIDj3rOh2H8uVCoBRtpWwxcpgejz9KhUUv5xMGGMVQjf75grtt4d3nmY2OiqKNQZSd5lUigj2RJ0AWcWTRFDgCcfjkDXjWdgmpWM2ZM/Qb1x86RXln8cTBhj5R6ts7X/4gH4XvxXKimceuFG+qpNRkJDgK1SH8M4OgLJgZtFmY6RifhaEXAwYYyVWxREgm4cF/0iwbMDsHaSp3SncA9PRoqFG6+uv/BCRkKBhIJHTkYSdB/dvW9ilmMHeHeqDMMOA6VXVhwcTBhj5RZtufvtHvecLXeL0tlev0+jfBduHLJwPWw/XSTOKajUun0UVSJDxLVRRyfoWVS89QU5mDDGyh3KSCiA0Ja74zqNKtKWu9SsRfu2X/A8KTKSqnWeBSDKSMjwrq0wtm9nsfrvncQM/J9lDLbiHyhSEsT9ioiDCWOs3KGM5KsNM7HvwgF82HlUkSclitFb918MDOqMhCYkDrbvgAXnovC/Ld4wdpyEapNXVag+krw4mDDGyh3KSGYP+7ZIGQmhPpLw3VdzFm7Ma1LfjjkZSVxaFna8EY5vItYgK/q+9IqKi4MJY6xc8dj7Ky7duyqG/xYlI6Fs5M6hm7h76JZU8gxNSKQhwDQp8YN3lMFEmZGsPx2KPv0Gwdp9X4XsI8mLgwljrNygvhKPvUvxe8CfUol21BnJMN+xLyyTQrYevYhZ2w6p+kgS0rE5fj2+PvmtdJcRDiaMsTKPgshlZTaiGgLsj19GL5DuaCd3RpJ7mZRF3oHYdzYUSyc4YcVnw3Mykr4u49Dgk1+kVzHCwYQxVuZRh3vfBYOw/8IBsVuits1blJHQxERNGQmN3Fq0+zDWHwvBnmg9GJqY5WQklerYiYM9w8GEMVbm9Wv1jugj6dK4k1SinfwyEkLzR67/Nh3fDu/HGYkWOJgwxsqs8asn46sNM0Q2QqO3tMlIKBPxcdkiFm7Mr4/k8zV/o94vBzH5RBSaW1bljEQLxd4cizHGSltxt9xNjHw2hyRvRkJoGXmFsRmeJmeKa85ICqf15lhz587N2QPe29tbKn2Gymi/dzpoX/j8yhhj7GWpM5IDM//Wer0t9cKNtMbW+8cnPjezXU2dkRzWb4B7E9tjTeImRHuM5IxEC0Vq5nJ3dxeHs7OzVPJMYGAgPDw84OjoCB8fn3zLGGPsZeXOSLTtbL9z8GbOEOC81MukqDOSKpUU4rqauSV0jaqKc1YwrYPJjRs3crKTc+fOSaUqQUFBsLFRbUvp4OCAmJgYjWWMMfYy1FvuFiUjUaOFGzvM6IbaHV7c9ZAykto/+eVkJIufbhQZiXqZFFY4HYUSnYSFhaFx48aiUBNqsqKMhJqr1q1bJzIUNQoc4eHhGDdOteEMBRzKRvKW5f6e/AQEBMDKimeTMsZeNMLrQySmJWPPx6qtc7VxY9llxF2KxlsrukslL1obdBkbMuuhXW1jLGqiB8PTO1Dp/mUkDvpOekXFVVBcyE3rYJJb3sBAwSQkJASurq7iWh1M8pZpG0x69OghXckPBVPKuHR0dKQS+ZBz3Yjc60cffqytrWVZPznXjbzu+qkmJJrg2PVgxKckFGmnRP85+5F+I0WM2srb2e6++wgSzGrjsw4NUU8vVWxqVdn6LejbtJde8frJ+d+Wfme1jQtaNXNRsFi+fLk4pz/c0NAw55zY2dmJB0L8/Pxgbm6usUxb9FDlesi5fnKuGx1cv+Ifcq4bHa+7fhN+nwyHhYMx4m0XTOr9ocbX5D2OuR3Czn7rUW+EDRz/GAIDU8Pn7senpOHXw5exOiITm2/EQZGaiGS/VUg/889zr3vdx+t+di9zFIVWwaRbt27iK2UX1MQ1YIBqXPb8+fNFQLG0tIS9vb0YteXr6wsnJyeNZYwxpi1aIoX2bKc+kqn9p2DagCnSHe1UtTIRR2ZShlSiQp3tH/x7G5tuJcF/6hB4tDXF4Pv7xMq/1SavRFXnadIrWZFQMxcJDQ2VzrTz+PFjhaenp3T16vj7+0tn8kTPKTs7W7qSFznXjci9fmFhYbKtn5zrRl5H/Y6GnVC88amN4qd/lkolhUuLT1Wc/y1Y8eDkPankxbqt8D2hqOZ5UtFpe5i4znwaqXj01VuK+M3fi+uSJud/26LEhWLPgKfMw8XFRbpijLFXq4ttJywevQDvdRoilWjnvOdJ3PC+Jl09j/Zqv6BrgUGZt/BXNzOxMyItH88ZycsrdjAhFFAYY+xVc1kyWuxLMrzzMLFUSmFoQiId1MFO/SM0BDgvWgHYLzwKIUl6+HPKe7A4vxtR3/YUzVvU4V6Rd0l8FV4qmDDG2OsQlxKPe9H3pKvCXV1/AZvfXi3W26J5JHlHbX169AHW3kyG2eVAeHc2EAGERm0ZtOwJXQ4irwQHE8aYbNASKdTpTpMSF49eKJXmT52R1FIGEJqUqG/64jpbc/cE4+DNJ7Bu0hSHZk+EYvUnYkIiZSNmH3pwRvKKcDBhjMkGzSPZFrxTuiocLY1CGQmN2uq15Pl5JHHpWVh++SmuPUlEnRvB2NinrlhWvorDJBgrD/ZqcTBhjJU6dUYSPDsAO77YIJXmj7IRatKyaGKZb0Yybn0Avjn5CN1798TOr0dDb98vSD68CUYdnVClx0jpVexV4WDCGCt1l+5dxYqDa9Bsejt0+q4n3HcV3MRFGckOx3UiE8kvI4m+F4Gm8bfgVEsPpjoZSAsJQPrlAOlV7FXjYMIYKzWUkdCorc7WHfA0IRqxKXGi833lwbUaA8rDU5HPZSRV67zY3xH0IFlkJP2dnfBPs6ew9f0fslMSUH2Wj+gjYa8Hb47FGCs1lJEcvx6M7Sd3IT0rTVlCS3joIBtZ2HB0i3hNbkdnHYTv+N1ixFZ+GcnhYydQKfQ0elXXhaF+Jeg+efb+xp3tr4/Wm2MxxtiroF4mhb6ql5LXEUHkebq51oaijCT62hO0du2ApqNbSaXP87sdJzKSRMuGWFD1Ehpt+VQM/Y0fv0ZMTGSvFzdzMcZK1L4LB/D9jrnYekI1aos2txrWcTD09WgBWVrEXKF8Y9KDS8dnM98pI/H/Yi9sBjcVOyXmRgGEMpLbVy+JjOQDOwuM7K58TexD6RWsJHAwYYyVCMpGqH+kf+u+YpmUfq3eke4A7u+6YULPMTAxNBHHhz1Gw63f17jgeVL0kVCTlqaMRN20deBuHLrY1X8uI7GcG8AZSQniYMIYKxE0f4QCCmUimpZJcRsyA6E/nRMHBZfEyASxztaF5adg0aTGcxkJBZGgB0kw09eD9ZWDuLjXG12bNOSMpBRxMGGMvVbqjIT6R7SdQ0IHBRDKSKifJK9N12MxcH8Elp27j+nO9ljRIlXMaueMpPRwMGGMvVbqjIQ0r9tUfNXk5LxAbO6yGtt6rM1ZZ0s1/NdUegUN+03CPxEJGGlbDeZRN/HLH1sxoltrdLFrINbbolWAWengYMIYe60oIzkw01u60owCSdj2K0iPT0NWehZoINflP89Ld5/5+sQDfBRwF8jMwPwu9fBrG93nMpJKdeykV7KSxsGEMfZa0ITEJtPbifPClpG/4XNVGUQypSvatE9Z9vdV6QpYcD5KZCVja2Yi8/RBrDpwUmQkPVs04oxEJjiYMMZei2Z1mqJF3aZiPknh1HNKns0t0dFVnVNn+4JzUZhx+Abeb9sQvw63x0iTB9LKv+04I5GJIgcT2tM9KChIunrG29tb3KOD9oXPr4wxVr6pM5LhnYdi+xcbxOit/FBHu4/LFpg1NIeefiVlCc0zUQYSHR3sGt0BA/dFiBFba98ywvWDe3MyEouqVTgjkZkiBRMKDqmpqdLV8wIDA+Hh4QFHR0f4+PjkW8YYK9/UGYm20hPSYdnmDTQZ2RKVq1YWR5P3W8K6vZXISugY2vpNLP2gP0anBOWs/MsZibxoHUyioqJw6dIldOjw4jA9ylRsbGzEuYODA2JiYjSWMcbKr6kbZxYpI/H9cJfYIXGY71ixzW77/+uKkSc+RtBPTpjWvC7md6yFTT1rY9zijWLL3eHtGkHv5A5k3Dwj/SlMTnQUSnQSFhaGxo0bi0JNvLy8RHAIDw8XX7t1e7bHMgUOKh83bpy4dnNzE9lI3jJ3d3dxXpCAgABYWfEYccbKisS0RFQ1qIrt570RdOM45gycJa41yUzKQJT/fVh0rInL352GWQsLWH/WXNz76VY29j3KRrryHalaJR34dNBDQmo6vtnkh25maRgxbJh4nU5aEhQGxuKcvX4FxYXctAom1N9BzVRTp07NCSp5g0lISAhcXV3FtTqY5C3TNpj06NFDupIfehb0309tunIj57oRudePPvxYW1vLsn5yrpvDQmdERN3FtUVnCq0fLdjoN363mIjYenJHqRT4KPA+dt6ME6O4qA+e/pgG4ccwsr0tPq12D0l//wzTcT+JIcBFJednR+RcP/qd1TaYaNXMdfToUURGRoqAcOrUKezatQvnzp0TfxGxs7MTD4T4+fnB3NxcY5m26KHK9ZBz/eRcNzq4fsU/5Fi3hNQE8bVfq75waeP8wn1Nxxsd66LrnD5iwUa6js/IxtGHyfC9k6Dqelf9p4rzOgk3YXwrGIatesHY8WMY2LZ/4c/T5iCayuVyyLl+RaFVMKGmKupIp8yC+kyGDBmCtm3bYv78+SKgWFpawt7eXoza8vX1hZOTk8Yyxlj5MWzJaNFHMm3AFHzYeZRUqhmt+que1U6BRD2rXb0siggkksoXD0Pv9lV8YxKK957sFUujGDtO4r1IZK7Im2NRYKEmLuqQp8Bia2sryp2dnUXAoaOgMsZY2UVzRrae2CHO3+s0FBN7qfpEC2NuV12stZV3r/b/NDCFa/PqeNfaDPp6qk/CHbLu4p3kizjRbRrMJ68UZUz+ir05FmUeLi4u0hVjrCKgPUi+2jBTBBQKJJSV5IeyEJpDcufgTbHir+MfQ3J2Rhx16C4mB91H/aqVxait7KunAP/tMMlKwTem17BI1x//168LD/0tQ4o8aTE3CiiMsfKPFmqkAELDfmcP+1bsSVIYykJoGfmY0CfiWj1nhNxJyBCHWv+2dphf9yEuvp2Gt13nw2rKaukOKyteKpgwxioGWvn3+x3zxNwRyki0mdX+8GQk3j8+MWfU1vIr0WiwMRR3EjNwxLkRNvapK+aP7Dsbin5NreCUdAK6J3eIbIQzkrKHgwljLF/qjOSX0Qu12otELXdGotatVhX8p4EJzPSlt53MDFQ7sBjmO2aIzvU1Laaj9xkL2H62CD9s/Vf1GlZmcDBhjOVLnZHQPiQF7UVCjrkdEhkJ9YvkzkjUe7R3e8MYG3vXE0Hk6LXbMKtiiKG9OsO6miF+WLcbVc/uxJZKe7C/8g5UCfydA0oZw8GEMfYC2hmRMpK1Ez21zkiM36ia08GuRn0k/0TE4587iVIJsCXoAq4s+wo3F45G9WEzUOOz1ah5ZguG6t9GNd00mOikY6xBOMyOrpW+g5UFHEwYY8+h4b8ee5fCN+Sg2IeksIzE/4u9OPNxoMhEaMQWoZFa1f64ogwm2bj4rq3oH6FshPpHBrxlhwb168FEN1Os+ktNXP30IlAZymsxa1FH+caUjcGVboo/i5UNHEwYYwIFkWPXg0XnOi2N8svoBdKdglW1MoXxm6oJherRWtQ/0q22cU7/CC0j77b5AGI2fQfjPyfD4eulIiNRT0SspKeXaycTlcp6tCQ9Kys4mDDGBJpD4rJkNPZfOCACSkEjtghlJDsc14kVf5vMbCvKaP8RGrFFe7Tv6d9ABBF1RrJ0ghPatm0HXSPVIpC5Z7RbvD0ImbqVlWeUmyiU/9NFNWUZKzs4mDDGhH6t3sG0AZ+jS+NOUsmLaNgvLdZIKCOhWe3UuT7qXKYY8jvSxgyuzS3EfbU1GzajzvqJsI27hqajvka1yaukO89UHfo1TOzfh46hMtAoD+Nu74kyVnZwMGGsghu/erLISKh/hGa0F5SRhO++KvYhoVntlJH0WjJAlD9IE1/E0igz21giLjlVzCGhrGTGgHaoaQhkF7IrYtVBX8JyXqA4OJCUPRxMGKuAVJ3sv4o+krtP78G0SsFNWpSNUACp37sR2kzuiNod64iMpLv3TbG+1qHOlcTSKLlt/HsfanpNQEMTfdSeHyh2R2TlFwcTxiooGrH1V/BOHJj5txgCXJBTC4/g1I9BYrVfGrWVYqDqHKemLXWnO/l8zd8YsnCdmEOyZbITzHQzC81IWPnAwYSxCoYykkv3roogQuts5Yf6Ry54nhRZSdc574h9SAgN+6VOdspIIkbZoaWFoSgnl+48wpTEvUjY8gOatOuCmvMOc0ZSQXAwYawCUc8h+T3gTzF/pLARW+eVweSG9zXoNTLHLmW2QVnISGuz54b9krl7gjH0x/U4NHsi2lTTRVb0fekOqyg4mDBWQeTOSAqaQ0IbWVEnO81md9o+QnS0/xORIJZFoc2saFkU9bBftTpPLuPnxytEELGYtglmH3pId1hFUeTNsRhjZU9RMpLoa1E5m1htzdLBzzfixQKNnt2sRNOWGo3YWukXjLtPYjGxRysYG1TOyUh4V8SKp9ibYzHG5I9GavVdMAjHwoK1zkgoG1EP+d0UHofll6NFFkITEXOP2Lp05yESvT1wcv1iZLzZHpZzA6Bv0166yyoarZu5li9fDjc3N3GcO3dOKn3G29tb7PdOB+0Ln18ZY6zkmFUxVQaUSFyOvKYxI6FOdtoRUX1OGQn1i9CQ3wXno8S+I9SklRvNH6FRW10aVMe75nHopntXusMqMq2CCQWPlJQUuLu7Y+zYsdi7d69055nAwECx17ujoyN8fHzyLWOMvX5fbZghMhIKHrTOVn7b69IkRFoSJfraE7y1yBHXJnUSizNSQKGvJPdoLWJ0Zhecr6wUQ37rz/FFzUlLpDusItMqmLRt2xZTp06VrpQ/TEZG0plKUFAQbGxsxLmDgwNiYmI0ljHGSkZdi7owK6BfhIb7UgCxaGKJ+n0aoWodEwQ9SFZ1sofHipV+aW/23Cgbcdvsh/F9OqClwbMl5bl/hBEdhRKdhIWFoXHjxqIwP9TUdf/+fZGd2NraSqWqYBIeHo5x48aJa2oKo2wkbxllNoUJCAiAlZWVdMUYK4pZ/8zBw/hH+P39X6USzc5+ckR8fWtFd/x8KxtWBsAIK13seZSNdtV08cbz25II51a7oVdWOOJHLUW2iaVUysq7wuJCDgomJDQ0VDor2NmzZxWzZs2SrlSOHDmi8PT0lK4U4r6mMm34+/srsrOzZXvQc8rKytJ4r7QPOdeNDrnXT/mBSrb1K6husUmxipA7l8X5l+u/Vny4yvWF19CRGpeiOLfshCL+bqzifvBdxaU/zypiUjMU9TdcU/xn722N37Mp8Jyi13erFBGPoxVJJ7wVUUsnKLKS4l54XVl9dnI45Fw/beMC0aqZy8/PT2QlhJq8IiNVq4aqO9Xt7OxEFkLotebm5hrLtKWjoyPbQ871k3Pd6OD6Ff8oqG7bgnfBYaEzfC/+i8WjF4qlUTS9Lul+Ii4sP4WLK05jt7ERZlhaiHKaxU6bV+V9PR3VlK/7IM4XhvPfgYFte9SY8jt0q5i+8LqC6lfah5zrRoec61cUWgUT6vOgDnj1aC5nZ2dRPn/+fBFQLC0tYW9vL0Zt+fr6wsnJSWMZY+zVoUUa6aCl4/u17pvv0vG0JAoN+6Xl4mnIb2vXDqI8JDo1p5M99wREQlvr/jVjJFo/DMKICZ9B34b2IeG+EVYAKUMpUjpDHj9+/Fwz1qtCzVxyRs+J0j85knPdiNzrR80Ncq2fprp1/K6HOOKS46QSzf4etlmx3eFPce56JFI0a0UkpIvr/Ow9c00R9GUfxe1FY6SSgpW1Zycncq7fK2/m0oQyDxcXF+mKMVYSci8dv3bickztn//+I7QT4qmFQbDf9C42fNJFzBtpaW4ghvrmXldLjWa004q/If97D/ZRh9F18b+o/+lv0l3GClbsYEIooDDGSk5csmpZFFo6niYhDu88TLqjQhMP6SBx9+Jw6cx90ZT1RFdXLBdPm1flXVcrR2oi7jyJg256CrJjeFkUVjQvFUwYYyXj2z3umLpxptgNcfsXG/JdOv7q+gvY/PZqMau9xrJB+G/vJmLeCM1kp7W1NKGMxPvbMUib44iT3wxD8zk+MBnxg3SXMe1wMGFMxtz+ckez6e1w7GYwgkKPi7Iutp1eaNqi4EFHrQ51ENPGChvuJ4nVfT361MdIm2rSq56nSElA8uFNIiM5AGuEmjbhTnZWbBxMGJOpGZvd4HVkE2JT4pCtyMKDmEdw37VQuvs83/G74eOyFbWVwWStc0vseZIuyvMuzpib54rlYqHGzGPbsGzuD+j+w0Zu1mLFxsGEMZnaefpvZGVnKs9ovL8OspGFDUe3iHuE9mRXN2lFD2qKQPtGol+ElkKheSP52fjrfFz/YTBMG7WAl2lf6LXtL91hrPg4mDAmM9/vmIvV/l6orEv7rNNqR2LFI0FXR+e5TvaUzGysCryLzJ6NsLdVXbFAI9HUwU7NWrGRt3A8IhqVEx9jePOa+PqHBahW503pFYwVH2+OxZiM0NDf/RcPiNnswzoOhr6eesVehfKTnx5cOg7J6WSnSYh/zOqLQ9WqilFaefdjz+vad4OQuGQMlv20COb/O8R7j7BXijfHYkwGKIi4LBmtzEj+RPDsAKyd5An3d90woecYmBiaoLquOb4ymAC3fl/j0htmiGhWC4/1dMUorYKatNSd7PR1W+V2CKhuL8rNquQfdBgrDm7mYkwGaHRWnDKg3Iu+l3NN3IbMQOhP5/BHr2Wo4VsF57zOQadFLaxxboUkfWoG09ykpZYefkZ0sh9YtQDfz/sJo2fMk+4w9mpxMGGsFNEmVlaf2YrtdWlbXVqoMbcVTpuwpo0nzsw9izNdGuL9rMpiyG9hTVppIQGI+rYnKtVpjOWGvXBE3066w9jrwcGEsRJGTVrUwU4623QU80Zoe1016ly/sv48lkz0geJhApIMKyPZQB+md+JQU/kbq2kpFLXMyFBkRd/H7/+eFJMRH9wKExmJu+tY6RWMvR4cTBgrYVtP7BQjtrae2CGWQ6EZ7bknIdIOiLSmluHZSNyoUw2LR7ZDtIkBbO/FYPyfJ/Nt1qLgcc9zCqI9RqJRD2dMrz0ZJk07S3cZe704mDBWQigboX3ZKROh5VDoa260VDwFEZp4GDupIxaO6YA6UYn4YdUx2NyLFa9RaNhjQt3J/m/wOcx90gBhNgPR/y077JoxljvaWYnhYMLYa0bNWnSQu09VG8tN7DVOrLOV26X94TjmEyomHrZ7tzlqQgH9DNV+I0QBHSR3aShdPbPTe7foZH8r6jjaD/sI9Z0+ku4wVnI4mDD2mg1bMhodv+slAsi1RWfEar+5eUz0wXfTD6Dar07wHN8JdxLSRSf7iS/bI8O+IdIM9JCqPGJ6W+Orpf2k7wKe7liI+3vXIKNuK8zJ6ITUZn3wsUMn1KuheS0uxl4nDiaMvQbUH0JNWjRK66OeH2DagCnSHRX17odE53YMTMOe4D8NTBA6voUIJGpf/tQXk864oveWd/DlEkepVOXh8X0IObAdI7q1xtJfPdG0RWvpDmMlT+tgQnvAq7ftPXfunFT6jLe3t9iilw713vCayhgrz6g5iwIIoSat+JQE0clOWUluD09FIuRIBAbui8DUA2Mxbq1qK+zCUCf7lTkj8HSPJ0IGL0HkO19LdxgrXVoFEwoetAe8u7s7xo4di71790p3ngkMDISHhwccHR3h4+OTbxlj5RllI30XOIsAoqlJa++ne/DFR3uQ+cM7+GtyV5gZqH4Fa1SvIr7mlbjzR0R92wtVVo5BxJKPcexaBJ5EPUbYlRCRkYz/Ty/plYyVLq2CSdu2bTF16lTpCkhNTZXOVIKCgmBjYyPOHRwcEBMTo7GMsfJIPW+EvtI2unmbtGjeyJOnyQh6kISUBwmwuB+HkJhUHBxuh42960mvehEFkpQTu4CUONzJMELozVvofm8f7r+7GHXHz5dexZg8FLnPZNu2bejevbt09YyRkZF09oymMsbKm2NhwdJKv39qbNKihRn/6bEWY7deg+Higfhmqwtmtil8y+vHp/zwMF0XqYpKCMmshrBMU2Vw2SkyEu5kZ3Kjo1Cik7CwMDRu3FgU5ufnn3+GtbU1nJ2fb9+lLCQkJASurq7imvpVqGkrbxk1kxUmICAAVlaatxdlTE72XTmAP09uwi9DF+DcvYtoW7cVapvWEvcykzJw48B9/Fi7Nj7ITkL1wDsIHtoM7zaqDJNKL84Vyc04YAWy9avA/+wVNNSJBU0tsdONU95RIE3XCCmT/lC9kLESUFhcUNM6mGgKJNSpbmtri6ioKCxYsED0j/j5+eHSpUsYM2bMC2W5m8ryQ8GkR48e0pX80H8zNd/paJg8VtrkXDci9/qFh4eLn/GC6kdNWTSDfXjnoSIj+WrjN1gz8becCYi0UdXyK9FoFZeCR7MPwb9bI9h93F6rTETtitsg6BgaIyBK+QuamYG3Kz9CHd1kZEEXOzNt4Lpks/RK+dDm2ZUWOdeNyLl+9DurbTDRqplr8+bNIhicPn06Z0QXmT9/vvjLLC0tYW9vL0Zt+fr6wsnJSWOZtuihyvWQc/3kXDc6ykP9jl8/iR92zsPvAevQv42D6GTv2rhzzv39471h+o0v1lc3Qdc5fbDMrRu+aVvzuT8jvyPe6/8QvfNHDI6xx1KTAfglqx0SFJVgqpOh/FoZW1LfxOLsdhq/t7QPbZ5daR1yrhsdcq5fUejcvn1bZCZpaWlaRyBC2cj27dtzmrFeFcpMevbsKV3JD2VwlI0V9UGXBDnXjci9fgVlTvsvHMCXG2biwExvHLseLDIR9Qx26mBf8PMJHG5SGysNsvHoSTJajG1T4NLwanF/TIOehRWy+n6K8NmDoTCrjfb/9RJDgBfsOoz1h88iPYO27lX+surqYHzvDpg/6vn5JnIg56xT7hmxnOunTfeHWrE3x6LMw8XFRbpirPzJPUpL7W50pOhkp0BCW+SGRKfi4clINPgrBO1PRMBmcFN0/aidVoGExETextGAf3H3SSymGw7DulpDRTmtqUVB46M+HWBiZABjg8qyDSSMkSKP5sqNAgpj5dWle1dzRmn1a91XNGmp+0YoG9k5egfmzTiIEBtL0aTl9n/ar9B7c6krHnr9F1cHzMM36d1EJnJo9kQsnTBIeoXKD8PfwQ3Pr+E3bRjmjXSQShmTn5cKJoyVR9Sk1WR6O9SzqIPFoxfgvU5DpDvAnYM3sabDSry38SpMM7PQKjsL3d6oIjKSqnWeLSOvCTVpJWz5QZw/ighHcMhVsbrv2d++RdcmLy7gyFhZwsGEMSVqyvrr3O6cpVCIukmrlr4lznqdRX+vSzgTlQJq2a6rq8Cwne/jmzWDitSkdSw4GJfuPETEkJ/w0HGmdIexso+DCWNK1KS1LHAVtgXvymnSat6gPbp738Rf/95GyE/HUO1oBEKb1MT4Ux9j2aS20ncWjpq0Hi0Z/1yTFk08pBV+GSsvOJiwCs1lyWh47P1V9IXM7PvVc01aD/xvYfT/DuChrq7oE1n9Q3et54vQ1rlP5ziJvdipSevEnRhu0mLlGgcTVuF8tWGGGKVF4lLicS9a1bTVv1lfMUqL9heZM3ATqlTSham+LkZZadcnQjseJvmuQnr4aXGdGBuNNRs3c5MWqxA4mLAKh+aJbAveKc4PzPwbi0cvFAsxfrEvFssvP4VpbApM0jNh1r0B3j8+UWyjq60k35XY98cSMXfkuwZfILhOH27SYhUCBxNW5rj95Y5m09uh6fS34L5roVRaMPX+69TBHjw7ADu+2CDKN12PFf0iF7ZfwfBVwUi5+AgT/3oPrjuGa92xTiO0Yj0nQcfIBFuaT8Hvep1Ev8ifU94TB2MVAQcTVqZQIFkftBWxKXGiiWrlwbX5BpTcux2aKt/o1ZtVEdfjcZi74iwyR2+D8dlIZDcwh0WnmvhsoLW4r29iIL7mh/pEoj1Gij6RjMgwnH0Qj97fr8bnE8Zhw8yPxKRDxioSDiasTNl+chfSs2g/HRqgq4NsZGHD0S3inhp1qFO/CMm926Hf9yfw/vFK2PrlfrRcfAQPdHVQWXl4DWyEvv2s0WRm20KDiLpPRFcZnDKVfzb1iQT3+h67G45EvRpm4jUcSFhFxMGElSk6yv+l15+ElNYbkdpmE9LrfgjdPGsa7b94QPSLqHc73HDfAkN2hSN4zF+wuvQQ6UaVYZueiZ/fb1akPhFVB/tKXNy2DMcinsJgli8WJ9jg0t1HYuY6N2mxioyDCStTarT5Ac4XbTBv5VnMW3EaA661QO3W34l741dPFsufUKf6iCEbxf7qV9afh/XsA7h/KxYZD5OwsJYBxszvg2G+YwvNQtSoT4SatKhPRH/adowIr49VB06KDOT6b9Mx3dleeiVjFRcHE1amtPDLRpeQR6iSmgmj1CzcT12O5KPbxL3TKQ2wMa6jWDer0v5bYhHG1KxsGEen4ODwxhipzEJaT+4oXluY3H0iuuZWuBGbinbTf0W1Om/C/8epL6yhxVhFx8GElSmtLz/A/jf9sb7FHnH9tGoG0iqbiPOR9uORYVAfob7hMN1wHgeNs/HWuLdEU1Zhc0TUkg9vEkFENGk9vIMN2/6CseMkBLT/EvVrmIlRWrRlLveLMPY8DiaszKB+kHCLcITXeIqnNeqLsrbpU3C77RfYc+Upms85iH3ZKbBztEGHGd2K1BdCQYSkZmQiLeqeaphvt3lYEN1QBBBqyto1YywHEcbyoRsREQE6GJMjWoCRgggR/SHNgtAm6wvcavclrjSqjm4XIjEjIAydaxkhMTIBGQnpoi+k2Zg2WmcjKSd9kOjtgcrXDuOvbDu0ftQXfrcTRAChPhEOIIwVrtibYzFWEmi/dVo/a/0pf8TaLMCYEb9h4IM7cN11FraPo1AZCgzoZIUa1auI5ixt+0QoG6HmLAok0db2WKnTEcfTLDDgLTtMH9wDXZrw7wRjRVGkZq6ff/4ZXl6qNY3y8vb2Fvu900HbUOZXxlhhaJJhp+97igCyJvptDOztjl52bfE4TQ8p1yKQeA/okXgBg7p4waGPF6zrHpO+s2DqAEJNWpFP4xAbeQuhV0KgMKyKdamNcCFeR/SHUEbC2QhjRaN1MHFzc4ORkZF09aLAwEB4eHjA0dERPj4++ZYxlh9a8oSykA030nDL8nOEPIjAg1SgUaM+iPjxDBYsC8S4yz+jv8NatGwRpPwOmnWSjdgjqtFc+aGJhpSBkJTHd7H536MigDimDcUB824igFBz1oTuLcRrGGNFp3UwcXd3R8uWLaWr5wUFBYkN8YmDgwNiYmI0ljGWlzqA3IuPxbLIxjiR1gSG+oYwMm+Od47WEQGEln2vamUCiyY1kJiqqwwgQOVK6ao/QCk9SyGdvUg90TDMfxd+8juHPX1+Ep3qhOeIMPbq6CiU6CQsLAyNGzcWhfmhABEeHo5x48ZJJSp5yymLoWwkbxkFpMIEBATAyspKumLl0fbz3gi6cRxzBs7CryGXsTu5KX5pko7f7ptjyN6rqH81Cm1XdEOU/31EBz+G3cw2qGRcWXzvv7+6wbnyLVRGpggqWcrPQzszrfHOZ8//bBkHrADCT8I+wQnrRnfDbJ9g3IjLwL6vnu1XwhgrXGFxQe2VBZOQkBC4urqKa3UwyVumbTDp0aOHdCU/1PdDGZdOniU85EDOdVt6cD12ng/Gug9m4Ofgs1j3sC7WdKsOfcPq2PDLCQx9HI/+P/bFnUM3cc//Nnou6a9xhvp/N/mh+nEvDK18U1z/nV4fj7p8hHkjHZC4dTZSQwLg3mgqWt/2Rc+qcXj3TlMs/Wyk2JDq7pNY0aSVH/rZtra2luXzk3PdCD+74pNz/eg9Rdtg8lLzTNSd6nZ2duKBED8/P5ibm2ss0xY9VLkecq6f3OoWn5GNT7f/ht8D/sSZJEtcqP4pwhKy4dCyDxwvRSPT/Qx6KhOO79rVRNatGPE9zce2heMfQ2BgavjCn0fH/FGOSOw+AX3ThonDyropZsTtQHxKGo4/ykCyeX3ciriDPVU7wXrGBrGzYbemb4rvrW9p/sKfl/uQ2/PLfci5bnTIuX5yrhsdcq5fUWgdTJYvX45du3bh1KlT4pzMnz9fBBRLS0vY29uLUVu+vr5wcnLSWMYqBlq1l+aE0F4hmxJ7Y8OVO5jU0R4Trt1F+uyz6FFJoQogN1X9aDQnpCiz1L+u/RhnWoQj3MMVzevVRPKda1DEPMDo84bwMHeBz/8+gxcvushYyaJmLhIaGiqdaefx48cKT09P6erV8ff3l87kiZ5Tdna2dCUvpVm3CfuOK978bqTiaNgJRYPl2xQ1V/gqIhLSFSMP3lF4j96mOP9bsCLAw0+xqfMqRcK9OOm7tJcUsFER89tERXZyvOKp35+K+zO6KzKfRip6fbdKYTP5R/GakIgHitikFHFeHGFhYbL9t5Vz3Qg/u+KTc/2KEheK3cxFmYeLi4t0xSqauPQssUPhsHW/YfDSCdj+wBTZJo5Iu5WMAS26YniSCY729YKHiS50UrKQeD8BbwxsgBHHPirSOlm0gyEtukjS74UiOyUBfylUs9T/uhKFpROcsGvGGHG/Rf3aPD+EsVLyUn0mFFCYPNhv9EHnwDjUWHMG72x6fXN6aI/0Rl5BeG/V12JV3vSsmtCPTMPFd22xs0YL3Jl6Gd8ZKPB/rWtJ3wE4bR+BrnP6SFcFo6G8FEBobghJvH1FLPdepcdIfGw2AU3cNoo91WmWev+37EQAoYMxVrpeKpgweaBAcjGtPrL1jJGlVwWn0t58JQGFsg+iDiADf/1MXGenGcHgQTbujKiLhZVs8Z9/OgPBd2HVvBbq92kk5oPQ16JsPKUOILTAYkZSPK5evoCMDkMx1ugD/ByoGujRpUlDscwJZR88S50xeeFgUg5cTnkDw/xvYf5vgVjw22EMPnwTZ5OLPldn1KG7+ObkI3E+Oeg+GmwMFQHETF8P/9n/AN2862FUo8rYW0UPw7ytEXvsCer3biQCR+2OdUTg6LVkgNabTuXOQNQBhIbvhjktwICQ2iIjOTR7Ik4vmiJeQwGEdzNkTJ44mJQDQ5SBpMvFBzkbRvU6fReDjtyW7haMAojTDn9sPbEDdxIy4HMtVMxIH2lthg8Dz6PLTksMrKuLsW3fgLVuLRhmGjwXQKj/oygBJG75xzkBJDb6Kbbv88PRa7dzAsiWoxfFnBDafGpE11bidZyBMCZ/HEzKgU6hj1EpS9UkRXSgQNdLD6UrFco4aBtbcicxA2+uP4cOi7/BjZhkXI98jD0eu3HEuRFGGV/G2381gdmRUIzrYAM7/TdFAKH9Qd71GyeChjYBhPo+MiNDxTntVhj1bU9UvnUa2SmJOH4yGEMWrsPVAfMwJ6OTeE3eAEL9IgVNMGSMyQsHk3Kgqr6+dPZMVYPKOSOuqM/DTF8XZx8noPeP7yE06j5aXHwKl5014NkwCess6uGdq53EfunTHMbDKqsWsp9kiuXci7pXOjVdEbG0u7TtrY5RVWQrFJh/8DJO9PwOh22GIy45TXSg0/pYFEgIBxDGyi7eHKscONXBAD+O6YBoMyOkGFTCdxOaY6FjkrgX+Sgeq3w3YlS9NPz05Bz67W6O6tFPsbhrHdTPNEVD4/po49xOjLai5isKHEXZF4Q2lVIHEOo8z4p+gLjoJzBo2RPZdl3h8tclHIw3geEsXxxMMMWlu4/g/r5DznBexlj5wJtjlSHUPNXqr+v4JyJBXA8/cAsuey+ghfkJxJjrw7PzIVy3vI73/O+i15ks0XG+6N5VfLlWFzev3US3Nl1RT2EFq+xasBncVAQNGnlFAYSutZ3/8VwAMVQFkFHzV2M5OqD6LB8MWbJLDOE1GvMjrj1NEQGE+j1okUX1Kr3cD8JY+cLNXDJEzVK5+zfUAYSaraKSUzHvn+VIjIxH19n/IsrvJHRiTmDplk0YdKEamtj5oUvULfRMjBLf39XJXnSWv92qU5GG6+beSIpQE9bTOaolcXIHEM/UJiKA0L4jNBKLDO/aCpMcOomAwcu8M1YxcDApYTR6iobdElq7igIFBQzaz6PZxtOYfeoeHien4Pj9p5irDBrR0Sl4f3kQtv13JVpaGMItNAD9tsQjMTUR1TOzMUInFea1OkA3xQR9s6tgsF5lvP22D4z6qpq5tBmuS6OrKFgQdV8HzTqnI+zWbdh+ugg3UvWhZ/FGvgGEhvBSBzr5WBlIOIAwVrGU+2AyfvVkMdT1dcsvm6AtaOt6bsY7u86Ie0G3b8Ev7LI4vxNyFh8uDsCJnWdwMvw0Bmy9guxfDuGrFqYYeGQJai/IRP3kdNTOTELDrFjEpyizkbqdYJPRABY1q2PUiY/hungKBisDTdUhMbBrE4hE6OOiZWc4fLNM/B25UbaRrvx7CAUKyjSogzztUgBSr5/GpTsPoWtkgvQn9zBSGTROD1uJpM4jxesftBqGapNX5RtAGGMVW7kNJjM++BPL2y1H9d2t0WyPan+U979aiBXtViDodAR2BPniO8c18Phmv3iTHjfRA3MHqPa399i6Ab90XY1dWy7jVsQtdJ+1TgQDalo68MF+9P72kAgYG5V/B/0Z3xy7gcSgmxg4ax8WrPdEZmIahqwNxj+z14s/r+NFoM/vyv9TantzGab/fhl3Dt5ES9NUVElOQJWI+xj61jtonZGMTqbGMDUyhfuY71El0xDpCWn4MPAzzN4yR5RTxzg1VeXNNBy+XoyMT9ajocdxdGn2Zk7zlHp9K0JZR6znxyKAUGBJjovBkh37YTFtE3zemobe36/GoYw3cOODdTinUC2HQiOtqKmKRl4RDiCMMU3KZTChQNL4fDKqpGWhZpIuDJTvu19PWIfUFNUn6osnw+C5/zgM0xXIfJSAPw6dRlaSAtUfpSIk/CHO3IyAYWqWMnN4gAfKbOOj3fGocUHVNFU5DbCKSsKdhHQonqQjxbAyHiQmwqm+EXSzU6B4nIC6xpXRMCkWuo8vwayKKb5vZY2G0ZkiMGxw/R2mCmPEhD7Bf94ZgI/PT8VAt6Hizx6z7xMMWD5MnGvq36AAQAehwECZBWUY6v4Nw9M7VEFCGUD89+4QGURKQixiblzC2n/8xQirQMuecFh3BpXq2GFLt3nYmlQHccmp6NuprWieouVK8gYQxhgrTLkMJm9eTs6ZxDfE9i8MqrYX1ucTseVTRwzrtwXvdwTc0s+gscNVzFj7LqxvH8XoWgfx/pFxOH/5LL5+tB+2Mwwx9Kv2eHRxJRq0uod10xywfP2vcOi1BX8uaIeEB/cwu2EsPl8zCF4OrdGkfwtMOvcVvpk2Q2QNlE0s2+P5QjZBI6ZGHBqBeim/5MwEz5095G5+InF/TBMHSQ7cLCb/fTRvmWiOykyOxwTl+b8XrosgcuzKdXzvfQJnRm+CW+JbuKMMJpV6j4dD6hA8zdSDnoUVbjVzhkUNSxFAqF/jzKIpoqOc5nfQkF0eZcUYK45yGUxUGxGrHD0+CGfP94FCR0d8MrecG4BqzTujVS0TOL5pIl7Ty6YW3qqSAlOdDIzs3gY1DXXQpkqyuFfTIApVWzwUgeBJvKosMzIMdgfcMV7vknjDPvrHTzg47T8iE4iNvIXL/9cTW9f8Jl57YeF4+P1XtZ5U5NF/cHPq2wg8eky8+e8/cUYZjP6GIjURSRFX4fTdMjyIiUeWMkis2bgZi7wDlcHlAS5GPES76b+isrUyQNRoibORcUi17oyoT7biaIq5CBTUIf5rpiqAUEZBOwxShpF3RBV93TVjLAcNxtgrVS6Dyc0305GppyddKYMLdHCjYbp0pZpcR/0EJiNUI5iMHSeJIEPl9OndakEgqg+cLD6td138L9r/V9WXsnDeXKR/7AV9m3aoVikbn3V5U7xhG+uko6EiGpH3I8XrjLLTUCXmjjg3SHqCeGUWQJlAclqGsi5ARGSkePP/Lbu9KKe//+Lw38WcjIgMQxjM8sXiBBvx/VTPE20/Rv0aZkixaiHqQoGCggEtvU6BgmaOkz/GO8Drs3fFOWOMlSQd2iGLTsLCwrTeOP51CggIQM+ePaWr4gn/6m2sjHwXNjdUn77D38yAa/0taPTzcXH9Mug52draFnl/5JIg57oRudePtqC2sbGRZf3kXDfCz6745Fy/osQFrTMTb29vsZ87HfQfn5em+4V9z+tys2Y7fFl3C4b0+B1Dlce0+usRbtlOussYY+xV0zqYBAYGwsPDA46OjvDxeXHjJU33C/ue14XmWFyu3RVJ0C9w3gVjjLFXQ6tgEhQUJNIw4uDggJiYGHGupul+Yd/zutG8izd/PiEODiSMMfZ6adVnQoEhPDwc48aNE9dubm5wd3cX50TTfcpGCvqe/Jw/fx6xsar5IIwxxkpPzZo10axZM+mqYFoHk5CQELi6uoprTcEk730KJgV9D2OMsfJDq2YuOzs7kWUQPz8/mJubi3N1p7qm+/l9D2OMsfJH78MPP/whLi4OWVlZqF69ulT8PGNjY6SmpmL16tW4ceMGRo0aJV47ffp0kQLVq1fvhfuayvL78xljjJVtxZ5nEhUVhe3bt+c0YzHGGKu4ij0D3tLSEi4uLtIVY4yxiqzYwYRQQGGMMcZeKpgwxhhjhIMJY4yxl8bBhDHG2Esr9VWDz507h507d4pzKysrMTqMRootXboUycnJaNmyZc4s+tKwfPly3L+v2mVx6NChaNu2rcay0qDp2anR3J4jR46U6kRRWujz9GnVnvPt27eHs7Pzc3VWl5UG+hlbtWqVGL5uaGiISZMmiT7AuXPnvlBWGvJ7dhs2bBBlNCmYlikqDZqeHdH0PEuDpmenRr+7RkZGpfaekt/Pnfo9RY7PTv1ekrtMIwomJDQ0VDorWXPmzFEoA5k49/DwUJw9e1bxxx9/KHx9fUXZ1KlTc+6XNKoL1YlQHaiumspKi6ZnpzZr1ixxlCb6t1NTn9PXx48f55yXlk2bNil2794tzukrXSt/YRSenp45Zer7pUHTs6N/T3p2dEyePFmUlQZNz05TWWnR9OwI/a7Qc6P3l9Ki6TnRV3Wd6H2vNOtX0M+d+jw/pd7M9e2334o9LtSSkpLEJEf1p33KTB49eiTOSxrVQflApSuITxOaykqLpmdHvLy8xCfX0kYrRqvRc6JPZVWqVMn51JX7fkl7//33n/uElZaWJp2pUFZcmnI/G3pmhOpEz44OCwsLUVYa8j47ql9hz7MkaXp2ZNu2bfl/qi4hmp4dZSS5F8UtzZaY/J6dWkG/F7LpM6EUPjIyEt26dRPXpZXm5Yd+ELt37y5dqWgqKw25nx29Yed+jnKwefNmtGjRAsrsF9HR0aIpidZqo9S+tNHzoq0SunbtKp4ZLQFEdbty5Uqpv/FQkwPVRf0zpumXuzRR3S5duvTcc8r9PEtT3mdH6wfWqVNHNs8w97OjYHL48GFRRgf9PpemvM+Ovv7www9iX6qCPqTKIpio29Fnzpwplah+KOXi559/Fm+GuduoNZWVhrzPbv369XjvPdWe83JAP5gPHjwQ/Tm1atUSbcKUUVFfTkpKSqn+4tDPGPXNjR49WmR4FPSoTZjqRl8pwytN9Ebz+eefw9fXV9S1tLOlvOg5NWrUKOc55X2epSnvs6OvpfmJP6/cz47WLezQoYMoGzt2LPbu3Su9qnRoenYUTOg9hvpOqEyTUg8m6jdDqrw6G6HOZPWbDK08TG9CpYWChrW19XOfvjSVlQZNz44+7axbt058sqAMpTQ//VMgoSZLdbMgvcHQJ8P8fhhLkvqNL/cACmqaUa8fR2vO0fMrDVQ3+hRI6N+Vntm9e/fENd2jgzK80kI/U9QpS2gNPnpOmp5nadD07Kiu9Lzod2LXrl04deqU+NksDZqeHb2XPH36VJSVpoJ+7uiaDgp86rK8Sn001/jx40UF1eknfSLs0qWLLEZz0SfVAwcOiPRYjd5k8pbRJ4rSoOnZ5Q5w9MtTWnWjQLdo0SLxi6JGbzREPZor7wi0kkRNbdS8oO57oLp07tw5p270s0efsEvrjZF+9qipjaifEz1TOYzmotXCqYlX3V9I/670aTrv8yytf1tNz04t795LJU3Ts6OfMfVortxlpUHTs1PXjX4nqG8nv3/XUg8mjDHGyj6etMgYY+ylcTBhjDH20nQjIiJAB2OMMVZcug0aNAAdjDHGWHFxMxdjjLGXxsGEMcbYS+Ngwhhj7KVxMGGMMfaSgP8HutenIPmVP5IAAAAASUVORK5CYII=;" parent="MdBtM0RcR3EC5CGPybYr-30" vertex="1">
          <mxGeometry x="384" y="199" width="403" height="243" as="geometry" />
        </mxCell>
        <mxCell id="MdBtM0RcR3EC5CGPybYr-32" style="edgeStyle=orthogonalEdgeStyle;rounded=0;orthogonalLoop=1;jettySize=auto;html=1;entryX=0;entryY=0.5;entryDx=0;entryDy=0;strokeWidth=3;" parent="vrtAtZKuDrGTrBNEmQKv-4" source="vrtAtZKuDrGTrBNEmQKv-26" target="MdBtM0RcR3EC5CGPybYr-23" edge="1">
          <mxGeometry relative="1" as="geometry" />
        </mxCell>
        <mxCell id="W5TQijJyQ9mE0h_75X8s-142" value="AVTest.py" style="swimlane;whiteSpace=wrap;html=1;fontSize=24;startSize=43;" parent="1" vertex="1">
          <mxGeometry x="2224" y="3092" width="638" height="1157" as="geometry" />
        </mxCell>
        <mxCell id="W5TQijJyQ9mE0h_75X8s-143" value="&lt;h1 style=&quot;margin-top: 0px;&quot;&gt;&lt;font style=&quot;font-size: 24px;&quot;&gt;getVQA&lt;/font&gt;&lt;/h1&gt;&lt;div style=&quot;font-size: 17px;&quot;&gt;&lt;font style=&quot;font-size: 17px;&quot;&gt;interacts with FastVQA and FasterVQA&lt;/font&gt;&lt;/div&gt;&lt;div style=&quot;font-size: 17px;&quot;&gt;&lt;font style=&quot;font-size: 17px;&quot;&gt;runs function multiple times, averages the result&lt;/font&gt;&lt;/div&gt;&lt;div style=&quot;font-size: 17px;&quot;&gt;&lt;font style=&quot;font-size: 17px;&quot;&gt;&lt;br&gt;&lt;/font&gt;&lt;/div&gt;&lt;div style=&quot;&quot;&gt;&lt;font style=&quot;font-size: 24px;&quot;&gt;&lt;b&gt;t&lt;/b&gt;&lt;/font&gt;&lt;font style=&quot;font-size: 24px;&quot;&gt;&lt;b&gt;estFFMEG&lt;/b&gt;&lt;/font&gt;&lt;/div&gt;&lt;div style=&quot;font-size: 17px;&quot;&gt;&lt;font style=&quot;font-size: 17px;&quot;&gt;runs and watches basic ffmpeg comands&lt;/font&gt;&lt;/div&gt;&lt;div style=&quot;font-size: 17px;&quot;&gt;&lt;font style=&quot;font-size: 17px;&quot;&gt;&lt;br&gt;&lt;/font&gt;&lt;/div&gt;&lt;div style=&quot;&quot;&gt;&lt;font style=&quot;font-size: 24px;&quot;&gt;&lt;b&gt;getDuration&lt;/b&gt;&lt;/font&gt;&lt;/div&gt;&lt;div style=&quot;font-size: 17px;&quot;&gt;&lt;font style=&quot;font-size: 17px;&quot;&gt;uses ffprobe to get video duration in seconds&lt;/font&gt;&lt;/div&gt;&lt;div style=&quot;font-size: 17px;&quot;&gt;&lt;font style=&quot;font-size: 17px;&quot;&gt;&lt;br&gt;&lt;/font&gt;&lt;/div&gt;&lt;div style=&quot;&quot;&gt;&lt;font size=&quot;1&quot; style=&quot;&quot;&gt;&lt;b style=&quot;font-size: 24px;&quot;&gt;getVMAF&lt;/b&gt;&lt;/font&gt;&lt;/div&gt;&lt;div style=&quot;font-size: 17px;&quot;&gt;&lt;font style=&quot;font-size: 17px;&quot;&gt;runs VMAF on multiple cores&lt;/font&gt;&lt;/div&gt;&lt;div style=&quot;font-size: 17px;&quot;&gt;&lt;font style=&quot;font-size: 17px;&quot;&gt;output is aved to ./VMAFlog.json and parsed&lt;/font&gt;&lt;/div&gt;&lt;div style=&quot;font-size: 17px;&quot;&gt;&lt;font style=&quot;font-size: 17px;&quot;&gt;VMAFlog.json can be deleted&lt;/font&gt;&lt;/div&gt;&lt;div style=&quot;font-size: 17px;&quot;&gt;&lt;font style=&quot;font-size: 17px;&quot;&gt;&lt;br&gt;&lt;/font&gt;&lt;/div&gt;&lt;div style=&quot;&quot;&gt;&lt;font style=&quot;font-size: 24px;&quot;&gt;&lt;b&gt;&lt;u&gt;getRes_parallel&lt;/u&gt;&lt;/b&gt;&lt;/font&gt;&lt;/div&gt;&lt;div style=&quot;font-size: 17px;&quot;&gt;&lt;font style=&quot;font-size: 17px;&quot;&gt;main function for calculationg target resolution&lt;/font&gt;&lt;/div&gt;&lt;div style=&quot;font-size: 17px;&quot;&gt;&lt;font style=&quot;font-size: 17px;&quot;&gt;uses multiprocessing to run multiple VQAs in parallel&lt;/font&gt;&lt;/div&gt;&lt;div style=&quot;font-size: 17px;&quot;&gt;&lt;font style=&quot;font-size: 17px;&quot;&gt;&lt;span style=&quot;white-space: pre;&quot;&gt;&#x9;&lt;/span&gt;video_folder - workpplace (creates its own folder here)&lt;br&gt;&lt;/font&gt;&lt;/div&gt;&lt;div style=&quot;font-size: 17px;&quot;&gt;&lt;font style=&quot;font-size: 17px;&quot;&gt;&lt;span style=&quot;white-space: pre;&quot;&gt;&#x9;&lt;/span&gt;h_res_values - created to work with [854, 3840]&lt;br&gt;&lt;/font&gt;&lt;/div&gt;&lt;div style=&quot;font-size: 17px;&quot;&gt;&lt;font style=&quot;font-size: 17px;&quot;&gt;&lt;span style=&quot;white-space: pre;&quot;&gt;&#x9;&lt;/span&gt;decode_table - dictionary eg:&amp;nbsp;&lt;/font&gt;&lt;font face=&quot;Helvetica&quot;&gt;&lt;span style=&quot;background-color: rgb(31, 31, 31); color: rgb(204, 204, 204); font-size: 14px; white-space: pre;&quot;&gt;{&lt;/span&gt;&lt;span style=&quot;font-size: 14px; white-space: pre; color: rgb(181, 206, 168);&quot;&gt;854&lt;/span&gt;&lt;span style=&quot;background-color: rgb(31, 31, 31); color: rgb(204, 204, 204); font-size: 14px; white-space: pre;&quot;&gt;: &lt;/span&gt;&lt;span style=&quot;font-size: 14px; white-space: pre; color: rgb(212, 212, 212);&quot;&gt;-&lt;/span&gt;&lt;span style=&quot;font-size: 14px; white-space: pre; color: rgb(181, 206, 168);&quot;&gt;10&lt;/span&gt;&lt;span style=&quot;background-color: rgb(31, 31, 31); color: rgb(204, 204, 204); font-size: 14px; white-space: pre;&quot;&gt;, &lt;/span&gt;&lt;span style=&quot;font-size: 14px; white-space: pre; color: rgb(181, 206, 168);&quot;&gt;1280&lt;/span&gt;&lt;span style=&quot;background-color: rgb(31, 31, 31); color: rgb(204, 204, 204); font-size: 14px; white-space: pre;&quot;&gt;: &lt;/span&gt;&lt;span style=&quot;font-size: 14px; white-space: pre; color: rgb(212, 212, 212);&quot;&gt;-&lt;/span&gt;&lt;span style=&quot;font-size: 14px; white-space: pre; color: rgb(181, 206, 168);&quot;&gt;1e-04&lt;/span&gt;&lt;span style=&quot;background-color: rgb(31, 31, 31); color: rgb(204, 204, 204); font-size: 14px; white-space: pre;&quot;&gt;, &lt;/span&gt;&lt;span style=&quot;font-size: 14px; white-space: pre; color: rgb(181, 206, 168);&quot;&gt;1920&lt;/span&gt;&lt;span style=&quot;background-color: rgb(31, 31, 31); color: rgb(204, 204, 204); font-size: 14px; white-space: pre;&quot;&gt;: &lt;/span&gt;&lt;span style=&quot;font-size: 14px; white-space: pre; color: rgb(212, 212, 212);&quot;&gt;-&lt;/span&gt;&lt;span style=&quot;font-size: 14px; white-space: pre; color: rgb(181, 206, 168);&quot;&gt;6.9e-05&lt;/span&gt;&lt;span style=&quot;background-color: rgb(31, 31, 31); color: rgb(204, 204, 204); font-size: 14px; white-space: pre;&quot;&gt;, &lt;/span&gt;&lt;span style=&quot;font-size: 14px; white-space: pre; color: rgb(181, 206, 168);&quot;&gt;3840&lt;/span&gt;&lt;span style=&quot;background-color: rgb(31, 31, 31); color: rgb(204, 204, 204); font-size: 14px; white-space: pre;&quot;&gt;: &lt;/span&gt;&lt;span style=&quot;font-size: 14px; white-space: pre; color: rgb(212, 212, 212);&quot;&gt;-&lt;/span&gt;&lt;span style=&quot;font-size: 14px; white-space: pre; color: rgb(181, 206, 168);&quot;&gt;4e-05&lt;/span&gt;&lt;span style=&quot;background-color: rgb(31, 31, 31); color: rgb(204, 204, 204); font-size: 14px; white-space: pre;&quot;&gt;}&lt;/span&gt;&lt;/font&gt;&lt;/div&gt;&lt;div style=&quot;font-size: 17px;&quot;&gt;&lt;font style=&quot;font-size: 17px;&quot;&gt;&lt;span style=&quot;white-space: pre;&quot;&gt;&#x9;&lt;/span&gt;keep_best_slopes&amp;nbsp; - keeps just 60% of the scenes, removing the bad ones&lt;br&gt;&lt;/font&gt;&lt;/div&gt;&lt;div style=&quot;font-size: 17px;&quot;&gt;&lt;font style=&quot;font-size: 17px;&quot;&gt;&lt;br&gt;&lt;/font&gt;&lt;/div&gt;&lt;div style=&quot;&quot;&gt;&lt;font style=&quot;font-size: 24px;&quot;&gt;&lt;b&gt;_run_VQA_process&lt;/b&gt;&lt;/font&gt;&lt;/div&gt;&lt;div style=&quot;font-size: 17px;&quot;&gt;function of getRes_parallel&lt;/div&gt;&lt;div style=&quot;font-size: 17px;&quot;&gt;runs and reads output from VQA&lt;/div&gt;&lt;div style=&quot;font-size: 17px;&quot;&gt;&lt;br&gt;&lt;/div&gt;&lt;div style=&quot;&quot;&gt;&lt;font style=&quot;font-size: 24px;&quot;&gt;&lt;b&gt;_prepareRes_test&lt;/b&gt;&lt;/font&gt;&lt;/div&gt;&lt;div style=&quot;font-size: 18px;&quot;&gt;&lt;font style=&quot;font-size: 18px;&quot;&gt;creates needed folder&lt;/font&gt;&lt;/div&gt;&lt;div style=&quot;font-size: 18px;&quot;&gt;&lt;font style=&quot;font-size: 18px;&quot;&gt;creates testing video files&lt;/font&gt;&lt;/div&gt;&lt;div style=&quot;font-size: 18px;&quot;&gt;&lt;font style=&quot;font-size: 18px;&quot;&gt;&lt;br&gt;&lt;/font&gt;&lt;/div&gt;&lt;div style=&quot;&quot;&gt;&lt;font size=&quot;1&quot; style=&quot;&quot;&gt;&lt;b style=&quot;&quot;&gt;&lt;u style=&quot;font-size: 24px;&quot;&gt;getCQ&lt;/u&gt;&lt;/b&gt;&lt;/font&gt;&lt;/div&gt;&lt;div style=&quot;font-size: 18px;&quot;&gt;&lt;font style=&quot;font-size: 18px;&quot;&gt;creates testing files, runs VMAF and calculate average CQ value&lt;/font&gt;&lt;/div&gt;&lt;div style=&quot;font-size: 18px;&quot;&gt;&lt;font style=&quot;font-size: 18px;&quot;&gt;&lt;span style=&quot;white-space: pre;&quot;&gt;&#x9;&lt;/span&gt;h_res - resolution to test the videos at (can be different then orig)&lt;br&gt;&lt;/font&gt;&lt;/div&gt;&lt;div style=&quot;font-size: 18px;&quot;&gt;&lt;font style=&quot;font-size: 18px;&quot;&gt;&lt;span style=&quot;white-space: pre;&quot;&gt;&#x9;&lt;/span&gt;threashold variable - difference in exponential grow eg:1&lt;br&gt;&lt;/font&gt;&lt;/div&gt;&lt;div style=&quot;font-size: 18px;&quot;&gt;&lt;font style=&quot;font-size: 18px;&quot;&gt;&lt;span style=&quot;white-space: pre;&quot;&gt;&#x9;&lt;/span&gt;&lt;br&gt;&lt;/font&gt;&lt;/div&gt;&lt;div style=&quot;font-size: 18px;&quot;&gt;&lt;font style=&quot;font-size: 18px;&quot;&gt;&lt;br&gt;&lt;/font&gt;&lt;/div&gt;&lt;div style=&quot;&quot;&gt;&lt;font size=&quot;1&quot; style=&quot;&quot;&gt;&lt;b style=&quot;font-size: 24px;&quot;&gt;_createAndTestVMAF&lt;/b&gt;&lt;/font&gt;&lt;/div&gt;&lt;div style=&quot;font-size: 18px;&quot;&gt;&lt;font style=&quot;font-size: 18px;&quot;&gt;uses FFMPEG to create a video&lt;/font&gt;&lt;/div&gt;&lt;div style=&quot;font-size: 18px;&quot;&gt;&lt;font style=&quot;font-size: 18px;&quot;&gt;uses getVMAF function to calculate VMAF&lt;/font&gt;&lt;/div&gt;&lt;div style=&quot;font-size: 18px;&quot;&gt;&lt;font style=&quot;font-size: 18px;&quot;&gt;&lt;br&gt;&lt;/font&gt;&lt;/div&gt;&lt;div style=&quot;&quot;&gt;&lt;font size=&quot;1&quot; style=&quot;&quot;&gt;&lt;b style=&quot;&quot;&gt;&lt;u style=&quot;font-size: 24px;&quot;&gt;getNumOfChannels&lt;/u&gt;&lt;/b&gt;&lt;/font&gt;&lt;/div&gt;&lt;div style=&quot;font-size: 17px;&quot;&gt;calculates simmilariy of audio tracks using mean square error&lt;/div&gt;&lt;div style=&quot;font-size: 17px;&quot;&gt;if this error is low two tracks are considered the same (similarity_cutoff)&lt;/div&gt;&lt;div style=&quot;font-size: 17px;&quot;&gt;&lt;br&gt;&lt;/div&gt;&lt;div style=&quot;&quot;&gt;&lt;font style=&quot;font-size: 24px;&quot;&gt;&lt;b&gt;_extractAudio&lt;/b&gt;&lt;/font&gt;&lt;/div&gt;&lt;div style=&quot;font-size: 17px;&quot;&gt;extracts audio from movie with given length to lossless wav&lt;/div&gt;&lt;div style=&quot;font-size: 17px;&quot;&gt;&lt;br&gt;&lt;/div&gt;" style="text;html=1;whiteSpace=wrap;overflow=hidden;rounded=0;" parent="W5TQijJyQ9mE0h_75X8s-142" vertex="1">
          <mxGeometry x="17" y="62" width="609.5" height="1109" as="geometry" />
        </mxCell>
        <mxCell id="VoxQ2xOeLB6ngErJ3XlM-2" style="edgeStyle=orthogonalEdgeStyle;rounded=0;orthogonalLoop=1;jettySize=auto;html=1;exitX=0.5;exitY=1;exitDx=0;exitDy=0;entryX=0.5;entryY=0;entryDx=0;entryDy=0;" parent="1" source="L9FCAbR1SAZbxVRidALx-2" target="W5TQijJyQ9mE0h_75X8s-142" edge="1">
          <mxGeometry relative="1" as="geometry">
            <mxPoint x="2641" y="3019" as="targetPoint" />
            <Array as="points">
              <mxPoint x="3030" y="2957" />
              <mxPoint x="2543" y="2957" />
            </Array>
          </mxGeometry>
        </mxCell>
        <mxCell id="L9FCAbR1SAZbxVRidALx-2" value="Audio compression input parameters" style="swimlane;whiteSpace=wrap;html=1;fontSize=30;fontStyle=5;startSize=57;" parent="1" vertex="1">
          <mxGeometry x="2617" y="600" width="835" height="1267" as="geometry">
            <mxRectangle x="-59" y="602" width="133" height="26" as="alternateBounds" />
          </mxGeometry>
        </mxCell>
        <mxCell id="L9FCAbR1SAZbxVRidALx-3" value="Overview" style="swimlane;whiteSpace=wrap;html=1;fontSize=24;startSize=37;" parent="L9FCAbR1SAZbxVRidALx-2" vertex="1">
          <mxGeometry x="27" y="70" width="760" height="760" as="geometry">
            <mxRectangle x="27" y="70" width="762" height="26" as="alternateBounds" />
          </mxGeometry>
        </mxCell>
        <mxCell id="1dJ46m4vOwlLkJJRcBy2-1" value="&lt;font style=&quot;font-size: 24px;&quot;&gt;Sample rate&lt;/font&gt;" style="swimlane;horizontal=0;whiteSpace=wrap;html=1;startSize=70;" parent="L9FCAbR1SAZbxVRidALx-3" vertex="1">
          <mxGeometry x="55" y="65" width="668" height="134" as="geometry" />
        </mxCell>
        <mxCell id="1dJ46m4vOwlLkJJRcBy2-2" value="&lt;div style=&quot;text-align: left; font-size: 17px;&quot;&gt;&lt;span style=&quot;background-color: initial;&quot;&gt;&lt;font style=&quot;font-size: 17px;&quot;&gt;Use FFT&lt;/font&gt;&lt;/span&gt;&lt;/div&gt;&lt;div style=&quot;font-size: 17px;&quot;&gt;&lt;font style=&quot;font-size: 17px;&quot;&gt;-when encodeded, no affect on file size&lt;/font&gt;&lt;/div&gt;&lt;div style=&quot;text-align: left; font-size: 17px;&quot;&gt;&lt;font style=&quot;font-size: 17px;&quot;&gt;-leave as is&lt;/font&gt;&lt;/div&gt;" style="text;html=1;align=center;verticalAlign=middle;resizable=0;points=[];autosize=1;strokeColor=none;fillColor=none;" parent="1dJ46m4vOwlLkJJRcBy2-1" vertex="1">
          <mxGeometry x="88" y="30.5" width="313" height="73" as="geometry" />
        </mxCell>
        <mxCell id="1dJ46m4vOwlLkJJRcBy2-3" value="&lt;font style=&quot;font-size: 24px;&quot;&gt;Codec&lt;/font&gt;" style="swimlane;horizontal=0;whiteSpace=wrap;html=1;startSize=70;" parent="L9FCAbR1SAZbxVRidALx-3" vertex="1">
          <mxGeometry x="55" y="223" width="668" height="134" as="geometry" />
        </mxCell>
        <mxCell id="1dJ46m4vOwlLkJJRcBy2-6" value="&lt;span style=&quot;font-size: 17px;&quot;&gt;AAC/OPUS/MP3/Vorbis&lt;/span&gt;&lt;div style=&quot;text-wrap: nowrap; font-size: 17px;&quot;&gt;&lt;span style=&quot;text-wrap: wrap;&quot;&gt;-Opus supports best compression, not yet supported on many devices&lt;/span&gt;&lt;/div&gt;&lt;div style=&quot;text-wrap: nowrap; font-size: 17px;&quot;&gt;&lt;span style=&quot;text-wrap: wrap;&quot;&gt;-Vorbis offers good compression with more devices supporting it.&lt;/span&gt;&lt;/div&gt;&lt;div style=&quot;text-wrap: nowrap; font-size: 17px;&quot;&gt;&lt;span style=&quot;text-wrap: wrap;&quot;&gt;-free aac&amp;nbsp;&lt;/span&gt;&lt;span style=&quot;text-wrap: wrap; background-color: initial;&quot;&gt;sukcs&lt;/span&gt;&lt;/div&gt;&lt;div style=&quot;text-wrap: nowrap; font-size: 17px;&quot;&gt;&lt;span style=&quot;text-wrap: wrap; background-color: initial;&quot;&gt;-libmp3lame as recomanded by ffmpeg website&lt;/span&gt;&lt;/div&gt;" style="text;html=1;align=left;verticalAlign=middle;whiteSpace=wrap;rounded=0;" parent="1dJ46m4vOwlLkJJRcBy2-3" vertex="1">
          <mxGeometry x="86" y="16" width="568" height="105" as="geometry" />
        </mxCell>
        <mxCell id="1dJ46m4vOwlLkJJRcBy2-7" value="&lt;font style=&quot;font-size: 24px;&quot;&gt;Num of channels&lt;/font&gt;" style="swimlane;horizontal=0;whiteSpace=wrap;html=1;startSize=70;" parent="L9FCAbR1SAZbxVRidALx-3" vertex="1">
          <mxGeometry x="55" y="382" width="668" height="134" as="geometry" />
        </mxCell>
        <mxCell id="1dJ46m4vOwlLkJJRcBy2-8" value="&lt;span style=&quot;font-size: 17px;&quot;&gt;Sometimes &quot;upscaled&quot;&lt;/span&gt;&lt;div&gt;&lt;span style=&quot;font-size: 17px;&quot;&gt;Most common setup is mono/stereo&lt;/span&gt;&lt;/div&gt;&lt;div&gt;&lt;span style=&quot;font-size: 17px;&quot;&gt;Detect number of channels based on differences. Using a constant, determine wether to use 6 ,4, 2 or 1 channel&lt;/span&gt;&lt;/div&gt;&lt;div&gt;&lt;span style=&quot;font-size: 17px;&quot;&gt;Simmilarity cutoff set to 0.001, more research is needed&lt;/span&gt;&lt;/div&gt;" style="text;html=1;align=left;verticalAlign=middle;whiteSpace=wrap;rounded=0;" parent="1dJ46m4vOwlLkJJRcBy2-7" vertex="1">
          <mxGeometry x="86" y="16" width="568" height="105" as="geometry" />
        </mxCell>
        <mxCell id="1dJ46m4vOwlLkJJRcBy2-9" value="&lt;font style=&quot;font-size: 24px;&quot;&gt;Cq&lt;/font&gt;" style="swimlane;horizontal=0;whiteSpace=wrap;html=1;startSize=70;" parent="L9FCAbR1SAZbxVRidALx-3" vertex="1">
          <mxGeometry x="55" y="554" width="668" height="134" as="geometry" />
        </mxCell>
        <mxCell id="1dJ46m4vOwlLkJJRcBy2-10" value="&lt;span style=&quot;font-size: 17px;&quot;&gt;CQ for libmp3lame is between 0(~320kbps) and 9 (~64 kbps)&lt;/span&gt;&lt;div&gt;&lt;span style=&quot;font-size: 17px;&quot;&gt;CQ for vorbis 0-9&lt;/span&gt;&lt;/div&gt;&lt;div&gt;&lt;span style=&quot;font-size: 17px;&quot;&gt;&amp;nbsp;- libvorbis at cq 3 was selected, no need for high/low pass filters more reserach is needed, lagging on vlc&lt;br&gt;&lt;/span&gt;&lt;div&gt;&lt;span style=&quot;font-size: 17px;&quot;&gt;&lt;br&gt;&lt;/span&gt;&lt;/div&gt;&lt;/div&gt;" style="text;html=1;align=left;verticalAlign=middle;whiteSpace=wrap;rounded=0;" parent="1dJ46m4vOwlLkJJRcBy2-9" vertex="1">
          <mxGeometry x="86" y="16" width="568" height="105" as="geometry" />
        </mxCell>
        <mxCell id="-mINFWNt5cziRGpvpEM8-1" value="&lt;font style=&quot;font-size: 24px;&quot;&gt;Conclusion&lt;/font&gt;" style="swimlane;horizontal=0;whiteSpace=wrap;html=1;startSize=70;" parent="L9FCAbR1SAZbxVRidALx-2" vertex="1">
          <mxGeometry x="73" y="876" width="668" height="238" as="geometry" />
        </mxCell>
        <mxCell id="-mINFWNt5cziRGpvpEM8-2" value="&lt;div&gt;&lt;div&gt;&lt;span style=&quot;font-size: 17px;&quot;&gt;-nonfree ffmpeg build with --enable libfdk_aac&lt;/span&gt;&lt;/div&gt;&lt;/div&gt;&lt;div&gt;&lt;span style=&quot;font-size: 17px;&quot;&gt;cq - 3&lt;/span&gt;&lt;/div&gt;&lt;div&gt;&lt;span style=&quot;font-size: 17px;&quot;&gt;using high profile&lt;/span&gt;&lt;/div&gt;&lt;div&gt;&lt;span style=&quot;font-size: 17px;&quot;&gt;aac_he for mono, 4 and 6 ch&lt;/span&gt;&lt;/div&gt;&lt;div&gt;&lt;span style=&quot;font-size: 17px;&quot;&gt;aac_v2 for stereo&lt;/span&gt;&lt;/div&gt;" style="text;html=1;align=left;verticalAlign=middle;whiteSpace=wrap;rounded=0;" parent="-mINFWNt5cziRGpvpEM8-1" vertex="1">
          <mxGeometry x="86" y="16" width="568" height="199" as="geometry" />
        </mxCell>
        <mxCell id="-mINFWNt5cziRGpvpEM8-4" value="Presets" style="swimlane;whiteSpace=wrap;html=1;fontSize=24;startSize=43;" parent="1" vertex="1">
          <mxGeometry x="-234" y="4021" width="638" height="608" as="geometry" />
        </mxCell>
        <mxCell id="-mINFWNt5cziRGpvpEM8-5" value="&lt;h1 style=&quot;margin-top: 0px;&quot;&gt;Saved in presets.yaml&lt;/h1&gt;&lt;div&gt;&lt;br&gt;&lt;/div&gt;&lt;div style=&quot;&quot;&gt;&lt;font style=&quot;font-size: 24px;&quot;&gt;&lt;b&gt;Efficiency (NVENC x265)&lt;/b&gt;&lt;/font&gt;&lt;/div&gt;&lt;div style=&quot;font-size: 17px;&quot;&gt;&lt;font style=&quot;font-size: 17px;&quot;&gt;-main profie&lt;/font&gt;&lt;/div&gt;&lt;div style=&quot;font-size: 17px;&quot;&gt;&lt;font style=&quot;font-size: 17px;&quot;&gt;-targets newer devices&lt;/font&gt;&lt;/div&gt;&lt;div style=&quot;font-size: 17px;&quot;&gt;&lt;font style=&quot;font-size: 17px;&quot;&gt;roughly 2x speed for 1080p&lt;/font&gt;&lt;/div&gt;&lt;div style=&quot;font-size: 17px;&quot;&gt;&lt;font style=&quot;font-size: 17px;&quot;&gt;&lt;br&gt;&lt;/font&gt;&lt;/div&gt;&lt;div style=&quot;&quot;&gt;&lt;font style=&quot;font-size: 24px;&quot;&gt;&lt;b&gt;Fast (NVENC x265)&lt;/b&gt;&lt;/font&gt;&lt;/div&gt;&lt;div style=&quot;font-size: 17px;&quot;&gt;&lt;font style=&quot;font-size: 17px;&quot;&gt;-targets not the newest&lt;/font&gt;&lt;/div&gt;&lt;div style=&quot;font-size: 17px;&quot;&gt;&lt;font style=&quot;font-size: 17px;&quot;&gt;-less b frames&lt;/font&gt;&lt;/div&gt;&lt;div style=&quot;font-size: 17px;&quot;&gt;&lt;font style=&quot;font-size: 17px;&quot;&gt;-rougly 5x +&amp;nbsp; speed&lt;/font&gt;&lt;/div&gt;&lt;div style=&quot;font-size: 17px;&quot;&gt;&lt;br&gt;&lt;/div&gt;&lt;div style=&quot;&quot;&gt;&lt;font style=&quot;font-size: 24px;&quot;&gt;&lt;b&gt;Archive (CPU-AV1)&lt;/b&gt;&lt;/font&gt;&lt;/div&gt;&lt;div style=&quot;font-size: 17px;&quot;&gt;&lt;font style=&quot;font-size: 17px;&quot;&gt;extra slow and efficient&lt;/font&gt;&lt;/div&gt;&lt;div style=&quot;font-size: 17px;&quot;&gt;&lt;font style=&quot;font-size: 17px;&quot;&gt;target 0,2x speed&lt;/font&gt;&lt;/div&gt;&lt;div style=&quot;font-size: 17px;&quot;&gt;&lt;font style=&quot;font-size: 17px;&quot;&gt;For PCs or new devices&lt;/font&gt;&lt;/div&gt;&lt;div style=&quot;font-size: 17px;&quot;&gt;&lt;font style=&quot;font-size: 17px;&quot;&gt;&lt;br&gt;&lt;/font&gt;&lt;/div&gt;&lt;div style=&quot;font-size: 24px;&quot;&gt;&lt;font style=&quot;font-size: 24px;&quot;&gt;&lt;b&gt;Legacy (NVENC x264)&lt;/b&gt;&lt;/font&gt;&lt;/div&gt;&lt;div style=&quot;font-size: 24px;&quot;&gt;&lt;font style=&quot;font-size: 24px;&quot;&gt;fast encode&lt;/font&gt;&lt;/div&gt;&lt;div style=&quot;font-size: 17px;&quot;&gt;&lt;font style=&quot;font-size: 17px;&quot;&gt;use mp3&lt;/font&gt;&lt;/div&gt;&lt;div&gt;&lt;br&gt;&lt;/div&gt;&lt;div&gt;&lt;br&gt;&lt;/div&gt;" style="text;html=1;whiteSpace=wrap;overflow=hidden;rounded=0;" parent="-mINFWNt5cziRGpvpEM8-4" vertex="1">
          <mxGeometry x="17" y="62" width="609.5" height="542" as="geometry" />
        </mxCell>
        <mxCell id="-mINFWNt5cziRGpvpEM8-6" value="Quality" style="swimlane;whiteSpace=wrap;html=1;fontSize=24;startSize=43;" parent="1" vertex="1">
          <mxGeometry x="-234" y="4759" width="638" height="291" as="geometry" />
        </mxCell>
        <mxCell id="-mINFWNt5cziRGpvpEM8-7" value="&lt;h1 style=&quot;margin-top: 0px;&quot;&gt;Slider&lt;/h1&gt;&lt;div style=&quot;font-size: 17px;&quot;&gt;&lt;font style=&quot;font-size: 17px;&quot;&gt;0=Transparency (determined by getCQ) defalut&lt;/font&gt;&lt;/div&gt;&lt;div style=&quot;font-size: 17px;&quot;&gt;&lt;font style=&quot;font-size: 17px;&quot;&gt;&amp;lt;0 = For more hq results&lt;/font&gt;&lt;/div&gt;&lt;div style=&quot;font-size: 17px;&quot;&gt;&lt;font style=&quot;font-size: 17px;&quot;&gt;&amp;gt;0 = For smaller file size&lt;/font&gt;&lt;/div&gt;&lt;div style=&quot;font-size: 17px;&quot;&gt;&lt;font style=&quot;font-size: 17px;&quot;&gt;&lt;br&gt;&lt;/font&gt;&lt;/div&gt;&lt;div style=&quot;font-size: 17px;&quot;&gt;&lt;font style=&quot;font-size: 17px;&quot;&gt;Very movie dependend&lt;/font&gt;&lt;/div&gt;&lt;div style=&quot;font-size: 17px;&quot;&gt;&lt;font style=&quot;font-size: 17px;&quot;&gt;&lt;br&gt;&lt;/font&gt;&lt;/div&gt;&lt;div style=&quot;font-size: 17px;&quot;&gt;&lt;font style=&quot;font-size: 17px;&quot;&gt;Target quality = getCQ-selected quality&lt;/font&gt;&lt;/div&gt;" style="text;html=1;whiteSpace=wrap;overflow=hidden;rounded=0;" parent="-mINFWNt5cziRGpvpEM8-6" vertex="1">
          <mxGeometry x="17" y="62" width="609.5" height="221" as="geometry" />
        </mxCell>
        <mxCell id="UUNoeBCxCViC-5x8zwUX-6" style="edgeStyle=orthogonalEdgeStyle;rounded=0;orthogonalLoop=1;jettySize=auto;html=1;entryX=1;entryY=0.25;entryDx=0;entryDy=0;" parent="1" source="UUNoeBCxCViC-5x8zwUX-1" target="W5TQijJyQ9mE0h_75X8s-142" edge="1">
          <mxGeometry relative="1" as="geometry" />
        </mxCell>
        <mxCell id="UUNoeBCxCViC-5x8zwUX-1" value="TODO" style="swimlane;fontStyle=0;childLayout=stackLayout;horizontal=1;startSize=30;horizontalStack=0;resizeParent=1;resizeParentMax=0;resizeLast=0;collapsible=1;marginBottom=0;whiteSpace=wrap;html=1;" parent="1" vertex="1">
          <mxGeometry x="3085" y="3154" width="280" height="185" as="geometry" />
        </mxCell>
        <mxCell id="UUNoeBCxCViC-5x8zwUX-2" value="Dont display ffmpeg vhen extracting audio to console&lt;div&gt;&lt;br&gt;&lt;div&gt;Delete VMAFlog.json&lt;/div&gt;&lt;/div&gt;&lt;div&gt;&lt;br&gt;&lt;/div&gt;&lt;div&gt;add tune to loseless for reference cq0 an others&lt;/div&gt;&lt;div&gt;&lt;br&gt;&lt;/div&gt;&lt;div&gt;enable use on non nvenc devices&lt;/div&gt;" style="text;strokeColor=none;fillColor=none;align=left;verticalAlign=middle;spacingLeft=4;spacingRight=4;overflow=hidden;points=[[0,0.5],[1,0.5]];portConstraint=eastwest;rotatable=0;whiteSpace=wrap;html=1;" parent="UUNoeBCxCViC-5x8zwUX-1" vertex="1">
          <mxGeometry y="30" width="280" height="155" as="geometry" />
        </mxCell>
      </root>
    </mxGraphModel>
  </diagram>
</mxfile>
